{
.appVersion = "3337";
DisplayStrings = (
"/bitcoin/cedi/colonsign/dong/guarani/lari/liraTurkish/manat/naira/peso/ruble/rupeeIndian/won",

glyphs = (
{
glyphname = A;
lastChange = "2025-01-05 11:09:50 +0000";
layers = (
{
anchors = (
{
name = bottom;
position = "{306, 0}";
},
{
name = ogonek;
position = "{564, 0}";
},
{
name = top;
position = "{304, 700}";
}
);
background = {
paths = (
{
closed = 1;
nodes = (
"332 632 LINE",
"313 694 LINE",
"296 694 LINE",
"275 632 LINE"
);
}
);
};
layerId = master01;
paths = (
{
closed = 1;
nodes = (
"155 0 LINE",
"155 16 LINE",
"87 45 LINE",
"87 28 LINE",
"286 632 LINE",
"321 632 LINE",
"519 28 LINE",
"519 45 LINE",
"451 16 LINE",
"451 0 LINE",
"602 0 LINE",
"602 16 LINE",
"529 45 LINE",
"538 27 LINE",
"312 705 LINE",
"295 705 LINE",
"69 27 LINE",
"77 45 LINE",
"5 16 LINE",
"5 0 LINE"
);
},
{
closed = 1;
nodes = (
"456 236 LINE",
"456 261 LINE",
"151 261 LINE",
"151 236 LINE"
);
}
);
userData = {
com.hugojourdan.ColorFlow = {
"0" = 0;
"1" = 0;
"10" = 0;
"11" = 0;
"2" = 0;
"3" = 0;
"4" = 0;
"5" = 0;
"6" = 0;
"7" = 0;
"8" = 0;
"9" = 0;
};
};
vertWidth = 750;
width = 607;
},
{
anchors = (
{
name = bottom;
position = "{340, 0}";
},
{
name = ogonek;
position = "{641, 0}";
},
{
name = top;
position = "{339, 700}";
}
);
background = {
paths = (
{
closed = 1;
nodes = (
"392 574 LINE",
"373 659 LINE",
"306 659 LINE",
"285 574 LINE"
);
}
);
};
layerId = "7F56E5C1-F146-4434-90E4-DA1B70285074";
paths = (
{
closed = 1;
nodes = (
"218 0 LINE",
"218 58 LINE",
"134 83 LINE",
"138 73 LINE",
"315 574 LINE",
"363 574 LINE",
"544 63 LINE",
"551 83 LINE",
"461 58 LINE",
"461 0 LINE",
"668 0 LINE",
"668 58 LINE",
"583 83 LINE",
"596 69 LINE",
"362 705 LINE",
"315 705 LINE",
"83 66 LINE",
"97 82 LINE",
"10 58 LINE",
"10 0 LINE"
);
},
{
closed = 1;
nodes = (
"515 213 LINE",
"500 295 LINE",
"187 295 LINE",
"167 213 LINE"
);
}
);
userData = {
com.hugojourdan.ColorFlow = {
"0" = 0;
"1" = 0;
"10" = 0;
"11" = 0;
"2" = 0;
"3" = 0;
"4" = 0;
"5" = 0;
"6" = 0;
"7" = 0;
"8" = 0;
"9" = 0;
};
};
vertWidth = 750;
width = 678;
},
{
anchors = (
{
name = bottom;
position = "{341, 0}";
},
{
name = ogonek;
position = "{630, 0}";
},
{
name = top;
position = "{342, 700}";
}
);
background = {
paths = (
{
closed = 1;
nodes = (
"307 659 LINE",
"374 659 LINE",
"393 514 LINE",
"286 514 LINE"
);
}
);
};
layerId = "3CA830F5-1E41-4F35-86DC-34C8110F5ED1";
paths = (
{
closed = 1;
nodes = (
"263 0 LINE",
"263 138 LINE",
"159 188 LINE",
"181 126 LINE",
"312 514 LINE",
"369 514 LINE",
"500 126 LINE",
"527 188 LINE",
"418 138 LINE",
"418 0 LINE",
"666 0 LINE",
"666 138 LINE",
"557 188 LINE",
"613 127 LINE",
"402 705 LINE",
"279 705 LINE",
"68 127 LINE",
"124 188 LINE",
"15 138 LINE",
"15 0 LINE"
);
},
{
closed = 1;
nodes = (
"526 216 LINE",
"486 358 LINE",
"208 358 LINE",
"178 216 LINE"
);
}
);
userData = {
com.hugojourdan.ColorFlow = {
"0" = 0;
"1" = 0;
"10" = 0;
"11" = 0;
"2" = 0;
"3" = 0;
"4" = 0;
"5" = 0;
"6" = 0;
"7" = 0;
"8" = 0;
"9" = 0;
};
com.typemytype.robofont.guides = (
{
isGlobal = 0;
magnetic = 5;
x = 0;
y = 64;
}
);
};
vertWidth = 750;
width = 681;
}
);
leftKerningGroup = A;
rightKerningGroup = A;
rightMetricsKey = "=|";
unicode = 0041;
userData = {
KernOnName = A;
};
},
{
glyphname = AE;
lastChange = "2025-01-05 08:34:55 +0000";
layers = (
{
anchors = (
{
name = bottom;
position = "{430, 0}";
},
{
name = top;
position = "{430, 700}";
}
);
background = {
paths = (
{
closed = 1;
nodes = (
"147 0 LINE",
"147 16 LINE",
"85 34 LINE",
"417 688 LINE {name = \"🧨\";}",
"400 675 LINE",
"782 675 LINE",
"756 688 LINE",
"798 554 LINE",
"815 557 LINE",
"790 700 LINE",
"406 700 LINE",
"66 34 LINE",
"0 16 LINE",
"0 0 LINE"
);
},
{
closed = 1;
nodes = (
"449 236 LINE",
"449 261 LINE",
"190 261 LINE",
"180 236 LINE {name = \"🧨\";}"
);
},
{
closed = 1;
nodes = (
"800 0 LINE",
"825 163 LINE",
"808 165 LINE",
"768 11 LINE",
"794 25 LINE",
"447 25 LINE",
"455 15 LINE {name = \"🧨\";}",
"455 688 LINE {name = \"🧨\";}",
"439 688 LINE {name = \"🧨\";}",
"439 0 LINE {name = \"🧨\";}"
);
},
{
closed = 1;
nodes = (
"684 349 LINE",
"684 374 LINE",
"448 374 LINE",
"448 349 LINE"
);
},
{
closed = 1;
nodes = (
"698 259 LINE",
"698 445 LINE",
"684 445 LINE",
"667 370 LINE",
"666 357 LINE",
"683 259 LINE"
);
}
);
};
layerId = master01;
paths = (
{
closed = 1;
nodes = (
"147 0 LINE",
"147 16 LINE",
"90 44 LINE",
"417 688 LINE {name = \"🧨\";}",
"400 675 LINE",
"782 675 LINE",
"746 688 LINE",
"798 554 LINE",
"815 557 LINE",
"790 700 LINE",
"406 700 LINE",
"71 44 LINE",
"0 16 LINE",
"0 0 LINE"
);
},
{
closed = 1;
nodes = (
"449 236 LINE",
"449 261 LINE",
"190 261 LINE",
"180 236 LINE {name = \"🧨\";}"
);
},
{
closed = 1;
nodes = (
"800 0 LINE",
"825 163 LINE",
"808 165 LINE",
"758 11 LINE",
"794 25 LINE",
"447 25 LINE",
"455 15 LINE {name = \"🧨\";}",
"455 688 LINE {name = \"🧨\";}",
"439 688 LINE {name = \"🧨\";}",
"439 0 LINE {name = \"🧨\";}"
);
},
{
closed = 1;
nodes = (
"684 349 LINE",
"684 374 LINE",
"448 374 LINE",
"448 349 LINE"
);
},
{
closed = 1;
nodes = (
"698 259 LINE",
"698 445 LINE",
"684 445 LINE",
"657 370 LINE",
"656 357 LINE",
"683 259 LINE"
);
}
);
userData = {
com.hugojourdan.ColorFlow = {
"0" = 0;
"1" = 0;
"10" = 0;
"11" = 0;
"2" = 0;
"3" = 0;
"4" = 0;
"5" = 0;
"6" = 0;
"7" = 0;
"8" = 0;
"9" = 0;
};
};
width = 860;
},
{
anchors = (
{
name = bottom;
position = "{425, 0}";
},
{
name = top;
position = "{425, 700}";
}
);
layerId = "7F56E5C1-F146-4434-90E4-DA1B70285074";
paths = (
{
closed = 1;
nodes = (
"198 0 LINE",
"198 58 LINE",
"128 79 LINE",
"406 640 LINE",
"378 615 LINE",
"770 615 LINE",
"735 637 LINE",
"775 550 LINE",
"810 557 LINE",
"795 700 LINE",
"385 700 LINE {name = \"🧨\";}",
"74 79 LINE",
"7 58 LINE",
"7 0 LINE"
);
},
{
closed = 1;
nodes = (
"476 209 LINE",
"476 291 LINE",
"218 291 LINE",
"168 209 LINE"
);
},
{
closed = 1;
nodes = (
"805 0 LINE",
"820 163 LINE",
"785 170 LINE",
"743 62 LINE",
"777 85 LINE",
"470 85 LINE",
"489 64 LINE",
"489 660 LINE {name = \"🧨\";}",
"434 660 LINE {name = \"🧨\";}",
"434 0 LINE {name = \"🧨\";}"
);
},
{
closed = 1;
nodes = (
"661 320 LINE",
"661 400 LINE",
"463 400 LINE",
"463 320 LINE"
);
},
{
closed = 1;
nodes = (
"703 259 LINE",
"703 446 LINE",
"661 446 LINE",
"640 370 LINE",
"639 347 LINE",
"660 259 LINE"
);
}
);
userData = {
com.hugojourdan.ColorFlow = {
"0" = 0;
"1" = 0;
"10" = 0;
"11" = 0;
"2" = 0;
"3" = 0;
"4" = 0;
"5" = 0;
"6" = 0;
"7" = 0;
"8" = 0;
"9" = 0;
};
};
width = 850;
},
{
anchors = (
{
name = bottom;
position = "{443, 0}";
},
{
name = top;
position = "{443, 700}";
}
);
layerId = "3CA830F5-1E41-4F35-86DC-34C8110F5ED1";
paths = (
{
closed = 1;
nodes = (
"254 0 LINE",
"254 138 LINE",
"193 169 LINE",
"394 587 LINE",
"327 535 LINE",
"767 535 LINE",
"732 558 LINE",
"776 460 LINE",
"861 477 LINE",
"846 700 LINE",
"346 700 LINE {name = \"🧨\";}",
"77 169 LINE",
"10 138 LINE",
"10 0 LINE"
);
},
{
closed = 1;
nodes = (
"503 216 LINE",
"463 358 LINE",
"215 358 LINE",
"155 216 LINE"
);
},
{
closed = 1;
nodes = (
"856 0 LINE",
"871 243 LINE",
"786 260 LINE",
"741 142 LINE",
"775 165 LINE",
"512 165 LINE",
"540 135 LINE",
"540 581 LINE {name = \"🧨\";}",
"430 581 LINE {name = \"🧨\";}",
"430 0 LINE {name = \"🧨\";}"
);
},
{
closed = 1;
nodes = (
"682 280 LINE",
"682 430 LINE",
"469 430 LINE",
"469 280 LINE"
);
},
{
closed = 1;
nodes = (
"724 230 LINE",
"724 476 LINE",
"632 476 LINE",
"611 373 LINE",
"610 350 LINE",
"631 230 LINE"
);
}
);
userData = {
com.hugojourdan.ColorFlow = {
"0" = 0;
"1" = 0;
"10" = 0;
"11" = 0;
"2" = 0;
"3" = 0;
"4" = 0;
"5" = 0;
"6" = 0;
"7" = 0;
"8" = 0;
"9" = 0;
};
};
width = 896;
}
);
leftKerningGroup = AE;
rightKerningGroup = E;
rightMetricsKey = E;
unicode = 00C6;
},
{
glyphname = B;
lastChange = "2025-01-05 11:05:46 +0000";
layers = (
{
background = {
hints = (
{
place = "{106, 9223372036854775808}";
type = Corner;
name = _corner.serifBottomRight;
options = 1;
},
{
place = "{106, 9223372036854775808}";
type = Corner;
name = _corner.serifBottomLeft;
}
);
paths = (
{
closed = 1;
nodes = (
"302 0 LINE SMOOTH",
"420 0 OFFCURVE",
"482 80 OFFCURVE",
"482 192 CURVE SMOOTH",
"482 318 OFFCURVE",
"404 383 OFFCURVE",
"291 383 CURVE SMOOTH",
"116 383 LINE",
"116 358 LINE",
"287 358 LINE SMOOTH",
"400 358 OFFCURVE",
"464 301 OFFCURVE",
"464 192 CURVE SMOOTH",
"464 96 OFFCURVE",
"413 25 OFFCURVE",
"311 25 CURVE SMOOTH",
"120 25 LINE",
"126 19 LINE",
"126 683 LINE",
"120 675 LINE",
"270 675 LINE SMOOTH",
"373 675 OFFCURVE",
"419 619 OFFCURVE",
"419 536 CURVE SMOOTH",
"419 445 OFFCURVE",
"364 399 OFFCURVE",
"299 380 CURVE",
"309 365 LINE",
"385 391 OFFCURVE",
"437 441 OFFCURVE",
"437 537 CURVE SMOOTH",
"437 640 OFFCURVE",
"376 700 OFFCURVE",
"276 700 CURVE SMOOTH",
"44 700 LINE",
"44 684 LINE",
"110 666 LINE",
"110 34 LINE",
"44 16 LINE",
"44 0 LINE"
);
}
);
};
layerId = master01;
paths = (
{
closed = 1;
nodes = (
"302 0 LINE SMOOTH",
"420 0 OFFCURVE",
"482 80 OFFCURVE",
"482 192 CURVE SMOOTH",
"482 303 OFFCURVE",
"419 365 OFFCURVE",
"325 377 CURVE",
"305 367 LINE",
"367 375 OFFCURVE",
"437 434 OFFCURVE",
"437 540 CURVE SMOOTH",
"437 639 OFFCURVE",
"376 700 OFFCURVE",
"276 700 CURVE SMOOTH",
"44 700 LINE",
"44 684 LINE",
"110 656 LINE",
"110 44 LINE",
"44 16 LINE",
"44 0 LINE"
);
},
{
closed = 1;
nodes = (
"126 683 LINE",
"120 675 LINE",
"270 675 LINE SMOOTH",
"373 675 OFFCURVE",
"419 618 OFFCURVE",
"419 538 CURVE SMOOTH",
"419 444 OFFCURVE",
"356 383 OFFCURVE",
"271 383 CURVE SMOOTH",
"116 383 LINE",
"116 358 LINE",
"287 358 LINE SMOOTH",
"400 358 OFFCURVE",
"464 301 OFFCURVE",
"464 192 CURVE SMOOTH",
"464 96 OFFCURVE",
"413 25 OFFCURVE",
"311 25 CURVE SMOOTH",
"120 25 LINE",
"126 19 LINE"
);
}
);
userData = {
com.hugojourdan.ColorFlow = {
"0" = 0;
"1" = 0;
"10" = 0;
"11" = 0;
"2" = 0;
"3" = 0;
"4" = 0;
"5" = 0;
"6" = 0;
"7" = 0;
"8" = 0;
"9" = 0;
};
};
vertWidth = 750;
width = 532;
},
{
background = {
paths = (
{
closed = 1;
nodes = (
"314 0 LINE SMOOTH",
"444 0 OFFCURVE",
"514 72 OFFCURVE",
"514 205 CURVE SMOOTH",
"514 354 OFFCURVE",
"426 409 OFFCURVE",
"301 409 CURVE SMOOTH",
"155 409 LINE",
"155 328 LINE",
"311 328 LINE SMOOTH",
"412 328 OFFCURVE",
"456 296 OFFCURVE",
"456 207 CURVE SMOOTH",
"456 127 OFFCURVE",
"421 85 OFFCURVE",
"340 85 CURVE SMOOTH",
"141 85 LINE",
"167 56 LINE",
"167 642 LINE",
"145 615 LINE",
"305 615 LINE SMOOTH",
"389 615 OFFCURVE",
"414 585 OFFCURVE",
"414 528 CURVE SMOOTH",
"414 469 OFFCURVE",
"387 432 OFFCURVE",
"334 407 CURVE",
"362 370 LINE",
"430 408 OFFCURVE",
"472 447 OFFCURVE",
"472 539 CURVE SMOOTH",
"472 644 OFFCURVE",
"417 700 OFFCURVE",
"291 700 CURVE SMOOTH",
"35 700 LINE",
"35 642 LINE",
"112 619 LINE",
"112 79 LINE",
"35 58 LINE",
"35 0 LINE"
);
}
);
};
layerId = "7F56E5C1-F146-4434-90E4-DA1B70285074";
paths = (
{
closed = 1;
nodes = (
"314 0 LINE SMOOTH",
"444 0 OFFCURVE",
"514 72 OFFCURVE",
"514 199 CURVE SMOOTH",
"514 307 OFFCURVE",
"463 360 OFFCURVE",
"383 379 CURVE",
"373 362 LINE",
"435 390 OFFCURVE",
"472 435 OFFCURVE",
"472 528 CURVE SMOOTH",
"472 640 OFFCURVE",
"417 700 OFFCURVE",
"291 700 CURVE SMOOTH",
"35 700 LINE",
"35 642 LINE",
"112 619 LINE",
"112 79 LINE",
"35 58 LINE",
"35 0 LINE"
);
},
{
closed = 1;
nodes = (
"167 642 LINE",
"145 615 LINE",
"305 615 LINE SMOOTH",
"389 615 OFFCURVE",
"414 566 OFFCURVE",
"414 511 CURVE SMOOTH",
"414 452 OFFCURVE",
"386 409 OFFCURVE",
"301 409 CURVE SMOOTH",
"155 409 LINE",
"155 328 LINE",
"311 328 LINE SMOOTH",
"412 328 OFFCURVE",
"456 296 OFFCURVE",
"456 207 CURVE SMOOTH",
"456 127 OFFCURVE",
"421 85 OFFCURVE",
"340 85 CURVE SMOOTH",
"141 85 LINE",
"167 56 LINE"
);
}
);
userData = {
com.hugojourdan.ColorFlow = {
"0" = 0;
"1" = 0;
"10" = 0;
"11" = 0;
"2" = 0;
"3" = 0;
"4" = 0;
"5" = 0;
"6" = 0;
"7" = 0;
"8" = 0;
"9" = 0;
};
};
vertWidth = 750;
width = 549;
},
{
background = {
paths = (
{
closed = 1;
nodes = (
"310 0 LINE SMOOTH",
"460 0 OFFCURVE",
"540 82 OFFCURVE",
"540 226 CURVE SMOOTH",
"540 374 OFFCURVE",
"452 423 OFFCURVE",
"329 423 CURVE SMOOTH",
"141 423 LINE",
"141 282 LINE",
"345 282 LINE SMOOTH",
"404 282 OFFCURVE",
"427 265 OFFCURVE",
"427 223 CURVE SMOOTH",
"427 182 OFFCURVE",
"406 165 OFFCURVE",
"356 165 CURVE SMOOTH",
"170 165 LINE",
"208 126 LINE",
"208 590 LINE",
"170 535 LINE",
"314 535 LINE SMOOTH",
"372 535 OFFCURVE",
"393 511 OFFCURVE",
"393 478 CURVE SMOOTH",
"393 445 OFFCURVE",
"372 421 OFFCURVE",
"329 423 CURVE",
"367 316 LINE",
"465 348 OFFCURVE",
"506 405 OFFCURVE",
"506 509 CURVE SMOOTH",
"506 641 OFFCURVE",
"437 700 OFFCURVE",
"290 700 CURVE SMOOTH",
"30 700 LINE",
"30 562 LINE",
"98 531 LINE",
"98 169 LINE",
"30 138 LINE",
"30 0 LINE"
);
}
);
};
layerId = "3CA830F5-1E41-4F35-86DC-34C8110F5ED1";
paths = (
{
closed = 1;
nodes = (
"310 0 LINE SMOOTH",
"460 0 OFFCURVE",
"540 71 OFFCURVE",
"540 195 CURVE SMOOTH",
"540 303 OFFCURVE",
"479 357 OFFCURVE",
"384 380 CURVE",
"374 341 LINE",
"468 359 OFFCURVE",
"506 419 OFFCURVE",
"506 514 CURVE SMOOTH",
"506 642 OFFCURVE",
"437 700 OFFCURVE",
"290 700 CURVE SMOOTH",
"30 700 LINE",
"30 562 LINE",
"98 531 LINE",
"98 169 LINE",
"30 138 LINE",
"30 0 LINE"
);
},
{
closed = 1;
nodes = (
"208 590 LINE",
"170 535 LINE",
"314 535 LINE SMOOTH",
"372 535 OFFCURVE",
"393 512 OFFCURVE",
"393 480 CURVE SMOOTH",
"393 446 OFFCURVE",
"369 423 OFFCURVE",
"319 423 CURVE SMOOTH",
"141 423 LINE",
"141 282 LINE",
"345 282 LINE SMOOTH",
"404 282 OFFCURVE",
"427 265 OFFCURVE",
"427 223 CURVE SMOOTH",
"427 182 OFFCURVE",
"406 165 OFFCURVE",
"356 165 CURVE SMOOTH",
"170 165 LINE",
"208 126 LINE"
);
}
);
userData = {
com.hugojourdan.ColorFlow = {
"0" = 0;
"1" = 0;
"10" = 0;
"11" = 0;
"2" = 0;
"3" = 0;
"4" = 0;
"5" = 0;
"6" = 0;
"7" = 0;
"8" = 0;
"9" = 0;
};
};
vertWidth = 750;
width = 570;
},
{
associatedMasterId = "3CA830F5-1E41-4F35-86DC-34C8110F5ED1";
layerId = "868174CF-B893-43DA-978F-EB18305AB0A2";
name = "3 Jan 25 at 23.32";
paths = (
{
closed = 1;
nodes = (
"310 0 LINE SMOOTH",
"460 0 OFFCURVE",
"540 82 OFFCURVE",
"540 226 CURVE SMOOTH",
"540 377 OFFCURVE",
"452 427 OFFCURVE",
"329 427 CURVE SMOOTH",
"141 427 LINE",
"141 286 LINE",
"345 286 LINE SMOOTH",
"403 286 OFFCURVE",
"427 268 OFFCURVE",
"427 224 CURVE SMOOTH",
"427 182 OFFCURVE",
"406 165 OFFCURVE",
"356 165 CURVE SMOOTH",
"170 165 LINE",
"208 126 LINE",
"208 590 LINE",
"170 535 LINE",
"314 535 LINE SMOOTH",
"374 535 OFFCURVE",
"393 513 OFFCURVE",
"393 475 CURVE SMOOTH",
"393 445 OFFCURVE",
"380 428 OFFCURVE",
"353 419 CURVE",
"425 370 LINE",
"478 414 OFFCURVE",
"506 454 OFFCURVE",
"506 532 CURVE SMOOTH",
"506 646 OFFCURVE",
"439 700 OFFCURVE",
"290 700 CURVE SMOOTH",
"30 700 LINE",
"30 562 LINE",
"98 531 LINE",
"98 169 LINE",
"30 138 LINE",
"30 0 LINE"
);
}
);
userData = {
com.hugojourdan.ColorFlow = {
"0" = 0;
"1" = 0;
"10" = 0;
"11" = 0;
"2" = 0;
"3" = 0;
"4" = 0;
"5" = 0;
"6" = 0;
"7" = 0;
"8" = 0;
"9" = 0;
};
};
vertWidth = 750;
width = 570;
}
);
leftKerningGroup = H;
leftMetricsKey = H;
rightKerningGroup = B;
unicode = 0042;
userData = {
KernOnName = B;
};
},
{
glyphname = C;
lastChange = "2025-01-05 11:04:39 +0000";
layers = (
{
anchors = (
{
name = bottom;
position = "{339, 0}";
},
{
name = cedilla;
position = "{354, 0}";
},
{
name = top;
position = "{339, 700}";
}
);
layerId = master01;
paths = (
{
closed = 1;
nodes = (
"490 -5 OFFCURVE",
"575 59 OFFCURVE",
"619 156 CURVE",
"604 164 LINE",
"556 67 OFFCURVE",
"473 23 OFFCURVE",
"362 23 CURVE SMOOTH",
"179 23 OFFCURVE",
"78 143 OFFCURVE",
"78 353 CURVE SMOOTH",
"78 559 OFFCURVE",
"175 677 OFFCURVE",
"368 677 CURVE SMOOTH",
"473 677 OFFCURVE",
"537 642 OFFCURVE",
"568 618 CURVE",
"547 648 LINE",
"583 494 LINE",
"601 496 LINE",
"592 634 LINE",
"546 674 OFFCURVE",
"463 705 OFFCURVE",
"369 705 CURVE SMOOTH",
"169 705 OFFCURVE",
"60 566 OFFCURVE",
"60 353 CURVE SMOOTH",
"60 140 OFFCURVE",
"169 -5 OFFCURVE",
"362 -5 CURVE SMOOTH"
);
}
);
userData = {
com.hugojourdan.ColorFlow = {
"0" = 0;
"1" = 0;
"10" = 0;
"11" = 0;
"2" = 0;
"3" = 0;
"4" = 0;
"5" = 0;
"6" = 0;
"7" = 0;
"8" = 0;
"9" = 0;
};
};
vertWidth = 750;
width = 662;
},
{
anchors = (
{
name = bottom;
position = "{344, 0}";
},
{
name = cedilla;
position = "{369, 0}";
},
{
name = top;
position = "{344, 700}";
}
);
layerId = "7F56E5C1-F146-4434-90E4-DA1B70285074";
paths = (
{
closed = 1;
nodes = (
"509 -10 OFFCURVE",
"589 65 OFFCURVE",
"639 160 CURVE",
"604 186 LINE",
"552 114 OFFCURVE",
"475 78 OFFCURVE",
"370 78 CURVE SMOOTH",
"201 78 OFFCURVE",
"113 170 OFFCURVE",
"113 345 CURVE SMOOTH",
"113 515 OFFCURVE",
"197 622 OFFCURVE",
"369 622 CURVE SMOOTH",
"443 622 OFFCURVE",
"513 603 OFFCURVE",
"561 566 CURVE",
"531 606 LINE",
"580 479 LINE",
"621 486 LINE",
"607 624 LINE",
"561 673 OFFCURVE",
"479 710 OFFCURVE",
"376 710 CURVE SMOOTH",
"173 710 OFFCURVE",
"55 558 OFFCURVE",
"55 342 CURVE SMOOTH",
"55 126 OFFCURVE",
"173 -10 OFFCURVE",
"366 -10 CURVE SMOOTH"
);
}
);
userData = {
com.hugojourdan.ColorFlow = {
"0" = 0;
"1" = 0;
"10" = 0;
"11" = 0;
"2" = 0;
"3" = 0;
"4" = 0;
"5" = 0;
"6" = 0;
"7" = 0;
"8" = 0;
"9" = 0;
};
com.typemytype.robofont.guides = (
{
isGlobal = 0;
magnetic = 5;
x = 777;
y = 0;
}
);
};
vertWidth = 750;
width = 679;
},
{
anchors = (
{
name = bottom;
position = "{336, 0}";
},
{
name = cedilla;
position = "{364, 0}";
},
{
name = top;
position = "{356, 700}";
}
);
layerId = "3CA830F5-1E41-4F35-86DC-34C8110F5ED1";
paths = (
{
closed = 1;
nodes = (
"496 -10 OFFCURVE",
"586 65 OFFCURVE",
"632 178 CURVE",
"557 235 LINE",
"508 179 OFFCURVE",
"437 158 OFFCURVE",
"359 158 CURVE SMOOTH",
"219 158 OFFCURVE",
"153 225 OFFCURVE",
"153 350 CURVE SMOOTH",
"153 469 OFFCURVE",
"213 542 OFFCURVE",
"369 542 CURVE SMOOTH",
"415 542 OFFCURVE",
"461 536 OFFCURVE",
"502 523 CURVE",
"477 550 LINE",
"533 419 LINE",
"621 435 LINE",
"602 644 LINE",
"554 682 OFFCURVE",
"468 710 OFFCURVE",
"374 710 CURVE SMOOTH",
"158 710 OFFCURVE",
"40 562 OFFCURVE",
"40 345 CURVE SMOOTH",
"40 130 OFFCURVE",
"156 -10 OFFCURVE",
"353 -10 CURVE SMOOTH"
);
}
);
userData = {
com.hugojourdan.ColorFlow = {
"0" = 0;
"1" = 0;
"10" = 0;
"11" = 0;
"2" = 0;
"3" = 0;
"4" = 0;
"5" = 0;
"6" = 0;
"7" = 0;
"8" = 0;
"9" = 0;
};
com.typemytype.robofont.guides = (
{
isGlobal = 0;
magnetic = 5;
x = 767;
y = 0;
}
);
};
vertWidth = 750;
width = 662;
}
);
leftKerningGroup = O;
leftMetricsKey = O;
rightKerningGroup = C;
unicode = 0043;
userData = {
KernOnName = C;
};
},
{
glyphname = D;
lastChange = "2025-01-05 09:40:56 +0000";
layers = (
{
anchors = (
{
name = bottom;
position = "{296, 0}";
},
{
name = center;
position = "{136, 350}";
},
{
name = top;
position = "{296, 700}";
}
);
layerId = master01;
paths = (
{
closed = 1;
nodes = (
"268 0 LINE SMOOTH",
"447 0 OFFCURVE",
"588 91 OFFCURVE",
"588 350 CURVE SMOOTH",
"588 608 OFFCURVE",
"447 700 OFFCURVE",
"268 700 CURVE SMOOTH",
"44 700 LINE",
"44 684 LINE",
"110 656 LINE",
"110 44 LINE",
"44 16 LINE",
"44 0 LINE"
);
},
{
closed = 1;
nodes = (
"126 685 LINE",
"118 675 LINE",
"276 675 LINE SMOOTH",
"485 675 OFFCURVE",
"570 542 OFFCURVE",
"570 350 CURVE SMOOTH",
"570 159 OFFCURVE",
"485 25 OFFCURVE",
"276 25 CURVE SMOOTH",
"118 25 LINE",
"126 17 LINE"
);
}
);
userData = {
com.hugojourdan.ColorFlow = {
"0" = 0;
"1" = 0;
"10" = 0;
"11" = 0;
"2" = 0;
"3" = 0;
"4" = 0;
"5" = 0;
"6" = 0;
"7" = 0;
"8" = 0;
"9" = 0;
};
};
vertWidth = 750;
width = 648;
},
{
anchors = (
{
name = bottom;
position = "{313, 0}";
},
{
name = center;
position = "{143, 350}";
},
{
name = top;
position = "{313, 700}";
}
);
layerId = "7F56E5C1-F146-4434-90E4-DA1B70285074";
paths = (
{
closed = 1;
nodes = (
"290 0 LINE SMOOTH",
"455 0 OFFCURVE",
"610 91 OFFCURVE",
"610 350 CURVE SMOOTH",
"610 608 OFFCURVE",
"455 700 OFFCURVE",
"290 700 CURVE SMOOTH",
"35 700 LINE",
"35 642 LINE",
"112 619 LINE",
"112 79 LINE",
"35 58 LINE",
"35 0 LINE"
);
},
{
closed = 1;
nodes = (
"167 637 LINE",
"142 612 LINE",
"303 612 LINE SMOOTH",
"483 612 OFFCURVE",
"552 505 OFFCURVE",
"552 350 CURVE SMOOTH",
"552 196 OFFCURVE",
"483 88 OFFCURVE",
"303 88 CURVE SMOOTH",
"142 88 LINE",
"167 63 LINE"
);
}
);
userData = {
com.hugojourdan.ColorFlow = {
"0" = 0;
"1" = 0;
"10" = 0;
"11" = 0;
"2" = 0;
"3" = 0;
"4" = 0;
"5" = 0;
"6" = 0;
"7" = 0;
"8" = 0;
"9" = 0;
};
};
vertWidth = 750;
width = 665;
},
{
anchors = (
{
name = bottom;
position = "{314, 0}";
},
{
name = center;
position = "{156, 350}";
},
{
name = top;
position = "{314, 700}";
}
);
layerId = "3CA830F5-1E41-4F35-86DC-34C8110F5ED1";
paths = (
{
closed = 1;
nodes = (
"286 0 LINE SMOOTH",
"481 0 OFFCURVE",
"621 91 OFFCURVE",
"621 350 CURVE SMOOTH",
"621 608 OFFCURVE",
"481 700 OFFCURVE",
"286 700 CURVE SMOOTH",
"30 700 LINE",
"30 562 LINE",
"98 531 LINE",
"98 169 LINE",
"30 138 LINE",
"30 0 LINE"
);
},
{
closed = 1;
nodes = (
"208 557 LINE",
"183 532 LINE",
"309 532 LINE SMOOTH",
"465 532 OFFCURVE",
"508 458 OFFCURVE",
"508 350 CURVE SMOOTH",
"508 243 OFFCURVE",
"465 168 OFFCURVE",
"309 168 CURVE SMOOTH",
"183 168 LINE",
"208 143 LINE"
);
}
);
userData = {
com.hugojourdan.ColorFlow = {
"0" = 0;
"1" = 0;
"10" = 0;
"11" = 0;
"2" = 0;
"3" = 0;
"4" = 0;
"5" = 0;
"6" = 0;
"7" = 0;
"8" = 0;
"9" = 0;
};
};
vertWidth = 750;
width = 661;
}
);
leftKerningGroup = H;
leftMetricsKey = H;
rightKerningGroup = O;
rightMetricsKey = O;
unicode = 0044;
},
{
glyphname = E;
lastChange = "2025-01-06 03:38:44 +0000";
layers = (
{
anchors = (
{
name = bottom;
position = "{288, 0}";
},
{
name = ogonek;
position = "{471, 0}";
},
{
name = top;
position = "{288, 700}";
},
{
name = topleft;
position = "{24, 700}";
}
);
layerId = master01;
paths = (
{
closed = 1;
nodes = (
"471 0 LINE",
"496 163 LINE",
"479 165 LINE",
"429 9 LINE",
"465 25 LINE",
"119 25 LINE",
"126 19 LINE",
"126 684 LINE",
"120 675 LINE",
"453 675 LINE",
"415 693 LINE",
"469 554 LINE",
"486 557 LINE",
"461 700 LINE",
"44 700 LINE",
"44 684 LINE",
"110 656 LINE",
"110 44 LINE",
"44 16 LINE",
"44 0 LINE"
);
},
{
closed = 1;
nodes = (
"355 349 LINE",
"355 374 LINE",
"119 374 LINE",
"119 349 LINE"
);
},
{
closed = 1;
nodes = (
"369 259 LINE",
"369 445 LINE",
"355 445 LINE",
"328 370 LINE",
"327 357 LINE",
"354 259 LINE"
);
}
);
userData = {
com.hugojourdan.ColorFlow = {
"0" = 0;
"1" = 0;
"10" = 0;
"11" = 0;
"2" = 0;
"3" = 0;
"4" = 0;
"5" = 0;
"6" = 0;
"7" = 0;
"8" = 0;
"9" = 0;
};
};
vertWidth = 750;
width = 531;
},
{
anchors = (
{
name = bottom;
position = "{294, 0}";
},
{
name = ogonek;
position = "{483, 0}";
},
{
name = top;
position = "{294, 700}";
},
{
name = topleft;
position = "{20, 700}";
}
);
layerId = "7F56E5C1-F146-4434-90E4-DA1B70285074";
paths = (
{
closed = 1;
nodes = (
"483 0 LINE",
"498 163 LINE",
"463 170 LINE",
"421 62 LINE",
"455 85 LINE",
"151 85 LINE",
"167 64 LINE",
"167 645 LINE",
"146 615 LINE",
"448 615 LINE",
"413 637 LINE",
"453 550 LINE",
"488 557 LINE",
"473 700 LINE",
"35 700 LINE",
"35 642 LINE",
"112 619 LINE",
"112 79 LINE",
"35 58 LINE",
"35 0 LINE"
);
},
{
closed = 1;
nodes = (
"339 320 LINE",
"339 400 LINE",
"141 400 LINE",
"141 320 LINE"
);
},
{
closed = 1;
nodes = (
"381 259 LINE",
"381 446 LINE",
"339 446 LINE",
"318 370 LINE",
"317 347 LINE",
"338 259 LINE"
);
}
);
userData = {
com.hugojourdan.ColorFlow = {
"0" = 0;
"1" = 0;
"10" = 0;
"11" = 0;
"2" = 0;
"3" = 0;
"4" = 0;
"5" = 0;
"6" = 0;
"7" = 0;
"8" = 0;
"9" = 0;
};
};
vertWidth = 750;
width = 528;
},
{
anchors = (
{
name = bottom;
position = "{292, 0}";
},
{
name = ogonek;
position = "{524, 0}";
},
{
name = top;
position = "{292, 700}";
},
{
name = topleft;
position = "{20, 700}";
}
);
layerId = "3CA830F5-1E41-4F35-86DC-34C8110F5ED1";
paths = (
{
closed = 1;
nodes = (
"524 0 LINE",
"539 243 LINE",
"454 260 LINE",
"409 142 LINE",
"443 165 LINE",
"186 165 LINE",
"208 137 LINE",
"208 573 LINE",
"180 535 LINE",
"435 535 LINE",
"400 558 LINE",
"444 460 LINE",
"529 477 LINE",
"514 700 LINE",
"30 700 LINE",
"30 562 LINE",
"98 531 LINE",
"98 169 LINE",
"30 138 LINE",
"30 0 LINE"
);
},
{
closed = 1;
nodes = (
"350 280 LINE",
"350 430 LINE",
"137 430 LINE",
"137 280 LINE"
);
},
{
closed = 1;
nodes = (
"392 230 LINE",
"392 476 LINE",
"310 476 LINE",
"279 373 LINE",
"278 350 LINE",
"309 230 LINE"
);
}
);
userData = {
com.hugojourdan.ColorFlow = {
"0" = 0;
"1" = 0;
"10" = 0;
"11" = 0;
"2" = 0;
"3" = 0;
"4" = 0;
"5" = 0;
"6" = 0;
"7" = 0;
"8" = 0;
"9" = 0;
};
};
vertWidth = 750;
width = 564;
}
);
leftKerningGroup = H;
leftMetricsKey = H;
rightKerningGroup = E;
unicode = 0045;
userData = {
KernOnName = E;
};
},
{
glyphname = Schwa;
lastChange = "2025-01-03 16:28:12 +0000";
layers = (
{
anchors = (
{
name = bottom;
position = "{336, 0}";
},
{
name = top;
position = "{336, 700}";
}
);
layerId = master01;
paths = (
{
closed = 1;
nodes = (
"510 -5 OFFCURVE",
"612 139 OFFCURVE",
"612 352 CURVE SMOOTH",
"612 568 OFFCURVE",
"508 705 OFFCURVE",
"327 705 CURVE SMOOTH",
"149 705 OFFCURVE",
"28 573 OFFCURVE",
"40 362 CURVE",
"601 362 LINE",
"601 387 LINE",
"53 387 LINE",
"57 382 LINE",
"53 568 OFFCURVE",
"165 677 OFFCURVE",
"326 677 CURVE SMOOTH",
"501 677 OFFCURVE",
"594 554 OFFCURVE",
"594 351 CURVE SMOOTH",
"594 148 OFFCURVE",
"500 23 OFFCURVE",
"323 23 CURVE SMOOTH",
"203 23 OFFCURVE",
"107 78 OFFCURVE",
"65 184 CURVE",
"50 178 LINE",
"87 71 OFFCURVE",
"188 -5 OFFCURVE",
"323 -5 CURVE SMOOTH"
);
}
);
userData = {
com.hugojourdan.ColorFlow = {
"0" = 0;
"1" = 0;
"10" = 0;
"11" = 0;
"2" = 0;
"3" = 0;
"4" = 0;
"5" = 0;
"6" = 0;
"7" = 0;
"8" = 0;
"9" = 0;
};
};
width = 672;
},
{
anchors = (
{
name = bottom;
position = "{357, 0}";
},
{
name = top;
position = "{357, 700}";
}
);
layerId = "7F56E5C1-F146-4434-90E4-DA1B70285074";
paths = (
{
closed = 1;
nodes = (
"546 -10 OFFCURVE",
"658 134 OFFCURVE",
"658 349 CURVE SMOOTH",
"658 566 OFFCURVE",
"543 710 OFFCURVE",
"358 710 CURVE SMOOTH",
"197 710 OFFCURVE",
"43 601 OFFCURVE",
"65 327 CURVE",
"625 327 LINE",
"625 412 LINE",
"101 412 LINE",
"119 383 LINE",
"125 561 OFFCURVE",
"235 622 OFFCURVE",
"359 622 CURVE SMOOTH",
"521 622 OFFCURVE",
"600 518 OFFCURVE",
"600 348 CURVE SMOOTH",
"600 174 OFFCURVE",
"517 78 OFFCURVE",
"348 78 CURVE SMOOTH",
"245 78 OFFCURVE",
"163 114 OFFCURVE",
"109 186 CURVE",
"74 160 LINE",
"124 65 OFFCURVE",
"209 -10 OFFCURVE",
"351 -10 CURVE SMOOTH"
);
}
);
userData = {
com.hugojourdan.ColorFlow = {
"0" = 0;
"1" = 0;
"10" = 0;
"11" = 0;
"2" = 0;
"3" = 0;
"4" = 0;
"5" = 0;
"6" = 0;
"7" = 0;
"8" = 0;
"9" = 0;
};
};
width = 713;
},
{
anchors = (
{
name = bottom;
position = "{336, 0}";
},
{
name = top;
position = "{336, 700}";
}
);
layerId = "3CA830F5-1E41-4F35-86DC-34C8110F5ED1";
paths = (
{
closed = 1;
nodes = (
"507 -10 OFFCURVE",
"622 131 OFFCURVE",
"622 356 CURVE SMOOTH",
"622 565 OFFCURVE",
"522 710 OFFCURVE",
"328 710 CURVE SMOOTH",
"130 710 OFFCURVE",
"4 560 OFFCURVE",
"35 305 CURVE",
"565 305 LINE",
"565 430 LINE",
"103 430 LINE",
"147 361 LINE",
"148 480 OFFCURVE",
"207 542 OFFCURVE",
"326 542 CURVE SMOOTH",
"450 542 OFFCURVE",
"509 475 OFFCURVE",
"509 354 CURVE SMOOTH",
"509 228 OFFCURVE",
"446 158 OFFCURVE",
"308 158 CURVE SMOOTH",
"233 158 OFFCURVE",
"159 179 OFFCURVE",
"105 235 CURVE",
"30 178 LINE",
"70 73 OFFCURVE",
"167 -10 OFFCURVE",
"315 -10 CURVE SMOOTH"
);
}
);
userData = {
com.hugojourdan.ColorFlow = {
"0" = 0;
"1" = 0;
"10" = 0;
"11" = 0;
"2" = 0;
"3" = 0;
"4" = 0;
"5" = 0;
"6" = 0;
"7" = 0;
"8" = 0;
"9" = 0;
};
};
width = 662;
}
);
leftKerningGroup = O;
rightKerningGroup = O;
rightMetricsKey = O;
unicode = 018F;
},
{
glyphname = F;
lastChange = "2025-01-06 03:34:07 +0000";
layers = (
{
background = {
components = (
{
name = _corner.serifBottomLeft;
transform = "{1, 0, 0, -1, 110, 700}";
},
{
name = _corner.serifBottomLeft;
transform = "{1, 0, 0, 1, 110, 0}";
},
{
name = _corner.serifBottomRight;
transform = "{1, 0, 0, 1, 126, 0}";
}
);
paths = (
{
closed = 1;
nodes = (
"126 0 LINE",
"126 700 LINE",
"110 700 LINE",
"110 0 LINE"
);
},
{
closed = 1;
nodes = (
"365 339 LINE",
"365 364 LINE",
"119 364 LINE",
"119 339 LINE"
);
},
{
closed = 1;
nodes = (
"379 249 LINE",
"379 435 LINE",
"365 435 LINE",
"348 360 LINE",
"347 347 LINE",
"364 249 LINE"
);
},
{
closed = 1;
nodes = (
"481 675 LINE",
"481 700 LINE",
"122 700 LINE",
"122 675 LINE"
);
},
{
closed = 1;
nodes = (
"496 557 LINE",
"481 700 LINE",
"445 684 LINE",
"479 554 LINE"
);
}
);
};
layerId = master01;
paths = (
{
closed = 1;
nodes = (
"192 0 LINE",
"192 16 LINE",
"126 44 LINE",
"126 684 LINE",
"120 675 LINE",
"440 675 LINE",
"402 693 LINE",
"456 554 LINE",
"473 557 LINE",
"448 700 LINE",
"44 700 LINE",
"44 684 LINE",
"110 656 LINE",
"110 44 LINE",
"44 16 LINE",
"44 0 LINE"
);
},
{
closed = 1;
nodes = (
"342 339 LINE",
"342 360 LINE",
"119 360 LINE",
"119 339 LINE"
);
},
{
closed = 1;
nodes = (
"356 247 LINE",
"356 433 LINE",
"342 433 LINE",
"315 358 LINE",
"314 345 LINE",
"341 247 LINE"
);
}
);
userData = {
com.hugojourdan.ColorFlow = {
"0" = 0;
"1" = 0;
"10" = 0;
"11" = 0;
"2" = 0;
"3" = 0;
"4" = 0;
"5" = 0;
"6" = 0;
"7" = 0;
"8" = 0;
"9" = 0;
};
};
vertWidth = 750;
width = 495;
},
{
layerId = "7F56E5C1-F146-4434-90E4-DA1B70285074";
paths = (
{
closed = 1;
nodes = (
"244 0 LINE",
"244 58 LINE",
"167 81 LINE",
"167 645 LINE",
"146 615 LINE",
"448 615 LINE",
"413 637 LINE",
"453 550 LINE",
"488 557 LINE",
"473 700 LINE",
"35 700 LINE",
"35 642 LINE",
"112 619 LINE",
"112 79 LINE",
"35 58 LINE",
"35 0 LINE"
);
},
{
closed = 1;
nodes = (
"339 303 LINE",
"339 383 LINE",
"141 383 LINE",
"141 303 LINE"
);
},
{
closed = 1;
nodes = (
"381 245 LINE",
"381 432 LINE",
"339 432 LINE",
"318 356 LINE",
"317 333 LINE",
"338 245 LINE"
);
}
);
userData = {
com.hugojourdan.ColorFlow = {
"0" = 0;
"1" = 0;
"10" = 0;
"11" = 0;
"2" = 0;
"3" = 0;
"4" = 0;
"5" = 0;
"6" = 0;
"7" = 0;
"8" = 0;
"9" = 0;
};
};
vertWidth = 750;
width = 508;
},
{
layerId = "3CA830F5-1E41-4F35-86DC-34C8110F5ED1";
paths = (
{
closed = 1;
nodes = (
"276 0 LINE",
"276 138 LINE",
"208 169 LINE",
"208 573 LINE",
"180 535 LINE",
"415 535 LINE",
"380 558 LINE",
"424 460 LINE",
"509 477 LINE",
"494 700 LINE",
"30 700 LINE",
"30 562 LINE",
"98 531 LINE",
"98 169 LINE",
"30 138 LINE",
"30 0 LINE"
);
},
{
closed = 1;
nodes = (
"350 277 LINE",
"350 408 LINE",
"137 408 LINE",
"137 277 LINE"
);
},
{
closed = 1;
nodes = (
"392 224 LINE",
"392 456 LINE",
"300 456 LINE",
"279 360 LINE",
"278 337 LINE",
"299 224 LINE"
);
}
);
userData = {
com.hugojourdan.ColorFlow = {
"0" = 0;
"1" = 0;
"10" = 0;
"11" = 0;
"2" = 0;
"3" = 0;
"4" = 0;
"5" = 0;
"6" = 0;
"7" = 0;
"8" = 0;
"9" = 0;
};
};
vertWidth = 750;
width = 534;
}
);
leftKerningGroup = H;
leftMetricsKey = H;
rightKerningGroup = F;
unicode = 0046;
userData = {
KernOnName = F;
};
},
{
glyphname = G;
lastChange = "2025-01-05 11:09:31 +0000";
layers = (
{
anchors = (
{
name = bottom;
position = "{374, 0}";
},
{
name = top;
position = "{374, 700}";
}
);
layerId = master01;
paths = (
{
closed = 1;
nodes = (
"488 -5 OFFCURVE",
"582 41 OFFCURVE",
"632 99 CURVE",
"622 110 LINE",
"569 58 OFFCURVE",
"482 23 OFFCURVE",
"374 23 CURVE SMOOTH",
"171 23 OFFCURVE",
"78 150 OFFCURVE",
"78 352 CURVE SMOOTH",
"78 558 OFFCURVE",
"174 677 OFFCURVE",
"373 677 CURVE SMOOTH",
"467 677 OFFCURVE",
"520 650 OFFCURVE",
"550 626 CURVE",
"528 651 LINE",
"563 504 LINE",
"581 506 LINE",
"572 644 LINE",
"532 679 OFFCURVE",
"461 705 OFFCURVE",
"374 705 CURVE SMOOTH",
"174 705 OFFCURVE",
"60 571 OFFCURVE",
"60 352 CURVE SMOOTH",
"60 132 OFFCURVE",
"174 -5 OFFCURVE",
"374 -5 CURVE SMOOTH"
);
},
{
closed = 1;
nodes = (
"576 63 LINE",
"576 345 LINE",
"573 316 LINE",
"640 341 LINE",
"640 354 LINE",
"353 354 LINE",
"353 340 LINE",
"564 316 LINE",
"560 345 LINE",
"560 54 LINE"
);
}
);
userData = {
com.hugojourdan.ColorFlow = {
"0" = 0;
"1" = 0;
"10" = 0;
"11" = 0;
"2" = 0;
"3" = 0;
"4" = 0;
"5" = 0;
"6" = 0;
"7" = 0;
"8" = 0;
"9" = 0;
};
};
vertWidth = 750;
width = 687;
},
{
anchors = (
{
name = bottom;
position = "{378, 0}";
},
{
name = top;
position = "{376, 700}";
}
);
background = {
paths = (
{
closed = 1;
nodes = (
"492 -10 OFFCURVE",
"585 35 OFFCURVE",
"635 94 CURVE",
"622 118 LINE",
"570 95 OFFCURVE",
"484 80 OFFCURVE",
"403 80 CURVE SMOOTH",
"196 80 OFFCURVE",
"113 178 OFFCURVE",
"113 353 CURVE SMOOTH",
"113 523 OFFCURVE",
"191 622 OFFCURVE",
"367 622 CURVE SMOOTH",
"442 622 OFFCURVE",
"507 604 OFFCURVE",
"550 568 CURVE",
"525 594 LINE",
"573 479 LINE",
"621 486 LINE",
"607 624 LINE",
"561 673 OFFCURVE",
"479 710 OFFCURVE",
"376 710 CURVE SMOOTH",
"173 710 OFFCURVE",
"55 566 OFFCURVE",
"55 350 CURVE SMOOTH",
"55 134 OFFCURVE",
"173 -10 OFFCURVE",
"378 -10 CURVE SMOOTH"
);
},
{
closed = 1;
nodes = (
"581 73 LINE",
"581 302 LINE",
"557 265 LINE",
"645 296 LINE",
"645 354 LINE",
"358 354 LINE",
"358 287 LINE",
"534 266 LINE",
"526 296 LINE",
"526 73 LINE"
);
}
);
};
layerId = "7F56E5C1-F146-4434-90E4-DA1B70285074";
paths = (
{
closed = 1;
nodes = (
"492 -10 OFFCURVE",
"585 35 OFFCURVE",
"635 94 CURVE",
"622 118 LINE",
"570 95 OFFCURVE",
"484 80 OFFCURVE",
"403 80 CURVE SMOOTH",
"196 80 OFFCURVE",
"113 178 OFFCURVE",
"113 353 CURVE SMOOTH",
"113 523 OFFCURVE",
"192 622 OFFCURVE",
"369 622 CURVE SMOOTH",
"431 622 OFFCURVE",
"491 610 OFFCURVE",
"531 586 CURVE",
"501 626 LINE",
"550 499 LINE",
"591 506 LINE",
"577 644 LINE",
"537 682 OFFCURVE",
"466 710 OFFCURVE",
"376 710 CURVE SMOOTH",
"173 710 OFFCURVE",
"55 566 OFFCURVE",
"55 350 CURVE SMOOTH",
"55 134 OFFCURVE",
"173 -10 OFFCURVE",
"378 -10 CURVE SMOOTH"
);
},
{
closed = 1;
nodes = (
"581 73 LINE",
"581 302 LINE",
"557 265 LINE",
"645 296 LINE",
"645 354 LINE",
"358 354 LINE",
"358 296 LINE",
"534 266 LINE",
"526 296 LINE",
"526 73 LINE"
);
}
);
userData = {
com.hugojourdan.ColorFlow = {
"0" = 0;
"1" = 0;
"10" = 0;
"11" = 0;
"2" = 0;
"3" = 0;
"4" = 0;
"5" = 0;
"6" = 0;
"7" = 0;
"8" = 0;
"9" = 0;
};
};
vertWidth = 750;
width = 695;
},
{
anchors = (
{
name = bottom;
position = "{373, 0}";
},
{
name = top;
position = "{373, 700}";
}
);
background = {
paths = (
{
closed = 1;
nodes = (
"496 -10 OFFCURVE",
"596 37 OFFCURVE",
"647 108 CURVE",
"611 181 LINE",
"564 162 OFFCURVE",
"469 148 OFFCURVE",
"395 148 CURVE SMOOTH",
"224 148 OFFCURVE",
"153 216 OFFCURVE",
"153 345 CURVE SMOOTH",
"153 466 OFFCURVE",
"215 542 OFFCURVE",
"369 542 CURVE SMOOTH",
"414 542 OFFCURVE",
"461 536 OFFCURVE",
"500 523 CURVE",
"482 538 LINE",
"533 419 LINE",
"621 426 LINE",
"602 644 LINE",
"554 682 OFFCURVE",
"468 710 OFFCURVE",
"373 710 CURVE SMOOTH",
"158 710 OFFCURVE",
"40 559 OFFCURVE",
"40 343 CURVE SMOOTH",
"40 127 OFFCURVE",
"158 -10 OFFCURVE",
"373 -10 CURVE SMOOTH"
);
},
{
closed = 1;
nodes = (
"576 130 LINE",
"576 262 LINE",
"552 225 LINE",
"640 256 LINE",
"640 368 LINE",
"353 368 LINE",
"353 247 LINE",
"529 226 LINE",
"466 256 LINE",
"466 130 LINE"
);
}
);
};
layerId = "3CA830F5-1E41-4F35-86DC-34C8110F5ED1";
paths = (
{
closed = 1;
nodes = (
"496 -10 OFFCURVE",
"586 37 OFFCURVE",
"647 108 CURVE",
"611 181 LINE",
"562 162 OFFCURVE",
"461 148 OFFCURVE",
"387 148 CURVE SMOOTH",
"226 148 OFFCURVE",
"153 215 OFFCURVE",
"153 346 CURVE SMOOTH",
"153 466 OFFCURVE",
"215 542 OFFCURVE",
"369 542 CURVE SMOOTH",
"407 542 OFFCURVE",
"447 538 OFFCURVE",
"480 529 CURVE",
"462 544 LINE",
"512 445 LINE",
"600 462 LINE",
"582 650 LINE",
"538 685 OFFCURVE",
"460 710 OFFCURVE",
"373 710 CURVE SMOOTH",
"158 710 OFFCURVE",
"40 559 OFFCURVE",
"40 343 CURVE SMOOTH",
"40 127 OFFCURVE",
"158 -10 OFFCURVE",
"373 -10 CURVE SMOOTH"
);
},
{
closed = 1;
nodes = (
"576 130 LINE",
"576 262 LINE",
"552 225 LINE",
"640 256 LINE",
"640 368 LINE",
"353 368 LINE",
"353 256 LINE",
"529 226 LINE",
"466 256 LINE",
"466 130 LINE"
);
}
);
userData = {
com.hugojourdan.ColorFlow = {
"0" = 0;
"1" = 0;
"10" = 0;
"11" = 0;
"2" = 0;
"3" = 0;
"4" = 0;
"5" = 0;
"6" = 0;
"7" = 0;
"8" = 0;
"9" = 0;
};
};
vertWidth = 750;
width = 680;
}
);
leftKerningGroup = O;
leftMetricsKey = O;
rightKerningGroup = G;
unicode = 0047;
userData = {
KernOnName = G;
};
},
{
glyphname = H;
lastChange = "2025-01-06 06:08:21 +0000";
layers = (
{
layerId = master01;
paths = (
{
closed = 1;
nodes = (
"630 0 LINE",
"630 16 LINE",
"564 44 LINE",
"564 656 LINE",
"630 684 LINE",
"630 700 LINE",
"482 700 LINE",
"482 684 LINE",
"548 656 LINE",
"548 44 LINE",
"482 16 LINE",
"482 0 LINE"
);
},
{
closed = 1;
nodes = (
"192 0 LINE",
"192 16 LINE",
"126 44 LINE",
"126 656 LINE",
"192 684 LINE",
"192 700 LINE",
"44 700 LINE",
"44 684 LINE",
"110 656 LINE",
"110 44 LINE",
"44 16 LINE",
"44 0 LINE"
);
},
{
closed = 1;
nodes = (
"557 345 LINE",
"557 370 LINE",
"119 370 LINE",
"119 345 LINE"
);
}
);
userData = {
com.hugojourdan.ColorFlow = {
"0" = 0;
"1" = 0;
"10" = 0;
"11" = 0;
"2" = 0;
"3" = 0;
"4" = 0;
"5" = 0;
"6" = 0;
"7" = 0;
"8" = 0;
"9" = 0;
};
com.typemytype.robofont.guides = (
{
isGlobal = 0;
magnetic = 5;
x = 0;
y = 280;
}
);
};
vertWidth = 750;
width = 674;
},
{
layerId = "7F56E5C1-F146-4434-90E4-DA1B70285074";
paths = (
{
closed = 1;
nodes = (
"678 0 LINE",
"678 58 LINE",
"601 81 LINE",
"601 621 LINE",
"678 642 LINE",
"678 700 LINE",
"469 700 LINE",
"469 642 LINE",
"546 619 LINE",
"546 79 LINE",
"469 58 LINE",
"469 0 LINE"
);
},
{
closed = 1;
nodes = (
"244 0 LINE",
"244 58 LINE",
"167 81 LINE",
"167 621 LINE",
"244 642 LINE",
"244 700 LINE",
"35 700 LINE",
"35 642 LINE",
"112 619 LINE",
"112 79 LINE",
"35 58 LINE",
"35 0 LINE"
);
},
{
closed = 1;
nodes = (
"571 307 LINE",
"571 392 LINE",
"143 392 LINE",
"143 307 LINE"
);
}
);
userData = {
com.hugojourdan.ColorFlow = {
"0" = 0;
"1" = 0;
"10" = 0;
"11" = 0;
"2" = 0;
"3" = 0;
"4" = 0;
"5" = 0;
"6" = 0;
"7" = 0;
"8" = 0;
"9" = 0;
};
com.typemytype.robofont.guides = (
{
isGlobal = 0;
magnetic = 5;
x = 0;
y = 657;
}
);
};
width = 713;
},
{
layerId = "3CA830F5-1E41-4F35-86DC-34C8110F5ED1";
paths = (
{
closed = 1;
nodes = (
"685 0 LINE",
"685 138 LINE",
"617 169 LINE",
"617 531 LINE",
"685 562 LINE",
"685 700 LINE",
"439 700 LINE",
"439 562 LINE",
"507 531 LINE",
"507 169 LINE",
"439 138 LINE",
"439 0 LINE"
);
},
{
closed = 1;
nodes = (
"276 0 LINE",
"276 138 LINE",
"208 169 LINE",
"208 531 LINE",
"276 562 LINE",
"276 700 LINE",
"30 700 LINE",
"30 562 LINE",
"98 531 LINE",
"98 169 LINE",
"30 138 LINE",
"30 0 LINE"
);
},
{
closed = 1;
nodes = (
"542 267 LINE",
"542 432 LINE",
"139 432 LINE",
"139 267 LINE"
);
}
);
userData = {
com.hugojourdan.ColorFlow = {
"0" = 0;
"1" = 0;
"10" = 0;
"11" = 0;
"2" = 0;
"3" = 0;
"4" = 0;
"5" = 0;
"6" = 0;
"7" = 0;
"8" = 0;
"9" = 0;
};
com.typemytype.robofont.guides = (
{
isGlobal = 0;
magnetic = 5;
x = 0;
y = 657;
}
);
};
width = 715;
},
{
associatedMasterId = "7F56E5C1-F146-4434-90E4-DA1B70285074";
layerId = "B49519BE-4AE6-40FF-B22D-9542B16A4142";
name = "Apr 16 19, 21:45";
paths = (
{
closed = 1;
nodes = (
"544 0 LINE",
"693 700 LINE",
"638 700 LINE",
"489 0 LINE"
);
},
{
closed = 1;
nodes = (
"110 0 LINE",
"259 700 LINE",
"204 700 LINE",
"55 0 LINE"
);
},
{
closed = 1;
nodes = (
"589 307 LINE",
"607 392 LINE",
"179 392 LINE",
"161 307 LINE"
);
},
{
closed = 1;
nodes = (
"85 0 LINE",
"72 79 LINE",
"-10 58 LINE",
"-10 0 LINE"
);
},
{
closed = 1;
nodes = (
"114 642 LINE",
"187 621 LINE",
"234 700 LINE",
"114 700 LINE"
);
},
{
closed = 1;
nodes = (
"199 0 LINE",
"199 58 LINE",
"127 81 LINE",
"80 0 LINE"
);
},
{
closed = 1;
nodes = (
"242 619 LINE",
"323 642 LINE",
"323 700 LINE",
"229 700 LINE"
);
},
{
closed = 1;
nodes = (
"519 0 LINE",
"506 79 LINE",
"424 58 LINE",
"424 0 LINE"
);
},
{
closed = 1;
nodes = (
"633 0 LINE",
"633 58 LINE",
"561 81 LINE",
"514 0 LINE"
);
},
{
closed = 1;
nodes = (
"676 619 LINE",
"757 642 LINE",
"757 700 LINE",
"663 700 LINE"
);
},
{
closed = 1;
nodes = (
"548 642 LINE",
"621 621 LINE",
"668 700 LINE",
"548 700 LINE"
);
}
);
userData = {
com.typemytype.robofont.guides = (
{
isGlobal = 0;
magnetic = 5;
x = 0;
y = 657;
}
);
};
width = 742;
}
);
leftKerningGroup = H;
rightKerningGroup = H;
rightMetricsKey = "=|";
unicode = 0048;
userData = {
KernOnName = H;
};
},
{
glyphname = Hbar;
lastChange = "2025-01-05 09:40:56 +0000";
layers = (
{
layerId = master01;
paths = (
{
closed = 1;
nodes = (
"635 0 LINE",
"635 16 LINE",
"569 44 LINE",
"569 656 LINE",
"635 684 LINE",
"635 700 LINE",
"487 700 LINE",
"487 684 LINE",
"553 656 LINE",
"553 44 LINE",
"487 16 LINE",
"487 0 LINE"
);
},
{
closed = 1;
nodes = (
"197 0 LINE",
"197 16 LINE",
"131 44 LINE",
"131 656 LINE",
"197 684 LINE",
"197 700 LINE",
"49 700 LINE",
"49 684 LINE",
"115 656 LINE",
"115 44 LINE",
"49 16 LINE",
"49 0 LINE"
);
},
{
closed = 1;
nodes = (
"562 345 LINE",
"562 370 LINE",
"124 370 LINE",
"124 345 LINE"
);
},
{
closed = 1;
nodes = (
"632 534 LINE",
"636 539 LINE",
"628 559 LINE",
"48 559 LINE",
"44 555 LINE",
"53 534 LINE"
);
}
);
userData = {
com.hugojourdan.ColorFlow = {
"0" = 0;
"1" = 0;
"10" = 0;
"11" = 0;
"2" = 0;
"3" = 0;
"4" = 0;
"5" = 0;
"6" = 0;
"7" = 0;
"8" = 0;
"9" = 0;
};
};
width = 680;
},
{
layerId = "7F56E5C1-F146-4434-90E4-DA1B70285074";
paths = (
{
closed = 1;
nodes = (
"682 0 LINE",
"682 58 LINE",
"605 81 LINE",
"605 621 LINE",
"682 642 LINE",
"682 700 LINE",
"473 700 LINE",
"473 642 LINE",
"550 619 LINE",
"550 79 LINE",
"473 58 LINE",
"473 0 LINE"
);
},
{
closed = 1;
nodes = (
"248 0 LINE",
"248 58 LINE",
"171 81 LINE",
"171 621 LINE",
"248 642 LINE",
"248 700 LINE",
"39 700 LINE",
"39 642 LINE",
"116 619 LINE",
"116 79 LINE",
"39 58 LINE",
"39 0 LINE"
);
},
{
closed = 1;
nodes = (
"575 307 LINE",
"575 392 LINE",
"147 392 LINE",
"147 307 LINE"
);
},
{
closed = 1;
nodes = (
"653 493 LINE",
"677 538 LINE",
"669 549 LINE",
"59 549 LINE",
"35 505 LINE",
"44 493 LINE"
);
}
);
userData = {
com.hugojourdan.ColorFlow = {
"0" = 0;
"1" = 0;
"10" = 0;
"11" = 0;
"2" = 0;
"3" = 0;
"4" = 0;
"5" = 0;
"6" = 0;
"7" = 0;
"8" = 0;
"9" = 0;
};
};
width = 717;
},
{
layerId = "3CA830F5-1E41-4F35-86DC-34C8110F5ED1";
paths = (
{
closed = 1;
nodes = (
"700 0 LINE",
"700 138 LINE",
"632 169 LINE",
"632 531 LINE",
"700 562 LINE",
"700 700 LINE",
"454 700 LINE",
"454 562 LINE",
"522 531 LINE",
"522 169 LINE",
"454 138 LINE",
"454 0 LINE"
);
},
{
closed = 1;
nodes = (
"291 0 LINE",
"291 138 LINE",
"223 169 LINE",
"223 531 LINE",
"291 562 LINE",
"291 700 LINE",
"45 700 LINE",
"45 562 LINE",
"113 531 LINE",
"113 169 LINE",
"45 138 LINE",
"45 0 LINE"
);
},
{
closed = 1;
nodes = (
"557 267 LINE",
"557 392 LINE",
"154 392 LINE",
"154 267 LINE"
);
},
{
closed = 1;
nodes = (
"688 436 LINE",
"712 481 LINE",
"704 492 LINE",
"54 492 LINE",
"30 448 LINE",
"39 436 LINE"
);
}
);
userData = {
com.hugojourdan.ColorFlow = {
"0" = 0;
"1" = 0;
"10" = 0;
"11" = 0;
"2" = 0;
"3" = 0;
"4" = 0;
"5" = 0;
"6" = 0;
"7" = 0;
"8" = 0;
"9" = 0;
};
};
width = 742;
}
);
leftKerningGroup = H;
leftMetricsKey = H;
rightKerningGroup = H;
rightMetricsKey = H;
unicode = 0126;
},
{
glyphname = I;
lastChange = "2025-01-05 09:40:56 +0000";
layers = (
{
anchors = (
{
name = bottom;
position = "{118, 0}";
},
{
name = ogonek;
position = "{187, 0}";
},
{
name = top;
position = "{118, 700}";
},
{
name = topleft;
position = "{24, 700}";
}
);
layerId = master01;
paths = (
{
closed = 1;
nodes = (
"192 0 LINE",
"192 16 LINE",
"126 44 LINE",
"126 656 LINE",
"192 684 LINE",
"192 700 LINE",
"44 700 LINE",
"44 684 LINE",
"110 656 LINE",
"110 44 LINE",
"44 16 LINE",
"44 0 LINE"
);
}
);
userData = {
com.hugojourdan.ColorFlow = {
"0" = 0;
"1" = 0;
"10" = 0;
"11" = 0;
"2" = 0;
"3" = 0;
"4" = 0;
"5" = 0;
"6" = 0;
"7" = 0;
"8" = 0;
"9" = 0;
};
};
vertWidth = 750;
width = 236;
},
{
anchors = (
{
name = bottom;
position = "{140, 0}";
},
{
name = ogonek;
position = "{212, 0}";
},
{
name = top;
position = "{140, 700}";
},
{
name = topleft;
position = "{20, 700}";
}
);
layerId = "7F56E5C1-F146-4434-90E4-DA1B70285074";
paths = (
{
closed = 1;
nodes = (
"244 0 LINE",
"244 58 LINE",
"167 81 LINE",
"167 621 LINE",
"244 642 LINE",
"244 700 LINE",
"35 700 LINE",
"35 642 LINE",
"112 619 LINE",
"112 79 LINE",
"35 58 LINE",
"35 0 LINE"
);
}
);
userData = {
com.hugojourdan.ColorFlow = {
"0" = 0;
"1" = 0;
"10" = 0;
"11" = 0;
"2" = 0;
"3" = 0;
"4" = 0;
"5" = 0;
"6" = 0;
"7" = 0;
"8" = 0;
"9" = 0;
};
};
width = 279;
},
{
anchors = (
{
name = bottom;
position = "{153, 0}";
},
{
name = ogonek;
position = "{248, 0}";
},
{
name = top;
position = "{153, 700}";
},
{
name = topleft;
position = "{20, 700}";
}
);
layerId = "3CA830F5-1E41-4F35-86DC-34C8110F5ED1";
paths = (
{
closed = 1;
nodes = (
"276 0 LINE",
"276 138 LINE",
"208 169 LINE",
"208 531 LINE",
"276 562 LINE",
"276 700 LINE",
"30 700 LINE",
"30 562 LINE",
"98 531 LINE",
"98 169 LINE",
"30 138 LINE",
"30 0 LINE"
);
}
);
userData = {
com.hugojourdan.ColorFlow = {
"0" = 0;
"1" = 0;
"10" = 0;
"11" = 0;
"2" = 0;
"3" = 0;
"4" = 0;
"5" = 0;
"6" = 0;
"7" = 0;
"8" = 0;
"9" = 0;
};
};
width = 306;
}
);
leftKerningGroup = H;
leftMetricsKey = H;
rightKerningGroup = H;
rightMetricsKey = H;
unicode = 0049;
},
{
glyphname = J;
lastChange = "2025-01-05 11:04:40 +0000";
layers = (
{
anchors = (
{
name = bottom;
position = "{131, 0}";
},
{
name = top;
position = "{157, 700}";
}
);
background = {
paths = (
{
closed = 1;
nodes = (
"138 20 OFFCURVE",
"165 66 OFFCURVE",
"165 200 CURVE SMOOTH",
"165 666 LINE",
"231 684 LINE",
"231 700 LINE",
"83 700 LINE",
"83 684 LINE",
"149 666 LINE",
"149 201 LINE SMOOTH",
"149 61 OFFCURVE",
"119 38 OFFCURVE",
"15 23 CURVE",
"32 -5 LINE"
);
}
);
};
layerId = master01;
paths = (
{
closed = 1;
nodes = (
"138 12 OFFCURVE",
"165 66 OFFCURVE",
"165 200 CURVE SMOOTH",
"165 656 LINE",
"231 684 LINE",
"231 700 LINE",
"83 700 LINE",
"83 684 LINE",
"149 656 LINE",
"149 201 LINE SMOOTH",
"149 61 OFFCURVE",
"119 38 OFFCURVE",
"15 23 CURVE",
"13 11 LINE",
"32 -5 LINE"
);
}
);
userData = {
com.hugojourdan.ColorFlow = {
"0" = 0;
"1" = 0;
"10" = 0;
"11" = 0;
"2" = 0;
"3" = 0;
"4" = 0;
"5" = 0;
"6" = 0;
"7" = 0;
"8" = 0;
"9" = 0;
};
};
vertWidth = 750;
width = 261;
},
{
anchors = (
{
name = bottom;
position = "{148, 0}";
},
{
name = top;
position = "{167, 700}";
}
);
background = {
paths = (
{
closed = 1;
nodes = (
"163 10 OFFCURVE",
"194 112 OFFCURVE",
"194 225 CURVE SMOOTH",
"194 621 LINE",
"271 642 LINE",
"271 700 LINE",
"62 700 LINE",
"62 642 LINE",
"139 619 LINE",
"139 216 LINE SMOOTH",
"139 132 OFFCURVE",
"108 81 OFFCURVE",
"5 78 CURVE",
"46 -10 LINE"
);
}
);
};
layerId = "7F56E5C1-F146-4434-90E4-DA1B70285074";
paths = (
{
closed = 1;
nodes = (
"163 10 OFFCURVE",
"194 112 OFFCURVE",
"194 225 CURVE SMOOTH",
"194 621 LINE",
"271 642 LINE",
"271 700 LINE",
"62 700 LINE",
"62 642 LINE",
"139 619 LINE",
"139 216 LINE SMOOTH",
"139 132 OFFCURVE",
"108 81 OFFCURVE",
"5 78 CURVE",
"-3 34 LINE",
"46 -10 LINE"
);
}
);
userData = {
com.hugojourdan.ColorFlow = {
"0" = 0;
"1" = 0;
"10" = 0;
"11" = 0;
"2" = 0;
"3" = 0;
"4" = 0;
"5" = 0;
"6" = 0;
"7" = 0;
"8" = 0;
"9" = 0;
};
};
vertWidth = 750;
width = 296;
},
{
anchors = (
{
name = bottom;
position = "{189, 0}";
},
{
name = top;
position = "{224, 700}";
}
);
background = {
paths = (
{
closed = 1;
nodes = (
"240 15 OFFCURVE",
"279 125 OFFCURVE",
"279 243 CURVE SMOOTH",
"279 531 LINE",
"347 562 LINE",
"347 700 LINE",
"101 700 LINE",
"101 562 LINE",
"169 531 LINE",
"169 274 LINE SMOOTH",
"169 196 OFFCURVE",
"137 160 OFFCURVE",
"25 156 CURVE",
"86 -12 LINE"
);
}
);
};
layerId = "3CA830F5-1E41-4F35-86DC-34C8110F5ED1";
paths = (
{
closed = 1;
nodes = (
"240 15 OFFCURVE",
"279 125 OFFCURVE",
"279 243 CURVE SMOOTH",
"279 531 LINE",
"347 562 LINE",
"347 700 LINE",
"101 700 LINE",
"101 562 LINE",
"169 531 LINE",
"169 274 LINE SMOOTH",
"169 196 OFFCURVE",
"137 160 OFFCURVE",
"25 156 CURVE",
"15 63 LINE",
"86 -12 LINE"
);
}
);
userData = {
com.hugojourdan.ColorFlow = {
"0" = 0;
"1" = 0;
"10" = 0;
"11" = 0;
"2" = 0;
"3" = 0;
"4" = 0;
"5" = 0;
"6" = 0;
"7" = 0;
"8" = 0;
"9" = 0;
};
};
vertWidth = 750;
width = 367;
}
);
leftKerningGroup = J;
rightKerningGroup = J;
rightMetricsKey = U;
unicode = 004A;
userData = {
KernOnName = J;
};
},
{
glyphname = K;
lastChange = "2025-01-06 03:37:48 +0000";
layers = (
{
anchors = (
{
name = bottom;
position = "{303, 0}";
},
{
name = top;
position = "{303, 700}";
}
);
background = {
hints = (
{
place = "{122, 0}";
type = Corner;
name = _corner.serifBottomRight;
options = 1;
},
{
place = "{122, 0}";
type = Corner;
name = _corner.serifBottomLeft;
},
{
place = "{106, 0}";
type = Corner;
name = _corner.serifBottomRight;
options = 1;
},
{
place = "{106, 0}";
type = Corner;
name = _corner.serifBottomLeft;
},
{
place = "{122, 9223372036854775808}";
type = Corner;
name = _corner.serifBottomRight;
options = 1;
},
{
place = "{122, 9223372036854775808}";
type = Corner;
name = _corner.serifBottomLeft;
},
{
place = "{106, 9223372036854775808}";
type = Corner;
name = _corner.serifBottomRight;
options = 1;
},
{
place = "{106, 9223372036854775808}";
type = Corner;
name = _corner.serifBottomLeft;
}
);
paths = (
{
closed = 1;
nodes = (
"569 0 LINE",
"569 16 LINE",
"509 34 LINE",
"261 352 LINE",
"261 344 LINE",
"493 674 LINE",
"473 654 LINE",
"544 684 LINE",
"544 700 LINE",
"401 700 LINE",
"401 684 LINE",
"465 657 LINE",
"471 671 LINE",
"242 348 LINE",
"488 34 LINE",
"422 16 LINE",
"422 0 LINE"
);
},
{
closed = 1;
nodes = (
"192 0 LINE",
"192 16 LINE",
"126 44 LINE",
"126 656 LINE",
"192 684 LINE",
"192 700 LINE",
"44 700 LINE",
"44 684 LINE",
"110 656 LINE",
"110 44 LINE",
"44 16 LINE",
"44 0 LINE"
);
},
{
closed = 1;
nodes = (
"257 335 LINE",
"257 360 LINE {name = \"🧨\";}",
"119 360 LINE",
"119 335 LINE"
);
}
);
};
layerId = master01;
paths = (
{
closed = 1;
nodes = (
"569 0 LINE",
"569 16 LINE",
"501 44 LINE",
"261 352 LINE",
"261 344 LINE",
"493 674 LINE",
"473 654 LINE",
"544 684 LINE",
"544 700 LINE",
"401 700 LINE",
"401 684 LINE",
"465 657 LINE",
"471 671 LINE",
"242 348 LINE",
"480 44 LINE",
"422 16 LINE",
"422 0 LINE"
);
},
{
closed = 1;
nodes = (
"192 0 LINE",
"192 16 LINE",
"126 44 LINE",
"126 656 LINE",
"192 684 LINE",
"192 700 LINE",
"44 700 LINE",
"44 684 LINE",
"110 656 LINE",
"110 44 LINE",
"44 16 LINE",
"44 0 LINE"
);
},
{
closed = 1;
nodes = (
"257 335 LINE",
"257 360 LINE {name = \"🧨\";}",
"119 360 LINE",
"119 335 LINE"
);
}
);
userData = {
com.hugojourdan.ColorFlow = {
"0" = 0;
"1" = 0;
"10" = 0;
"11" = 0;
"2" = 0;
"3" = 0;
"4" = 0;
"5" = 0;
"6" = 0;
"7" = 0;
"8" = 0;
"9" = 0;
};
};
vertWidth = 750;
width = 595;
},
{
anchors = (
{
name = bottom;
position = "{314, 0}";
},
{
name = top;
position = "{324, 700}";
}
);
background = {
hints = (
{
place = "{167, 0}";
type = Corner;
name = _corner.serifBottomRight;
options = 1;
},
{
place = "{167, 0}";
type = Corner;
name = _corner.serifBottomLeft;
},
{
place = "{112, 0}";
type = Corner;
name = _corner.serifBottomRight;
options = 1;
},
{
place = "{112, 0}";
type = Corner;
name = _corner.serifBottomLeft;
},
{
origin = "{4, 0}";
type = Corner;
name = _corner.serifBottomRight;
options = 1;
},
{
origin = "{4, 1}";
type = Corner;
name = _corner.serifBottomLeft;
},
{
origin = "{4, 2}";
type = Corner;
name = _corner.serifBottomRight;
options = 1;
},
{
origin = "{4, 3}";
type = Corner;
name = _corner.serifBottomLeft;
}
);
paths = (
{
closed = 1;
nodes = (
"602 72 LINE",
"428 101 OFFCURVE",
"440 345 OFFCURVE",
"268 361 CURVE",
"247 310 LINE",
"413 310 OFFCURVE",
"382 18 OFFCURVE",
"565 -10 CURVE"
);
},
{
closed = 1;
nodes = (
"151 310 LINE",
"268 310 LINE",
"279 390 LINE",
"151 390 LINE"
);
},
{
closed = 1;
nodes = (
"302 338 LINE",
"545 697 LINE",
"477 697 LINE",
"249 351 LINE"
);
},
{
closed = 1;
nodes = (
"487 642 LINE",
"479 612 LINE",
"565 642 LINE",
"565 700 LINE",
"378 700 LINE",
"378 642 LINE",
"456 611 LINE",
"473 642 LINE"
);
},
{
closed = 1;
nodes = (
"167 0 LINE",
"167 700 LINE",
"112 700 LINE",
"112 0 LINE"
);
}
);
};
layerId = "7F56E5C1-F146-4434-90E4-DA1B70285074";
paths = (
{
closed = 1;
nodes = (
"604 0 LINE",
"604 58 LINE",
"523 81 LINE",
"308 361 LINE",
"312 350 LINE",
"524 633 LINE",
"503 618 LINE",
"595 642 LINE",
"595 700 LINE",
"393 700 LINE",
"393 642 LINE",
"465 615 LINE",
"461 633 LINE",
"248 350 LINE",
"456 79 LINE",
"395 58 LINE",
"395 0 LINE"
);
},
{
closed = 1;
nodes = (
"244 0 LINE",
"244 58 LINE",
"167 81 LINE",
"167 621 LINE",
"244 642 LINE",
"244 700 LINE",
"35 700 LINE",
"35 642 LINE",
"112 619 LINE",
"112 79 LINE",
"35 58 LINE",
"35 0 LINE"
);
},
{
closed = 1;
nodes = (
"294 310 LINE",
"294 390 LINE",
"151 390 LINE",
"151 310 LINE"
);
}
);
userData = {
com.hugojourdan.ColorFlow = {
"0" = 0;
"1" = 0;
"10" = 0;
"11" = 0;
"2" = 0;
"3" = 0;
"4" = 0;
"5" = 0;
"6" = 0;
"7" = 0;
"8" = 0;
"9" = 0;
};
};
vertWidth = 750;
width = 647;
},
{
anchors = (
{
name = bottom;
position = "{337, 0}";
},
{
name = top;
position = "{337, 700}";
}
);
background = {
hints = (
{
origin = "{4, 0}";
type = Corner;
name = _corner.serifBottomRight;
options = 1;
},
{
origin = "{4, 1}";
type = Corner;
name = _corner.serifBottomLeft;
},
{
origin = "{4, 2}";
type = Corner;
name = _corner.serifBottomRight;
options = 1;
},
{
origin = "{4, 3}";
type = Corner;
name = _corner.serifBottomLeft;
}
);
paths = (
{
closed = 1;
nodes = (
"633 155 LINE",
"426 183 OFFCURVE",
"453 381 OFFCURVE",
"254 381 CURVE",
"233 275 LINE",
"383 275 OFFCURVE",
"344 5 OFFCURVE",
"566 -10 CURVE"
);
},
{
closed = 1;
nodes = (
"137 275 LINE",
"254 275 LINE",
"295 410 LINE",
"137 410 LINE"
);
},
{
closed = 1;
nodes = (
"335 328 LINE",
"540 592 LINE",
"463 654 LINE",
"236 351 LINE"
);
},
{
closed = 1;
nodes = (
"461 562 LINE",
"453 532 LINE",
"576 562 LINE",
"576 700 LINE",
"324 700 LINE",
"324 562 LINE",
"412 531 LINE",
"429 562 LINE"
);
},
{
closed = 1;
nodes = (
"208 0 LINE",
"208 700 LINE",
"98 700 LINE",
"98 0 LINE"
);
}
);
};
layerId = "3CA830F5-1E41-4F35-86DC-34C8110F5ED1";
paths = (
{
closed = 1;
nodes = (
"643 0 LINE",
"643 138 LINE",
"553 169 LINE",
"361 384 LINE",
"361 354 LINE",
"568 563 LINE",
"494 515 LINE",
"615 562 LINE",
"615 700 LINE",
"351 700 LINE",
"351 562 LINE",
"452 511 LINE",
"444 563 LINE",
"245 361 LINE",
"418 169 LINE",
"350 138 LINE",
"350 0 LINE"
);
},
{
closed = 1;
nodes = (
"276 0 LINE",
"276 138 LINE",
"208 169 LINE",
"208 531 LINE",
"276 562 LINE",
"276 700 LINE",
"30 700 LINE",
"30 562 LINE",
"98 531 LINE",
"98 169 LINE",
"30 138 LINE",
"30 0 LINE"
);
},
{
closed = 1;
nodes = (
"350 275 LINE",
"350 410 LINE",
"137 410 LINE",
"137 275 LINE"
);
}
);
userData = {
com.hugojourdan.ColorFlow = {
"0" = 0;
"1" = 0;
"10" = 0;
"11" = 0;
"2" = 0;
"3" = 0;
"4" = 0;
"5" = 0;
"6" = 0;
"7" = 0;
"8" = 0;
"9" = 0;
};
};
vertWidth = 750;
width = 663;
}
);
leftKerningGroup = H;
leftMetricsKey = H;
rightKerningGroup = K;
unicode = 004B;
userData = {
KernOnName = K;
};
},
{
glyphname = L;
lastChange = "2025-01-06 05:05:15 +0000";
layers = (
{
anchors = (
{
name = bottom;
position = "{263, 0}";
},
{
name = center;
position = "{133, 350}";
},
{
name = top;
position = "{118, 700}";
},
{
name = topright;
position = "{207, 445}";
}
);
layerId = master01;
paths = (
{
closed = 1;
nodes = (
"461 0 LINE",
"486 163 LINE",
"469 165 LINE",
"419 9 LINE",
"455 25 LINE",
"119 25 LINE",
"126 19 LINE",
"126 656 LINE",
"192 684 LINE",
"192 700 LINE",
"44 700 LINE",
"44 684 LINE",
"110 656 LINE",
"110 44 LINE",
"44 16 LINE",
"44 0 LINE"
);
}
);
userData = {
com.hugojourdan.ColorFlow = {
"0" = 0;
"1" = 0;
"10" = 0;
"11" = 0;
"2" = 0;
"3" = 0;
"4" = 0;
"5" = 0;
"6" = 0;
"7" = 0;
"8" = 0;
"9" = 0;
};
};
width = 521;
},
{
anchors = (
{
name = bottom;
position = "{264, 0}";
},
{
name = center;
position = "{154, 350}";
},
{
name = top;
position = "{140, 700}";
},
{
name = topright;
position = "{253, 445}";
}
);
layerId = "7F56E5C1-F146-4434-90E4-DA1B70285074";
paths = (
{
closed = 1;
nodes = (
"483 0 LINE",
"498 163 LINE",
"463 170 LINE",
"421 62 LINE",
"455 85 LINE",
"151 85 LINE",
"167 64 LINE",
"167 621 LINE",
"244 642 LINE",
"244 700 LINE",
"35 700 LINE",
"35 642 LINE",
"112 619 LINE",
"112 79 LINE",
"35 58 LINE",
"35 0 LINE"
);
}
);
userData = {
com.hugojourdan.ColorFlow = {
"0" = 0;
"1" = 0;
"10" = 0;
"11" = 0;
"2" = 0;
"3" = 0;
"4" = 0;
"5" = 0;
"6" = 0;
"7" = 0;
"8" = 0;
"9" = 0;
};
};
width = 528;
},
{
anchors = (
{
name = bottom;
position = "{282, 0}";
},
{
name = center;
position = "{162, 350}";
},
{
name = top;
position = "{153, 700}";
},
{
name = topright;
position = "{283, 459}";
}
);
layerId = "3CA830F5-1E41-4F35-86DC-34C8110F5ED1";
paths = (
{
closed = 1;
nodes = (
"524 0 LINE",
"539 243 LINE",
"454 260 LINE",
"409 142 LINE",
"443 165 LINE",
"186 165 LINE",
"208 137 LINE",
"208 531 LINE",
"276 562 LINE",
"276 700 LINE",
"30 700 LINE",
"30 562 LINE",
"98 531 LINE",
"98 169 LINE",
"30 138 LINE",
"30 0 LINE"
);
}
);
userData = {
com.hugojourdan.ColorFlow = {
"0" = 0;
"1" = 0;
"10" = 0;
"11" = 0;
"2" = 0;
"3" = 0;
"4" = 0;
"5" = 0;
"6" = 0;
"7" = 0;
"8" = 0;
"9" = 0;
};
};
width = 564;
}
);
leftKerningGroup = H;
leftMetricsKey = H;
rightKerningGroup = L;
unicode = 004C;
userData = {
KernOnName = L;
};
},
{
glyphname = M;
lastChange = "2025-01-05 11:04:39 +0000";
layers = (
{
background = {
paths = (
{
closed = 1;
nodes = (
"167 0 LINE",
"167 16 LINE",
"101 34 LINE",
"187 659 LINE",
"173 614 LINE",
"224 614 LINE",
"197 653 LINE",
"430 0 LINE",
"451 0 LINE",
"684 649 LINE",
"659 614 LINE",
"708 614 LINE",
"694 650 LINE",
"780 34 LINE",
"714 16 LINE",
"714 0 LINE",
"862 0 LINE",
"862 16 LINE",
"796 34 LINE",
"703 705 LINE",
"687 705 LINE",
"450 48 LINE",
"473 79 LINE {name = \"🧨\";}",
"407 79 LINE",
"431 48 LINE",
"195 705 LINE",
"179 705 LINE",
"86 34 LINE",
"20 16 LINE",
"20 0 LINE"
);
}
);
};
layerId = master01;
paths = (
{
closed = 1;
nodes = (
"167 0 LINE",
"167 16 LINE",
"102 44 LINE",
"187 659 LINE",
"173 614 LINE",
"224 614 LINE",
"197 653 LINE",
"430 0 LINE",
"451 0 LINE",
"684 649 LINE",
"659 614 LINE",
"708 614 LINE",
"694 650 LINE",
"779 44 LINE",
"714 16 LINE",
"714 0 LINE",
"862 0 LINE",
"862 16 LINE",
"795 44 LINE",
"703 705 LINE",
"687 705 LINE",
"450 48 LINE",
"473 79 LINE {name = \"🧨\";}",
"407 79 LINE",
"431 48 LINE",
"195 705 LINE",
"179 705 LINE",
"87 44 LINE",
"20 16 LINE",
"20 0 LINE"
);
}
);
userData = {
com.hugojourdan.ColorFlow = {
"0" = 0;
"1" = 0;
"10" = 0;
"11" = 0;
"2" = 0;
"3" = 0;
"4" = 0;
"5" = 0;
"6" = 0;
"7" = 0;
"8" = 0;
"9" = 0;
};
};
vertWidth = 750;
width = 882;
},
{
layerId = "7F56E5C1-F146-4434-90E4-DA1B70285074";
paths = (
{
closed = 1;
nodes = (
"233 0 LINE",
"233 58 LINE",
"156 81 LINE",
"223 569 LINE",
"195 544 LINE",
"274 544 LINE",
"240 567 LINE",
"438 0 LINE",
"498 0 LINE",
"697 567 LINE",
"663 544 LINE",
"742 544 LINE",
"714 569 LINE",
"781 79 LINE",
"704 58 LINE",
"704 0 LINE",
"916 0 LINE",
"916 58 LINE",
"839 81 LINE",
"752 705 LINE",
"688 705 LINE",
"477 98 LINE",
"511 121 LINE",
"426 121 LINE",
"460 98 LINE",
"249 705 LINE",
"186 705 LINE",
"100 79 LINE",
"23 58 LINE",
"23 0 LINE"
);
}
);
userData = {
com.hugojourdan.ColorFlow = {
"0" = 0;
"1" = 0;
"10" = 0;
"11" = 0;
"2" = 0;
"3" = 0;
"4" = 0;
"5" = 0;
"6" = 0;
"7" = 0;
"8" = 0;
"9" = 0;
};
};
vertWidth = 750;
width = 939;
},
{
layerId = "3CA830F5-1E41-4F35-86DC-34C8110F5ED1";
paths = (
{
closed = 1;
nodes = (
"271 0 LINE",
"271 138 LINE",
"203 169 LINE",
"241 458 LINE",
"213 433 LINE",
"286 433 LINE",
"252 456 LINE",
"403 0 LINE",
"533 0 LINE",
"685 456 LINE",
"651 433 LINE",
"724 433 LINE",
"696 458 LINE",
"734 169 LINE",
"666 138 LINE",
"666 0 LINE",
"919 0 LINE",
"919 138 LINE",
"851 169 LINE",
"776 705 LINE",
"660 705 LINE",
"474 181 LINE",
"508 204 LINE",
"428 204 LINE",
"462 181 LINE",
"277 705 LINE",
"161 705 LINE",
"87 169 LINE",
"19 138 LINE",
"19 0 LINE"
);
}
);
userData = {
com.hugojourdan.ColorFlow = {
"0" = 0;
"1" = 0;
"10" = 0;
"11" = 0;
"2" = 0;
"3" = 0;
"4" = 0;
"5" = 0;
"6" = 0;
"7" = 0;
"8" = 0;
"9" = 0;
};
};
vertWidth = 750;
width = 938;
}
);
leftKerningGroup = M;
rightKerningGroup = M;
rightMetricsKey = "=|";
unicode = 004D;
userData = {
KernOnName = M;
};
},
{
glyphname = N;
lastChange = "2025-01-05 09:40:56 +0000";
layers = (
{
anchors = (
{
name = bottom;
position = "{333, 0}";
},
{
name = top;
position = "{333, 700}";
}
);
layerId = master01;
paths = (
{
closed = 1;
nodes = (
"192 0 LINE",
"192 16 LINE",
"126 44 LINE",
"126 683 LINE",
"115 672 LINE",
"544 0 LINE",
"560 0 LINE",
"560 656 LINE",
"626 684 LINE",
"626 700 LINE",
"478 700 LINE",
"478 684 LINE",
"544 656 LINE",
"544 17 LINE",
"556 28 LINE",
"126 700 LINE",
"44 700 LINE",
"44 684 LINE",
"110 656 LINE",
"110 44 LINE",
"44 16 LINE",
"44 0 LINE"
);
}
);
userData = {
com.hugojourdan.ColorFlow = {
"0" = 0;
"1" = 0;
"10" = 0;
"11" = 0;
"2" = 0;
"3" = 0;
"4" = 0;
"5" = 0;
"6" = 0;
"7" = 0;
"8" = 0;
"9" = 0;
};
};
vertWidth = 750;
width = 661;
},
{
anchors = (
{
name = bottom;
position = "{352, 0}";
},
{
name = top;
position = "{352, 700}";
}
);
layerId = "7F56E5C1-F146-4434-90E4-DA1B70285074";
paths = (
{
closed = 1;
nodes = (
"244 0 LINE",
"244 58 LINE",
"167 81 LINE",
"167 588 LINE",
"151 584 LINE",
"546 0 LINE",
"601 0 LINE",
"601 621 LINE",
"678 642 LINE",
"678 700 LINE",
"469 700 LINE",
"469 642 LINE",
"546 619 LINE",
"546 109 LINE",
"560 113 LINE",
"167 700 LINE",
"35 700 LINE",
"35 642 LINE",
"112 619 LINE",
"112 79 LINE",
"35 58 LINE",
"35 0 LINE"
);
}
);
userData = {
com.hugojourdan.ColorFlow = {
"0" = 0;
"1" = 0;
"10" = 0;
"11" = 0;
"2" = 0;
"3" = 0;
"4" = 0;
"5" = 0;
"6" = 0;
"7" = 0;
"8" = 0;
"9" = 0;
};
};
vertWidth = 750;
width = 703;
},
{
anchors = (
{
name = bottom;
position = "{360, 0}";
},
{
name = top;
position = "{360, 700}";
}
);
layerId = "3CA830F5-1E41-4F35-86DC-34C8110F5ED1";
paths = (
{
closed = 1;
nodes = (
"276 0 LINE",
"276 138 LINE",
"208 169 LINE",
"208 448 LINE",
"193 443 LINE",
"522 0 LINE",
"632 0 LINE",
"632 531 LINE",
"700 562 LINE",
"700 700 LINE",
"454 700 LINE",
"454 562 LINE",
"522 531 LINE",
"522 247 LINE",
"537 252 LINE",
"208 700 LINE",
"30 700 LINE",
"30 562 LINE",
"98 531 LINE",
"98 169 LINE",
"30 138 LINE",
"30 0 LINE"
);
}
);
userData = {
com.hugojourdan.ColorFlow = {
"0" = 0;
"1" = 0;
"10" = 0;
"11" = 0;
"2" = 0;
"3" = 0;
"4" = 0;
"5" = 0;
"6" = 0;
"7" = 0;
"8" = 0;
"9" = 0;
};
};
vertWidth = 750;
width = 720;
}
);
leftKerningGroup = H;
leftMetricsKey = H;
rightKerningGroup = N;
unicode = 004E;
},
{
glyphname = Eng;
lastChange = "2025-01-05 09:40:56 +0000";
layers = (
{
components = (
{
name = N;
}
);
layerId = master01;
paths = (
{
closed = 1;
nodes = (
"526 -213 OFFCURVE",
"556 -142 OFFCURVE",
"556 1 CURVE",
"540 1 LINE",
"540 -145 OFFCURVE",
"507 -197 OFFCURVE",
"396 -227 CURVE",
"413 -255 LINE"
);
}
);
userData = {
com.hugojourdan.ColorFlow = {
"0" = 0;
"1" = 0;
"10" = 0;
"11" = 0;
"2" = 0;
"3" = 0;
"4" = 0;
"5" = 0;
"6" = 0;
"7" = 0;
"8" = 0;
"9" = 0;
};
};
width = 661;
},
{
components = (
{
name = N;
}
);
layerId = "7F56E5C1-F146-4434-90E4-DA1B70285074";
paths = (
{
closed = 1;
nodes = (
"566 -229 OFFCURVE",
"602 -121 OFFCURVE",
"601 9 CURVE",
"546 0 LINE",
"546 -103 OFFCURVE",
"511 -160 OFFCURVE",
"392 -172 CURVE",
"433 -260 LINE"
);
}
);
userData = {
com.hugojourdan.ColorFlow = {
"0" = 0;
"1" = 0;
"10" = 0;
"11" = 0;
"2" = 0;
"3" = 0;
"4" = 0;
"5" = 0;
"6" = 0;
"7" = 0;
"8" = 0;
"9" = 0;
};
};
width = 703;
},
{
background = {
components = (
{
name = N;
}
);
paths = (
{
closed = 1;
nodes = (
"522 6 LINE",
"522 -55 OFFCURVE",
"477 -79 OFFCURVE",
"328 -92 CURVE",
"389 -260 LINE",
"582 -220 OFFCURVE",
"632 -114 OFFCURVE",
"632 5 CURVE"
);
}
);
};
components = (
{
name = N;
}
);
layerId = "3CA830F5-1E41-4F35-86DC-34C8110F5ED1";
paths = (
{
closed = 1;
nodes = (
"596 -220 OFFCURVE",
"632 -114 OFFCURVE",
"632 5 CURVE",
"522 6 LINE",
"522 -55 OFFCURVE",
"493 -79 OFFCURVE",
"398 -92 CURVE",
"459 -260 LINE"
);
}
);
userData = {
com.hugojourdan.ColorFlow = {
"0" = 0;
"1" = 0;
"10" = 0;
"11" = 0;
"2" = 0;
"3" = 0;
"4" = 0;
"5" = 0;
"6" = 0;
"7" = 0;
"8" = 0;
"9" = 0;
};
};
width = 720;
}
);
leftKerningGroup = H;
leftMetricsKey = N;
rightKerningGroup = N;
rightMetricsKey = N;
unicode = 014A;
},
{
glyphname = O;
lastChange = "2025-01-05 11:04:39 +0000";
layers = (
{
anchors = (
{
name = bottom;
position = "{370, 0}";
},
{
name = center;
position = "{370, 350}";
},
{
name = ogonek;
position = "{664, 10}";
},
{
name = top;
position = "{370, 700}";
},
{
name = topleft;
position = "{45, 700}";
},
{
name = topright;
position = "{593, 700}";
}
);
layerId = master01;
paths = (
{
closed = 1;
nodes = (
"566 -5 OFFCURVE",
"680 137 OFFCURVE",
"680 350 CURVE SMOOTH",
"680 563 OFFCURVE",
"566 705 OFFCURVE",
"370 705 CURVE SMOOTH",
"175 705 OFFCURVE",
"60 563 OFFCURVE",
"60 350 CURVE SMOOTH",
"60 137 OFFCURVE",
"175 -5 OFFCURVE",
"370 -5 CURVE SMOOTH"
);
},
{
closed = 1;
nodes = (
"179 23 OFFCURVE",
"78 147 OFFCURVE",
"78 350 CURVE SMOOTH",
"78 553 OFFCURVE",
"179 677 OFFCURVE",
"370 677 CURVE SMOOTH",
"559 677 OFFCURVE",
"662 553 OFFCURVE",
"662 350 CURVE SMOOTH",
"662 147 OFFCURVE",
"559 23 OFFCURVE",
"370 23 CURVE SMOOTH"
);
}
);
userData = {
com.hugojourdan.ColorFlow = {
"0" = 0;
"1" = 0;
"10" = 0;
"11" = 0;
"2" = 0;
"3" = 0;
"4" = 0;
"5" = 0;
"6" = 0;
"7" = 0;
"8" = 0;
"9" = 0;
};
};
vertWidth = 750;
width = 740;
},
{
anchors = (
{
name = bottom;
position = "{375, 0}";
},
{
name = center;
position = "{375, 350}";
},
{
name = ogonek;
position = "{675, 10}";
},
{
name = top;
position = "{375, 700}";
},
{
name = topleft;
position = "{20, 700}";
},
{
name = topright;
position = "{580, 700}";
}
);
layerId = "7F56E5C1-F146-4434-90E4-DA1B70285074";
paths = (
{
closed = 1;
nodes = (
"573 -10 OFFCURVE",
"689 134 OFFCURVE",
"689 350 CURVE SMOOTH {name = sh02;}",
"689 566 OFFCURVE",
"573 710 OFFCURVE",
"373 710 CURVE SMOOTH {name = at01;}",
"173 710 OFFCURVE",
"55 566 OFFCURVE",
"55 350 CURVE SMOOTH {name = sh01;}",
"55 134 OFFCURVE",
"173 -10 OFFCURVE",
"373 -10 CURVE SMOOTH {name = ab01;}"
);
},
{
closed = 1;
nodes = (
"203 78 OFFCURVE",
"113 176 OFFCURVE",
"113 350 CURVE SMOOTH {name = sh03;}",
"113 523 OFFCURVE",
"202 622 OFFCURVE",
"371 622 CURVE SMOOTH {name = sv02;}",
"540 622 OFFCURVE",
"631 522 OFFCURVE",
"631 350 CURVE SMOOTH {name = ah01;}",
"631 177 OFFCURVE",
"539 78 OFFCURVE",
"371 78 CURVE SMOOTH {name = sv01;}"
);
}
);
userData = {
com.hugojourdan.ColorFlow = {
"0" = 0;
"1" = 0;
"10" = 0;
"11" = 0;
"2" = 0;
"3" = 0;
"4" = 0;
"5" = 0;
"6" = 0;
"7" = 0;
"8" = 0;
"9" = 0;
};
};
vertWidth = 750;
width = 744;
},
{
anchors = (
{
name = bottom;
position = "{360, 0}";
},
{
name = center;
position = "{360, 350}";
},
{
name = ogonek;
position = "{652, 10}";
},
{
name = top;
position = "{360, 700}";
},
{
name = topleft;
position = "{15, 700}";
},
{
name = topright;
position = "{535, 700}";
}
);
layerId = "3CA830F5-1E41-4F35-86DC-34C8110F5ED1";
paths = (
{
closed = 1;
nodes = (
"562 -10 OFFCURVE",
"680 134 OFFCURVE",
"680 350 CURVE SMOOTH",
"680 566 OFFCURVE",
"562 710 OFFCURVE",
"360 710 CURVE SMOOTH",
"158 710 OFFCURVE",
"40 566 OFFCURVE",
"40 350 CURVE SMOOTH",
"40 134 OFFCURVE",
"158 -10 OFFCURVE",
"360 -10 CURVE SMOOTH"
);
},
{
closed = 1;
nodes = (
"222 158 OFFCURVE",
"153 227 OFFCURVE",
"153 349 CURVE SMOOTH",
"153 472 OFFCURVE",
"224 542 OFFCURVE",
"359 542 CURVE SMOOTH",
"493 542 OFFCURVE",
"567 472 OFFCURVE",
"567 350 CURVE SMOOTH",
"567 227 OFFCURVE",
"491 158 OFFCURVE",
"357 158 CURVE SMOOTH"
);
}
);
userData = {
com.hugojourdan.ColorFlow = {
"0" = 0;
"1" = 0;
"10" = 0;
"11" = 0;
"2" = 0;
"3" = 0;
"4" = 0;
"5" = 0;
"6" = 0;
"7" = 0;
"8" = 0;
"9" = 0;
};
};
vertWidth = 750;
width = 720;
}
);
leftKerningGroup = O;
rightKerningGroup = O;
rightMetricsKey = "=|";
unicode = 004F;
userData = {
KernOnName = O;
};
},
{
glyphname = OE;
lastChange = "2025-01-05 08:38:55 +0000";
layers = (
{
layerId = master01;
paths = (
{
closed = 1;
nodes = (
"821 0 LINE",
"846 163 LINE",
"829 165 LINE",
"775 9 LINE",
"815 25 LINE",
"412 25 LINE SMOOTH",
"194 25 OFFCURVE",
"78 148 OFFCURVE",
"78 350 CURVE SMOOTH",
"78 552 OFFCURVE",
"194 675 OFFCURVE",
"412 675 CURVE SMOOTH",
"793 675 LINE",
"764 688 LINE",
"819 554 LINE",
"836 557 LINE",
"811 700 LINE",
"412 700 LINE SMOOTH",
"190 700 OFFCURVE",
"60 560 OFFCURVE",
"60 350 CURVE SMOOTH",
"60 140 OFFCURVE",
"190 0 OFFCURVE",
"412 0 CURVE SMOOTH"
);
},
{
closed = 1;
nodes = (
"476 10 LINE {name = \"🧨\";}",
"476 688 LINE {name = \"🧨\";}",
"460 688 LINE {name = \"🧨\";}",
"460 10 LINE {name = \"🧨\";}"
);
},
{
closed = 1;
nodes = (
"705 351 LINE",
"705 372 LINE",
"469 372 LINE",
"469 351 LINE"
);
},
{
closed = 1;
nodes = (
"719 259 LINE",
"719 445 LINE",
"705 445 LINE",
"678 370 LINE",
"677 357 LINE",
"704 259 LINE"
);
}
);
userData = {
com.hugojourdan.ColorFlow = {
"0" = 0;
"1" = 0;
"10" = 0;
"11" = 0;
"2" = 0;
"3" = 0;
"4" = 0;
"5" = 0;
"6" = 0;
"7" = 0;
"8" = 0;
"9" = 0;
};
};
width = 881;
},
{
layerId = "7F56E5C1-F146-4434-90E4-DA1B70285074";
paths = (
{
closed = 1;
nodes = (
"835 0 LINE",
"850 163 LINE",
"815 170 LINE",
"773 62 LINE",
"807 85 LINE",
"404 85 LINE SMOOTH",
"202 85 OFFCURVE",
"113 171 OFFCURVE",
"113 350 CURVE SMOOTH {name = sh03;}",
"113 529 OFFCURVE",
"202 615 OFFCURVE",
"404 615 CURVE SMOOTH",
"800 615 LINE",
"765 637 LINE",
"805 550 LINE",
"840 557 LINE",
"825 700 LINE",
"404 700 LINE SMOOTH",
"175 700 OFFCURVE",
"55 570 OFFCURVE",
"55 350 CURVE SMOOTH {name = sh01;}",
"55 130 OFFCURVE",
"175 0 OFFCURVE",
"404 0 CURVE SMOOTH"
);
},
{
closed = 1;
nodes = (
"519 40 LINE {name = \"🧨\";}",
"519 650 LINE {name = \"🧨\";}",
"464 650 LINE {name = \"🧨\";}",
"464 40 LINE {name = \"🧨\";}"
);
},
{
closed = 1;
nodes = (
"691 329 LINE",
"691 390 LINE",
"493 390 LINE",
"493 329 LINE"
);
},
{
closed = 1;
nodes = (
"733 259 LINE",
"733 446 LINE",
"691 446 LINE",
"670 370 LINE",
"669 347 LINE",
"690 259 LINE"
);
}
);
userData = {
com.hugojourdan.ColorFlow = {
"0" = 0;
"1" = 0;
"10" = 0;
"11" = 0;
"2" = 0;
"3" = 0;
"4" = 0;
"5" = 0;
"6" = 0;
"7" = 0;
"8" = 0;
"9" = 0;
};
};
width = 880;
},
{
layerId = "3CA830F5-1E41-4F35-86DC-34C8110F5ED1";
paths = (
{
closed = 1;
nodes = (
"851 0 LINE",
"866 243 LINE",
"781 260 LINE",
"736 142 LINE",
"770 165 LINE",
"359 165 LINE SMOOTH",
"222 165 OFFCURVE",
"153 231 OFFCURVE",
"153 349 CURVE SMOOTH",
"153 468 OFFCURVE",
"224 535 OFFCURVE",
"359 535 CURVE SMOOTH",
"762 535 LINE",
"727 558 LINE",
"771 460 LINE",
"856 477 LINE",
"841 700 LINE",
"359 700 LINE SMOOTH",
"158 700 OFFCURVE",
"40 560 OFFCURVE",
"40 350 CURVE SMOOTH",
"40 140 OFFCURVE",
"158 0 OFFCURVE",
"359 0 CURVE SMOOTH"
);
},
{
closed = 1;
nodes = (
"535 90 LINE {name = \"🧨\";}",
"535 640 LINE {name = \"🧨\";}",
"425 640 LINE {name = \"🧨\";}",
"425 90 LINE {name = \"🧨\";}"
);
},
{
closed = 1;
nodes = (
"677 290 LINE",
"677 421 LINE",
"464 421 LINE",
"464 290 LINE"
);
},
{
closed = 1;
nodes = (
"719 237 LINE",
"719 469 LINE",
"627 469 LINE",
"606 373 LINE",
"605 350 LINE",
"626 237 LINE"
);
}
);
userData = {
com.hugojourdan.ColorFlow = {
"0" = 0;
"1" = 0;
"10" = 0;
"11" = 0;
"2" = 0;
"3" = 0;
"4" = 0;
"5" = 0;
"6" = 0;
"7" = 0;
"8" = 0;
"9" = 0;
};
};
width = 891;
}
);
leftKerningGroup = O;
leftMetricsKey = O;
rightKerningGroup = E;
rightMetricsKey = E;
unicode = 0152;
},
{
glyphname = P;
lastChange = "2025-01-06 03:38:58 +0000";
layers = (
{
layerId = master01;
paths = (
{
closed = 1;
nodes = (
"192 0 LINE",
"192 16 LINE",
"126 44 LINE",
"126 683 LINE",
"118 675 LINE",
"270 675 LINE SMOOTH",
"385 675 OFFCURVE",
"446 619 OFFCURVE",
"446 503 CURVE SMOOTH",
"446 397 OFFCURVE",
"393 320 OFFCURVE",
"256 320 CURVE SMOOTH",
"121 320 LINE",
"121 300 LINE",
"256 300 LINE SMOOTH",
"349 300 OFFCURVE",
"465 340 OFFCURVE",
"465 503 CURVE SMOOTH",
"465 641 OFFCURVE",
"379 700 OFFCURVE",
"270 700 CURVE SMOOTH",
"44 700 LINE",
"44 684 LINE",
"110 656 LINE",
"110 44 LINE",
"44 16 LINE",
"44 0 LINE"
);
}
);
userData = {
com.hugojourdan.ColorFlow = {
"0" = 0;
"1" = 0;
"10" = 0;
"11" = 0;
"2" = 0;
"3" = 0;
"4" = 0;
"5" = 0;
"6" = 0;
"7" = 0;
"8" = 0;
"9" = 0;
};
};
vertWidth = 750;
width = 500;
},
{
layerId = "7F56E5C1-F146-4434-90E4-DA1B70285074";
paths = (
{
closed = 1;
nodes = (
"244 0 LINE",
"244 58 LINE",
"167 81 LINE",
"167 640 LINE",
"142 615 LINE",
"310 615 LINE SMOOTH",
"394 615 OFFCURVE",
"433 575 OFFCURVE",
"433 491 CURVE SMOOTH",
"433 417 OFFCURVE",
"403 360 OFFCURVE",
"294 360 CURVE SMOOTH",
"153 360 LINE",
"153 280 LINE",
"283 280 LINE SMOOTH",
"383 280 OFFCURVE",
"491 331 OFFCURVE",
"491 493 CURVE SMOOTH",
"491 648 OFFCURVE",
"398 700 OFFCURVE",
"297 700 CURVE SMOOTH",
"35 700 LINE",
"35 642 LINE",
"112 619 LINE",
"112 79 LINE",
"35 58 LINE",
"35 0 LINE"
);
}
);
userData = {
com.hugojourdan.ColorFlow = {
"0" = 0;
"1" = 0;
"10" = 0;
"11" = 0;
"2" = 0;
"3" = 0;
"4" = 0;
"5" = 0;
"6" = 0;
"7" = 0;
"8" = 0;
"9" = 0;
};
};
vertWidth = 750;
width = 531;
},
{
background = {
hints = (
{
origin = "{0, 8}";
type = Corner;
name = _corner.serifBottomRight;
options = 1;
},
{
origin = "{0, 9}";
type = Corner;
name = _corner.serifBottomLeft;
},
{
origin = "{0, 10}";
type = Corner;
name = _corner.serifBottomRight;
options = 1;
}
);
paths = (
{
closed = 1;
nodes = (
"192 265 LINE",
"254 265 LINE SMOOTH",
"392 265 OFFCURVE",
"502 312 OFFCURVE",
"502 484 CURVE SMOOTH",
"502 641 OFFCURVE",
"411 700 OFFCURVE",
"268 700 CURVE SMOOTH",
"98 700 LINE",
"98 0 LINE",
"208 0 LINE",
"208 560 LINE",
"183 535 LINE",
"281 535 LINE SMOOTH",
"356 535 OFFCURVE",
"389 517 OFFCURVE",
"389 452 CURVE SMOOTH",
"389 394 OFFCURVE",
"361 360 OFFCURVE",
"265 360 CURVE SMOOTH",
"192 360 LINE"
);
}
);
};
layerId = "3CA830F5-1E41-4F35-86DC-34C8110F5ED1";
paths = (
{
closed = 1;
nodes = (
"276 0 LINE",
"276 138 LINE",
"208 169 LINE",
"208 560 LINE",
"183 535 LINE",
"301 535 LINE SMOOTH",
"376 535 OFFCURVE",
"409 520 OFFCURVE",
"409 464 CURVE SMOOTH",
"409 417 OFFCURVE",
"386 390 OFFCURVE",
"305 390 CURVE SMOOTH",
"192 390 LINE",
"192 245 LINE",
"274 245 LINE SMOOTH",
"412 245 OFFCURVE",
"522 294 OFFCURVE",
"522 474 CURVE SMOOTH",
"522 638 OFFCURVE",
"431 700 OFFCURVE",
"288 700 CURVE SMOOTH",
"30 700 LINE",
"30 562 LINE",
"98 531 LINE",
"98 169 LINE",
"30 138 LINE",
"30 0 LINE"
);
}
);
userData = {
com.hugojourdan.ColorFlow = {
"0" = 0;
"1" = 0;
"10" = 0;
"11" = 0;
"2" = 0;
"3" = 0;
"4" = 0;
"5" = 0;
"6" = 0;
"7" = 0;
"8" = 0;
"9" = 0;
};
};
vertWidth = 750;
width = 549;
}
);
leftKerningGroup = H;
leftMetricsKey = H;
rightKerningGroup = P;
unicode = 0050;
userData = {
KernOnName = P;
};
},
{
glyphname = Thorn;
lastChange = "2025-01-05 09:40:56 +0000";
layers = (
{
layerId = master01;
paths = (
{
closed = 1;
nodes = (
"192 0 LINE",
"192 16 LINE",
"126 44 LINE",
"126 522 LINE",
"118 511 LINE",
"270 511 LINE SMOOTH",
"378 511 OFFCURVE",
"426 466 OFFCURVE",
"426 369 CURVE SMOOTH",
"426 282 OFFCURVE",
"386 216 OFFCURVE",
"256 216 CURVE SMOOTH",
"121 216 LINE",
"121 196 LINE",
"256 196 LINE SMOOTH",
"355 196 OFFCURVE",
"445 239 OFFCURVE",
"445 369 CURVE SMOOTH",
"445 477 OFFCURVE",
"383 536 OFFCURVE",
"270 536 CURVE SMOOTH",
"126 536 LINE",
"126 656 LINE",
"192 684 LINE",
"192 700 LINE",
"44 700 LINE",
"44 684 LINE",
"110 656 LINE",
"110 44 LINE",
"44 16 LINE",
"44 0 LINE"
);
}
);
userData = {
com.hugojourdan.ColorFlow = {
"0" = 0;
"1" = 0;
"10" = 0;
"11" = 0;
"2" = 0;
"3" = 0;
"4" = 0;
"5" = 0;
"6" = 0;
"7" = 0;
"8" = 0;
"9" = 0;
};
};
width = 480;
},
{
layerId = "7F56E5C1-F146-4434-90E4-DA1B70285074";
paths = (
{
closed = 1;
nodes = (
"244 0 LINE",
"244 58 LINE",
"167 81 LINE",
"167 470 LINE",
"142 445 LINE",
"310 445 LINE SMOOTH",
"381 445 OFFCURVE",
"413 415 OFFCURVE",
"413 349 CURVE SMOOTH",
"413 288 OFFCURVE",
"386 240 OFFCURVE",
"294 240 CURVE SMOOTH",
"153 240 LINE",
"153 185 LINE",
"283 185 LINE SMOOTH",
"372 185 OFFCURVE",
"471 223 OFFCURVE",
"471 359 CURVE SMOOTH",
"471 483 OFFCURVE",
"388 530 OFFCURVE",
"297 530 CURVE SMOOTH",
"167 530 LINE",
"167 621 LINE",
"244 642 LINE",
"244 700 LINE",
"35 700 LINE",
"35 642 LINE",
"112 619 LINE",
"112 79 LINE",
"35 58 LINE",
"35 0 LINE"
);
}
);
userData = {
com.hugojourdan.ColorFlow = {
"0" = 0;
"1" = 0;
"10" = 0;
"11" = 0;
"2" = 0;
"3" = 0;
"4" = 0;
"5" = 0;
"6" = 0;
"7" = 0;
"8" = 0;
"9" = 0;
};
};
width = 511;
},
{
layerId = "3CA830F5-1E41-4F35-86DC-34C8110F5ED1";
paths = (
{
closed = 1;
nodes = (
"276 0 LINE",
"276 110 LINE",
"208 135 LINE",
"208 414 LINE",
"183 389 LINE",
"311 389 LINE SMOOTH",
"358 389 OFFCURVE",
"379 377 OFFCURVE",
"379 338 CURVE SMOOTH",
"379 302 OFFCURVE",
"362 284 OFFCURVE",
"305 284 CURVE SMOOTH",
"192 284 LINE",
"192 189 LINE",
"294 189 LINE SMOOTH",
"405 189 OFFCURVE",
"492 226 OFFCURVE",
"492 363 CURVE SMOOTH",
"492 487 OFFCURVE",
"420 534 OFFCURVE",
"308 534 CURVE SMOOTH",
"209 534 LINE",
"209 565 LINE",
"277 590 LINE",
"277 700 LINE",
"30 700 LINE",
"30 590 LINE",
"98 565 LINE",
"98 135 LINE",
"30 110 LINE",
"30 0 LINE"
);
}
);
userData = {
com.hugojourdan.ColorFlow = {
"0" = 0;
"1" = 0;
"10" = 0;
"11" = 0;
"2" = 0;
"3" = 0;
"4" = 0;
"5" = 0;
"6" = 0;
"7" = 0;
"8" = 0;
"9" = 0;
};
};
width = 517;
}
);
leftKerningGroup = H;
leftMetricsKey = H;
unicode = 00DE;
},
{
glyphname = Q;
lastChange = "2025-01-02 17:37:14 +0000";
layers = (
{
background = {
components = (
{
name = O;
}
);
paths = (
{
closed = 1;
nodes = (
"428 10 LINE",
"470 -101 OFFCURVE",
"516 -129 OFFCURVE",
"646 -129 CURVE",
"646 -101 LINE",
"528 -101 OFFCURVE",
"487 -93 OFFCURVE",
"443 20 CURVE"
);
}
);
};
components = (
{
name = O;
},
{
name = _tail.Q;
transform = "{1, 0, 0, 1, 393, 0}";
}
);
layerId = master01;
userData = {
com.hugojourdan.ColorFlow = {
"0" = 0;
"1" = 0;
"10" = 0;
"11" = 0;
"2" = 0;
"3" = 0;
"4" = 0;
"5" = 0;
"6" = 0;
"7" = 0;
"8" = 0;
"9" = 0;
};
};
width = 740;
},
{
background = {
components = (
{
name = O;
}
);
paths = (
{
closed = 1;
nodes = (
"431 0 LINE",
"467 -111 OFFCURVE",
"561 -149 OFFCURVE",
"676 -149 CURVE",
"676 -61 LINE",
"553 -61 OFFCURVE",
"521 -51 OFFCURVE",
"484 22 CURVE"
);
}
);
};
components = (
{
name = O;
},
{
name = _tail.Q;
transform = "{1, 0, 0, 1, 386, 0}";
}
);
layerId = "7F56E5C1-F146-4434-90E4-DA1B70285074";
userData = {
com.hugojourdan.ColorFlow = {
"0" = 0;
"1" = 0;
"10" = 0;
"11" = 0;
"2" = 0;
"3" = 0;
"4" = 0;
"5" = 0;
"6" = 0;
"7" = 0;
"8" = 0;
"9" = 0;
};
};
width = 744;
},
{
background = {
components = (
{
name = O;
}
);
paths = (
{
closed = 1;
nodes = (
"391 0 LINE",
"431 -148 OFFCURVE",
"512 -199 OFFCURVE",
"666 -199 CURVE",
"666 -31 LINE",
"543 -31 OFFCURVE",
"511 -22 OFFCURVE",
"484 42 CURVE"
);
}
);
};
components = (
{
name = O;
},
{
name = _tail.Q;
transform = "{1, 0, 0, 1, 346, 0}";
}
);
layerId = "3CA830F5-1E41-4F35-86DC-34C8110F5ED1";
userData = {
com.hugojourdan.ColorFlow = {
"0" = 0;
"1" = 0;
"10" = 0;
"11" = 0;
"2" = 0;
"3" = 0;
"4" = 0;
"5" = 0;
"6" = 0;
"7" = 0;
"8" = 0;
"9" = 0;
};
};
width = 720;
},
{
associatedMasterId = master01;
background = {
paths = (
{
closed = 1;
nodes = (
"719 -123 LINE",
"517 -123 OFFCURVE",
"544 8 OFFCURVE",
"360 8 CURVE",
"360 -5 LINE",
"519 -5 OFFCURVE",
"509 -149 OFFCURVE",
"705 -149 CURVE"
);
}
);
};
components = (
{
name = O;
}
);
layerId = "1B5DCDDA-B89A-427C-9846-1FEF7D31F5A6";
name = "22 May 23 03.00";
paths = (
{
closed = 1;
nodes = (
"428 10 LINE",
"470 -101 OFFCURVE",
"516 -129 OFFCURVE",
"646 -129 CURVE",
"646 -101 LINE",
"528 -101 OFFCURVE",
"487 -93 OFFCURVE",
"443 20 CURVE"
);
}
);
width = 720;
},
{
associatedMasterId = "7F56E5C1-F146-4434-90E4-DA1B70285074";
background = {
components = (
{
name = O;
}
);
paths = (
{
closed = 1;
nodes = (
"730 -63 LINE",
"558 -63 OFFCURVE",
"591 14 OFFCURVE",
"375 14 CURVE",
"375 -10 LINE",
"543 -10 OFFCURVE",
"542 -149 OFFCURVE",
"730 -149 CURVE"
);
}
);
};
components = (
{
name = O;
}
);
layerId = "A032C3EE-F56C-4DB2-9207-3ADFAFBDBEFB";
name = "22 May 23 03.00";
paths = (
{
closed = 1;
nodes = (
"431 0 LINE",
"467 -111 OFFCURVE",
"561 -149 OFFCURVE",
"676 -149 CURVE",
"676 -61 LINE",
"553 -61 OFFCURVE",
"521 -51 OFFCURVE",
"484 22 CURVE"
);
}
);
vertWidth = 750;
width = 749;
},
{
associatedMasterId = "3CA830F5-1E41-4F35-86DC-34C8110F5ED1";
background = {
paths = (
{
closed = 1;
nodes = (
"765 -23 LINE",
"515 -23 OFFCURVE",
"534 104 OFFCURVE",
"380 104 CURVE",
"380 -10 LINE",
"485 -10 OFFCURVE",
"501 -199 OFFCURVE",
"685 -199 CURVE"
);
}
);
};
components = (
{
name = O;
}
);
layerId = "09B26D23-7543-4EB5-996A-DD98E676189B";
name = "22 May 23 03.00";
paths = (
{
closed = 1;
nodes = (
"391 0 LINE",
"431 -148 OFFCURVE",
"512 -199 OFFCURVE",
"666 -199 CURVE",
"666 -31 LINE",
"543 -31 OFFCURVE",
"511 -22 OFFCURVE",
"484 42 CURVE"
);
}
);
width = 720;
}
);
leftKerningGroup = O;
leftMetricsKey = O;
rightKerningGroup = O;
unicode = 0051;
},
{
glyphname = R;
lastChange = "2025-01-05 11:04:39 +0000";
layers = (
{
anchors = (
{
name = bottom;
position = "{278, 0}";
},
{
name = top;
position = "{278, 700}";
}
);
background = {
paths = (
{
closed = 1;
nodes = (
"192 0 LINE",
"192 16 LINE",
"126 44 LINE",
"126 683 LINE",
"118 675 LINE",
"270 675 LINE SMOOTH",
"385 675 OFFCURVE",
"446 619 OFFCURVE",
"446 503 CURVE SMOOTH",
"446 397 OFFCURVE",
"393 320 OFFCURVE",
"256 320 CURVE SMOOTH",
"121 320 LINE",
"121 300 LINE",
"256 300 LINE SMOOTH",
"349 300 OFFCURVE",
"465 340 OFFCURVE",
"465 503 CURVE SMOOTH",
"465 641 OFFCURVE",
"379 700 OFFCURVE",
"270 700 CURVE SMOOTH",
"44 700 LINE",
"44 684 LINE",
"110 656 LINE",
"110 44 LINE",
"44 16 LINE",
"44 0 LINE"
);
},
{
closed = 1;
nodes = (
"532 0 LINE",
"532 16 LINE",
"466 34 LINE",
"290 313 LINE",
"276 305 LINE",
"451 26 LINE",
"451 0 LINE {name = \"🧨\";}"
);
}
);
};
layerId = master01;
paths = (
{
closed = 1;
nodes = (
"192 0 LINE",
"192 16 LINE",
"126 44 LINE",
"126 683 LINE",
"118 675 LINE",
"270 675 LINE SMOOTH",
"385 675 OFFCURVE",
"446 619 OFFCURVE",
"446 503 CURVE SMOOTH",
"446 397 OFFCURVE",
"393 320 OFFCURVE",
"256 320 CURVE SMOOTH",
"121 320 LINE",
"121 300 LINE",
"256 300 LINE SMOOTH",
"349 300 OFFCURVE",
"465 340 OFFCURVE",
"465 503 CURVE SMOOTH",
"465 641 OFFCURVE",
"379 700 OFFCURVE",
"270 700 CURVE SMOOTH",
"44 700 LINE",
"44 684 LINE",
"110 656 LINE",
"110 44 LINE",
"44 16 LINE",
"44 0 LINE"
);
},
{
closed = 1;
nodes = (
"532 0 LINE",
"532 16 LINE",
"460 44 LINE",
"290 313 LINE",
"276 305 LINE",
"445 36 LINE",
"445 0 LINE {name = \"🧨\";}"
);
}
);
userData = {
com.hugojourdan.ColorFlow = {
"0" = 0;
"1" = 0;
"10" = 0;
"11" = 0;
"2" = 0;
"3" = 0;
"4" = 0;
"5" = 0;
"6" = 0;
"7" = 0;
"8" = 0;
"9" = 0;
};
};
vertWidth = 750;
width = 552;
},
{
anchors = (
{
name = bottom;
position = "{284, 0}";
},
{
name = top;
position = "{284, 700}";
}
);
background = {
paths = (
{
closed = 1;
nodes = (
"268 295 LINE",
"271 306 LINE",
"369 307 OFFCURVE",
"476 351 OFFCURVE",
"476 502 CURVE SMOOTH",
"476 645 OFFCURVE",
"384 700 OFFCURVE",
"282 700 CURVE SMOOTH",
"114 700 LINE",
"114 615 LINE",
"295 615 LINE SMOOTH",
"380 615 OFFCURVE",
"418 575 OFFCURVE",
"418 494 CURVE SMOOTH",
"418 411 OFFCURVE",
"378 350 OFFCURVE",
"279 350 CURVE SMOOTH",
"151 350 LINE",
"151 295 LINE"
);
},
{
closed = 1;
nodes = (
"572 75 LINE",
"403 105 OFFCURVE",
"424 325 OFFCURVE",
"247 325 CURVE",
"247 295 LINE",
"370 295 OFFCURVE",
"360 16 OFFCURVE",
"535 -10 CURVE"
);
},
{
closed = 1;
nodes = (
"112 700 LINE",
"112 0 LINE",
"167 0 LINE",
"167 700 LINE"
);
}
);
};
layerId = "7F56E5C1-F146-4434-90E4-DA1B70285074";
paths = (
{
closed = 1;
nodes = (
"244 0 LINE",
"244 58 LINE",
"167 81 LINE",
"167 640 LINE",
"142 615 LINE",
"310 615 LINE SMOOTH",
"395 615 OFFCURVE",
"433 575 OFFCURVE",
"433 489 CURVE SMOOTH",
"433 411 OFFCURVE",
"402 350 OFFCURVE",
"294 350 CURVE SMOOTH",
"153 350 LINE",
"153 295 LINE",
"283 295 LINE SMOOTH",
"382 295 OFFCURVE",
"491 340 OFFCURVE",
"491 499 CURVE SMOOTH",
"491 645 OFFCURVE",
"399 700 OFFCURVE",
"297 700 CURVE SMOOTH",
"35 700 LINE",
"35 642 LINE",
"112 619 LINE",
"112 79 LINE",
"35 58 LINE",
"35 0 LINE"
);
},
{
closed = 1;
nodes = (
"539 0 LINE",
"539 58 LINE",
"462 81 LINE",
"328 324 LINE",
"274 298 LINE {name = \"🧨\";}",
"404 66 LINE",
"404 0 LINE {name = \"🧨\";}"
);
}
);
userData = {
com.hugojourdan.ColorFlow = {
"0" = 0;
"1" = 0;
"10" = 0;
"11" = 0;
"2" = 0;
"3" = 0;
"4" = 0;
"5" = 0;
"6" = 0;
"7" = 0;
"8" = 0;
"9" = 0;
};
};
vertWidth = 750;
width = 557;
},
{
anchors = (
{
name = bottom;
position = "{288, 0}";
},
{
name = top;
position = "{288, 700}";
}
);
background = {
paths = (
{
closed = 1;
nodes = (
"276 0 LINE",
"276 138 LINE",
"208 169 LINE",
"208 560 LINE",
"183 535 LINE",
"301 535 LINE SMOOTH",
"376 535 OFFCURVE",
"409 517 OFFCURVE",
"409 452 CURVE SMOOTH",
"409 394 OFFCURVE",
"381 360 OFFCURVE",
"285 360 CURVE SMOOTH",
"192 360 LINE",
"192 265 LINE",
"274 265 LINE SMOOTH",
"412 265 OFFCURVE",
"522 312 OFFCURVE",
"522 484 CURVE SMOOTH",
"522 641 OFFCURVE",
"431 700 OFFCURVE",
"288 700 CURVE SMOOTH",
"30 700 LINE",
"30 562 LINE",
"98 531 LINE",
"98 169 LINE",
"30 138 LINE",
"30 0 LINE"
);
},
{
closed = 1;
nodes = (
"565 0 LINE",
"565 138 LINE",
"463 169 LINE",
"375 319 LINE",
"280 295 LINE",
"434 0 LINE {name = \"🧨\";}"
);
}
);
};
layerId = "3CA830F5-1E41-4F35-86DC-34C8110F5ED1";
paths = (
{
closed = 1;
nodes = (
"276 0 LINE",
"276 138 LINE",
"208 169 LINE",
"208 560 LINE",
"183 535 LINE",
"301 535 LINE SMOOTH",
"376 535 OFFCURVE",
"409 520 OFFCURVE",
"409 464 CURVE SMOOTH",
"409 417 OFFCURVE",
"386 390 OFFCURVE",
"305 390 CURVE SMOOTH",
"192 390 LINE",
"192 245 LINE",
"274 245 LINE SMOOTH",
"412 245 OFFCURVE",
"522 294 OFFCURVE",
"522 474 CURVE SMOOTH",
"522 638 OFFCURVE",
"431 700 OFFCURVE",
"288 700 CURVE SMOOTH",
"30 700 LINE",
"30 562 LINE",
"98 531 LINE",
"98 169 LINE",
"30 138 LINE",
"30 0 LINE"
);
},
{
closed = 1;
nodes = (
"565 0 LINE",
"565 138 LINE",
"463 169 LINE",
"375 319 LINE",
"280 295 LINE",
"364 135 LINE",
"364 0 LINE {name = \"🧨\";}"
);
}
);
userData = {
com.hugojourdan.ColorFlow = {
"0" = 0;
"1" = 0;
"10" = 0;
"11" = 0;
"2" = 0;
"3" = 0;
"4" = 0;
"5" = 0;
"6" = 0;
"7" = 0;
"8" = 0;
"9" = 0;
};
};
vertWidth = 750;
width = 576;
},
{
anchors = (
{
name = bottom;
position = "{289, 0}";
},
{
name = left;
position = "{112, 621}";
},
{
name = right;
position = "{167, 81}";
},
{
name = top;
position = "{259, 700}";
}
);
associatedMasterId = "7F56E5C1-F146-4434-90E4-DA1B70285074";
background = {
paths = (
{
closed = 1;
nodes = (
"268 295 LINE",
"271 306 LINE",
"369 307 OFFCURVE",
"476 351 OFFCURVE",
"476 502 CURVE SMOOTH",
"476 645 OFFCURVE",
"384 700 OFFCURVE",
"282 700 CURVE SMOOTH",
"114 700 LINE",
"114 615 LINE",
"295 615 LINE SMOOTH",
"380 615 OFFCURVE",
"418 575 OFFCURVE",
"418 494 CURVE SMOOTH",
"418 411 OFFCURVE",
"378 350 OFFCURVE",
"279 350 CURVE SMOOTH",
"151 350 LINE",
"151 295 LINE"
);
},
{
closed = 1;
nodes = (
"572 75 LINE",
"403 105 OFFCURVE",
"424 325 OFFCURVE",
"247 325 CURVE",
"247 295 LINE",
"370 295 OFFCURVE",
"360 16 OFFCURVE",
"535 -10 CURVE"
);
},
{
closed = 1;
nodes = (
"112 700 LINE",
"112 0 LINE",
"167 0 LINE",
"167 700 LINE"
);
}
);
};
components = (
{
name = P;
}
);
layerId = "FDAE7F1B-7416-4CFD-B6DD-4D9A43674C8C";
name = "29 Jan 23 16.57";
paths = (
{
closed = 1;
nodes = (
"268 295 LINE",
"271 306 LINE",
"369 307 OFFCURVE",
"476 351 OFFCURVE",
"476 502 CURVE SMOOTH",
"476 645 OFFCURVE",
"384 700 OFFCURVE",
"282 700 CURVE SMOOTH",
"114 700 LINE",
"114 615 LINE",
"295 615 LINE SMOOTH",
"380 615 OFFCURVE",
"418 575 OFFCURVE",
"418 494 CURVE SMOOTH",
"418 411 OFFCURVE",
"378 350 OFFCURVE",
"279 350 CURVE SMOOTH",
"151 350 LINE",
"151 295 LINE"
);
},
{
closed = 1;
nodes = (
"572 75 LINE",
"403 105 OFFCURVE",
"424 325 OFFCURVE",
"247 325 CURVE",
"247 295 LINE",
"370 295 OFFCURVE",
"360 16 OFFCURVE",
"535 -10 CURVE"
);
},
{
closed = 1;
nodes = (
"112 700 LINE",
"112 0 LINE",
"167 0 LINE",
"167 700 LINE"
);
},
{
closed = 0;
nodes = (
"142 700 LINE",
"35 700 LINE",
"35 642 LINE",
"112 621 LINE"
);
},
{
closed = 0;
nodes = (
"112 79 LINE",
"35 58 LINE",
"35 0 LINE",
"142 0 LINE"
);
},
{
closed = 0;
nodes = (
"137 0 LINE",
"244 0 LINE",
"244 58 LINE",
"167 81 LINE"
);
}
);
vertWidth = 750;
width = 577;
}
);
leftKerningGroup = H;
leftMetricsKey = H;
rightKerningGroup = R;
unicode = 0052;
userData = {
KernOnName = R;
};
},
{
glyphname = S;
lastChange = "2025-01-06 03:33:27 +0000";
layers = (
{
anchors = (
{
name = bottom;
position = "{261, 0}";
},
{
name = cedilla;
position = "{251, 0}";
},
{
name = top;
position = "{261, 700}";
}
);
background = {
paths = (
{
closed = 1;
nodes = (
"390 -5 OFFCURVE",
"472 63 OFFCURVE",
"472 183 CURVE SMOOTH",
"472 300 OFFCURVE",
"397 343 OFFCURVE",
"316 366 CURVE SMOOTH",
"193 401 LINE SMOOTH",
"130 419 OFFCURVE",
"86 457 OFFCURVE",
"86 533 CURVE SMOOTH",
"86 636 OFFCURVE",
"165 677 OFFCURVE",
"273 677 CURVE SMOOTH",
"346 677 OFFCURVE",
"397 656 OFFCURVE",
"421 639 CURVE",
"394 667 LINE",
"422 550 LINE",
"440 552 LINE",
"431 660 LINE",
"397 692 OFFCURVE",
"332 705 OFFCURVE",
"272 705 CURVE SMOOTH",
"131 705 OFFCURVE",
"68 636 OFFCURVE",
"68 532 CURVE SMOOTH",
"68 442 OFFCURVE",
"114 394 OFFCURVE",
"203 369 CURVE SMOOTH",
"321 336 LINE SMOOTH",
"381 319 OFFCURVE",
"454 283 OFFCURVE",
"454 183 CURVE SMOOTH",
"454 61 OFFCURVE",
"347 23 OFFCURVE",
"243 23 CURVE SMOOTH",
"179 23 OFFCURVE",
"127 38 OFFCURVE",
"71 69 CURVE",
"89 35 LINE",
"64 186 LINE",
"45 184 LINE",
"54 51 LINE",
"101 14 OFFCURVE",
"166 -5 OFFCURVE",
"243 -5 CURVE SMOOTH"
);
}
);
};
layerId = master01;
paths = (
{
closed = 1;
nodes = (
"390 -5 OFFCURVE",
"472 63 OFFCURVE",
"472 183 CURVE SMOOTH",
"472 300 OFFCURVE",
"397 343 OFFCURVE",
"316 366 CURVE SMOOTH",
"203 398 LINE SMOOTH",
"130 419 OFFCURVE",
"86 457 OFFCURVE",
"86 533 CURVE SMOOTH",
"86 636 OFFCURVE",
"165 677 OFFCURVE",
"273 677 CURVE SMOOTH",
"346 677 OFFCURVE",
"397 656 OFFCURVE",
"421 639 CURVE",
"384 668 LINE",
"422 550 LINE",
"440 552 LINE",
"431 669 LINE",
"387 694 OFFCURVE",
"332 705 OFFCURVE",
"272 705 CURVE SMOOTH",
"131 705 OFFCURVE",
"68 636 OFFCURVE",
"68 532 CURVE SMOOTH",
"68 442 OFFCURVE",
"114 394 OFFCURVE",
"203 369 CURVE SMOOTH",
"321 336 LINE SMOOTH",
"381 319 OFFCURVE",
"454 283 OFFCURVE",
"454 183 CURVE SMOOTH",
"454 61 OFFCURVE",
"346 23 OFFCURVE",
"245 23 CURVE SMOOTH",
"180 23 OFFCURVE",
"123 39 OFFCURVE",
"71 67 CURVE",
"99 35 LINE",
"64 186 LINE",
"45 184 LINE",
"54 44 LINE",
"101 14 OFFCURVE",
"166 -5 OFFCURVE",
"243 -5 CURVE SMOOTH"
);
}
);
userData = {
com.hugojourdan.ColorFlow = {
"0" = 0;
"1" = 0;
"10" = 0;
"11" = 0;
"2" = 0;
"3" = 0;
"4" = 0;
"5" = 0;
"6" = 0;
"7" = 0;
"8" = 0;
"9" = 0;
};
};
vertWidth = 750;
width = 522;
},
{
anchors = (
{
name = bottom;
position = "{261, 0}";
},
{
name = cedilla;
position = "{251, 0}";
},
{
name = top;
position = "{261, 700}";
}
);
background = {
paths = (
{
closed = 1;
nodes = (
"386 -10 OFFCURVE",
"480 64 OFFCURVE",
"480 197 CURVE SMOOTH",
"480 315 OFFCURVE",
"407 358 OFFCURVE",
"326 381 CURVE SMOOTH",
"196 418 LINE SMOOTH",
"132 436 OFFCURVE",
"107 471 OFFCURVE",
"107 519 CURVE SMOOTH",
"107 593 OFFCURVE",
"167 622 OFFCURVE",
"264 622 CURVE SMOOTH",
"314 622 OFFCURVE",
"353 614 OFFCURVE",
"379 602 CURVE",
"359 623 LINE",
"397 530 LINE",
"445 537 LINE",
"436 670 LINE",
"398 695 OFFCURVE",
"333 710 OFFCURVE",
"268 710 CURVE SMOOTH",
"118 710 OFFCURVE",
"49 632 OFFCURVE",
"49 521 CURVE SMOOTH",
"49 427 OFFCURVE",
"98 379 OFFCURVE",
"198 350 CURVE SMOOTH",
"323 314 LINE SMOOTH",
"379 298 OFFCURVE",
"422 266 OFFCURVE",
"422 197 CURVE SMOOTH",
"422 101 OFFCURVE",
"338 78 OFFCURVE",
"253 78 CURVE SMOOTH",
"195 78 OFFCURVE",
"143 88 OFFCURVE",
"96 123 CURVE",
"122 94 LINE",
"88 206 LINE",
"40 199 LINE",
"49 51 LINE",
"95 12 OFFCURVE",
"169 -10 OFFCURVE",
"246 -10 CURVE SMOOTH"
);
}
);
};
layerId = "7F56E5C1-F146-4434-90E4-DA1B70285074";
paths = (
{
closed = 1;
nodes = (
"386 -10 OFFCURVE",
"480 63 OFFCURVE",
"480 200 CURVE SMOOTH",
"480 321 OFFCURVE",
"406 373 OFFCURVE",
"326 391 CURVE SMOOTH",
"206 418 LINE SMOOTH",
"131 435 OFFCURVE",
"107 471 OFFCURVE",
"107 519 CURVE SMOOTH",
"107 595 OFFCURVE",
"169 622 OFFCURVE",
"263 622 CURVE SMOOTH",
"314 622 OFFCURVE",
"353 614 OFFCURVE",
"379 602 CURVE",
"359 623 LINE",
"397 530 LINE",
"445 537 LINE",
"436 670 LINE",
"398 695 OFFCURVE",
"333 710 OFFCURVE",
"267 710 CURVE SMOOTH",
"119 710 OFFCURVE",
"49 634 OFFCURVE",
"49 516 CURVE SMOOTH",
"49 417 OFFCURVE",
"98 356 OFFCURVE",
"198 333 CURVE SMOOTH",
"323 304 LINE SMOOTH",
"380 291 OFFCURVE",
"422 261 OFFCURVE",
"422 195 CURVE SMOOTH",
"422 101 OFFCURVE",
"337 78 OFFCURVE",
"252 78 CURVE SMOOTH",
"196 78 OFFCURVE",
"143 88 OFFCURVE",
"96 123 CURVE",
"122 94 LINE",
"88 206 LINE",
"40 199 LINE",
"49 51 LINE",
"95 12 OFFCURVE",
"169 -10 OFFCURVE",
"246 -10 CURVE SMOOTH"
);
}
);
userData = {
com.hugojourdan.ColorFlow = {
"0" = 0;
"1" = 0;
"10" = 0;
"11" = 0;
"2" = 0;
"3" = 0;
"4" = 0;
"5" = 0;
"6" = 0;
"7" = 0;
"8" = 0;
"9" = 0;
};
};
vertWidth = 750;
width = 522;
},
{
anchors = (
{
name = bottom;
position = "{289, 0}";
},
{
name = cedilla;
position = "{287, 0}";
},
{
name = top;
position = "{289, 700}";
}
);
background = {
paths = (
{
closed = 1;
nodes = (
"441 -10 OFFCURVE",
"534 82 OFFCURVE",
"534 217 CURVE SMOOTH",
"534 328 OFFCURVE",
"471 395 OFFCURVE",
"366 420 CURVE SMOOTH",
"230 452 LINE SMOOTH",
"185 463 OFFCURVE",
"167 477 OFFCURVE",
"167 502 CURVE SMOOTH",
"167 541 OFFCURVE",
"215 552 OFFCURVE",
"281 552 CURVE SMOOTH",
"353 552 OFFCURVE",
"382 539 OFFCURVE",
"408 524 CURVE",
"369 571 LINE",
"406 480 LINE",
"495 497 LINE",
"485 665 LINE",
"438 696 OFFCURVE",
"371 710 OFFCURVE",
"304 710 CURVE SMOOTH",
"127 710 OFFCURVE",
"53 614 OFFCURVE",
"53 494 CURVE SMOOTH",
"53 384 OFFCURVE",
"115 320 OFFCURVE",
"234 292 CURVE SMOOTH",
"354 264 LINE SMOOTH",
"397 254 OFFCURVE",
"420 233 OFFCURVE",
"420 205 CURVE SMOOTH",
"420 156 OFFCURVE",
"350 148 OFFCURVE",
"286 148 CURVE SMOOTH",
"207 148 OFFCURVE",
"154 160 OFFCURVE",
"96 202 CURVE",
"182 84 LINE",
"130 233 LINE",
"41 216 LINE",
"57 44 LINE",
"107 11 OFFCURVE",
"186 -10 OFFCURVE",
"269 -10 CURVE SMOOTH"
);
}
);
};
layerId = "3CA830F5-1E41-4F35-86DC-34C8110F5ED1";
paths = (
{
closed = 1;
nodes = (
"441 -10 OFFCURVE",
"534 87 OFFCURVE",
"534 223 CURVE SMOOTH",
"534 333 OFFCURVE",
"473 403 OFFCURVE",
"366 420 CURVE SMOOTH",
"230 442 LINE SMOOTH",
"183 450 OFFCURVE",
"167 469 OFFCURVE",
"167 495 CURVE SMOOTH",
"167 539 OFFCURVE",
"215 552 OFFCURVE",
"284 552 CURVE SMOOTH",
"352 552 OFFCURVE",
"382 539 OFFCURVE",
"408 524 CURVE",
"369 571 LINE",
"406 480 LINE",
"495 497 LINE",
"485 665 LINE",
"438 696 OFFCURVE",
"371 710 OFFCURVE",
"304 710 CURVE SMOOTH",
"127 710 OFFCURVE",
"53 610 OFFCURVE",
"53 486 CURVE SMOOTH",
"53 375 OFFCURVE",
"113 300 OFFCURVE",
"234 282 CURVE SMOOTH",
"354 264 LINE SMOOTH",
"398 257 OFFCURVE",
"420 237 OFFCURVE",
"420 210 CURVE SMOOTH",
"420 168 OFFCURVE",
"369 148 OFFCURVE",
"281 148 CURVE SMOOTH",
"207 148 OFFCURVE",
"150 162 OFFCURVE",
"96 202 CURVE",
"182 84 LINE",
"130 233 LINE",
"41 216 LINE",
"57 44 LINE",
"107 11 OFFCURVE",
"187 -10 OFFCURVE",
"268 -10 CURVE SMOOTH"
);
}
);
userData = {
com.hugojourdan.ColorFlow = {
"0" = 0;
"1" = 0;
"10" = 0;
"11" = 0;
"2" = 0;
"3" = 0;
"4" = 0;
"5" = 0;
"6" = 0;
"7" = 0;
"8" = 0;
"9" = 0;
};
};
vertWidth = 750;
width = 577;
},
{
anchors = (
{
name = bottom;
position = "{261, 0}";
},
{
name = cedilla;
position = "{251, 0}";
},
{
name = top;
position = "{261, 700}";
}
);
associatedMasterId = "7F56E5C1-F146-4434-90E4-DA1B70285074";
layerId = "5F365042-876E-4A9E-94AE-AA936F50083B";
name = "29 Jan 23 16.52";
paths = (
{
closed = 1;
nodes = (
"386 -10 OFFCURVE",
"480 63 OFFCURVE",
"480 201 CURVE SMOOTH",
"480 323 OFFCURVE",
"407 373 OFFCURVE",
"326 396 CURVE SMOOTH",
"196 433 LINE SMOOTH",
"139 449 OFFCURVE",
"117 477 OFFCURVE",
"117 521 CURVE SMOOTH",
"117 593 OFFCURVE",
"174 622 OFFCURVE",
"266 622 CURVE SMOOTH",
"326 622 OFFCURVE",
"372 610 OFFCURVE",
"396 592 CURVE",
"436 670 LINE",
"398 695 OFFCURVE",
"333 710 OFFCURVE",
"268 710 CURVE SMOOTH",
"125 710 OFFCURVE",
"59 633 OFFCURVE",
"59 517 CURVE SMOOTH",
"59 421 OFFCURVE",
"104 362 OFFCURVE",
"198 335 CURVE SMOOTH",
"323 299 LINE SMOOTH",
"380 283 OFFCURVE",
"422 257 OFFCURVE",
"422 194 CURVE SMOOTH",
"422 101 OFFCURVE",
"336 78 OFFCURVE",
"252 78 CURVE SMOOTH",
"191 78 OFFCURVE",
"135 90 OFFCURVE",
"85 132 CURVE",
"49 51 LINE",
"95 12 OFFCURVE",
"169 -10 OFFCURVE",
"246 -10 CURVE SMOOTH"
);
},
{
closed = 1;
nodes = (
"125 84 LINE",
"88 206 LINE",
"40 199 LINE",
"49 51 LINE"
);
},
{
closed = 1;
nodes = (
"445 537 LINE",
"436 670 LINE",
"362 614 LINE",
"397 530 LINE"
);
}
);
vertWidth = 750;
width = 522;
}
);
leftKerningGroup = S;
rightKerningGroup = S;
unicode = 0053;
userData = {
KernOnName = S;
};
},
{
glyphname = Germandbls;
lastChange = "2025-01-05 09:40:56 +0000";
layers = (
{
background = {
paths = (
{
closed = 1;
nodes = (
"116 0 LINE",
"116 440 LINE SMOOTH",
"116 630 OFFCURVE",
"191 677 OFFCURVE",
"291 677 CURVE SMOOTH",
"355 677 OFFCURVE",
"411 658 OFFCURVE",
"443 617 CURVE",
"454 631 LINE",
"420 680 OFFCURVE",
"363 705 OFFCURVE",
"293 705 CURVE SMOOTH",
"185 705 OFFCURVE",
"100 646 OFFCURVE",
"100 440 CURVE SMOOTH",
"100 0 LINE"
);
},
{
closed = 1;
nodes = (
"274 33 LINE",
"249 164 LINE",
"230 162 LINE",
"239 49 LINE"
);
},
{
closed = 1;
nodes = (
"480 -5 OFFCURVE",
"535 59 OFFCURVE",
"535 151 CURVE SMOOTH",
"535 257 OFFCURVE",
"464 293 OFFCURVE",
"408 323 CURVE SMOOTH",
"334 363 OFFCURVE",
"305 399 OFFCURVE",
"305 469 CURVE SMOOTH",
"305 576 OFFCURVE",
"371 611 OFFCURVE",
"443 617 CURVE",
"444 623 LINE",
"437 630 LINE",
"367 629 OFFCURVE",
"287 586 OFFCURVE",
"287 469 CURVE SMOOTH",
"287 383 OFFCURVE",
"329 346 OFFCURVE",
"396 309 CURVE SMOOTH",
"462 272 OFFCURVE",
"517 244 OFFCURVE",
"517 151 CURVE SMOOTH",
"517 55 OFFCURVE",
"455 23 OFFCURVE",
"382 23 CURVE SMOOTH",
"335 23 OFFCURVE",
"292 37 OFFCURVE",
"255 73 CURVE",
"239 49 LINE",
"277 18 OFFCURVE",
"322 -5 OFFCURVE",
"382 -5 CURVE SMOOTH"
);
}
);
};
layerId = master01;
paths = (
{
closed = 1;
nodes = (
"495 -5 OFFCURVE",
"555 77 OFFCURVE",
"555 197 CURVE SMOOTH",
"555 339 OFFCURVE",
"465 403 OFFCURVE",
"303 413 CURVE",
"305 409 LINE",
"536 685 LINE",
"536 700 LINE",
"44 700 LINE",
"44 684 LINE",
"110 656 LINE",
"110 44 LINE",
"44 16 LINE",
"44 0 LINE",
"126 0 LINE",
"126 684 LINE",
"120 675 LINE",
"513 675 LINE",
"513 681 LINE",
"286 409 LINE",
"286 391 LINE",
"462 381 OFFCURVE",
"537 322 OFFCURVE",
"537 195 CURVE SMOOTH",
"537 67 OFFCURVE",
"466 23 OFFCURVE",
"376 23 CURVE SMOOTH",
"337 23 OFFCURVE",
"295 31 OFFCURVE",
"258 53 CURVE",
"280 30 LINE",
"251 126 LINE",
"232 124 LINE",
"239 31 LINE",
"276 6 OFFCURVE",
"324 -5 OFFCURVE",
"375 -5 CURVE SMOOTH"
);
}
);
userData = {
com.hugojourdan.ColorFlow = {
"0" = 0;
"1" = 0;
"10" = 0;
"11" = 0;
"2" = 0;
"3" = 0;
"4" = 0;
"5" = 0;
"6" = 0;
"7" = 0;
"8" = 0;
"9" = 0;
};
};
width = 608;
},
{
background = {
paths = (
{
closed = 1;
nodes = (
"167 0 LINE",
"167 440 LINE SMOOTH",
"167 587 OFFCURVE",
"227 622 OFFCURVE",
"322 622 CURVE SMOOTH",
"392 622 OFFCURVE",
"436 605 OFFCURVE",
"466 567 CURVE",
"491 616 LINE",
"455 675 OFFCURVE",
"409 710 OFFCURVE",
"322 710 CURVE SMOOTH",
"199 710 OFFCURVE",
"112 640 OFFCURVE",
"112 440 CURVE SMOOTH",
"112 0 LINE"
);
},
{
closed = 1;
nodes = (
"345 74 LINE",
"308 176 LINE",
"260 169 LINE",
"269 41 LINE"
);
},
{
closed = 1;
nodes = (
"531 -10 OFFCURVE",
"587 65 OFFCURVE",
"587 162 CURVE SMOOTH",
"587 273 OFFCURVE",
"517 314 OFFCURVE",
"444 346 CURVE SMOOTH",
"377 375 OFFCURVE",
"357 404 OFFCURVE",
"357 453 CURVE SMOOTH",
"357 528 OFFCURVE",
"404 549 OFFCURVE",
"466 567 CURVE",
"455 591 LINE",
"436 600 LINE",
"363 589 OFFCURVE",
"299 547 OFFCURVE",
"299 446 CURVE SMOOTH",
"299 358 OFFCURVE",
"348 326 OFFCURVE",
"419 294 CURVE SMOOTH",
"489 262 OFFCURVE",
"529 239 OFFCURVE",
"529 171 CURVE SMOOTH",
"529 102 OFFCURVE",
"486 78 OFFCURVE",
"425 78 CURVE SMOOTH",
"384 78 OFFCURVE",
"339 89 OFFCURVE",
"305 122 CURVE",
"269 41 LINE",
"308 12 OFFCURVE",
"359 -10 OFFCURVE",
"420 -10 CURVE SMOOTH"
);
}
);
};
layerId = "7F56E5C1-F146-4434-90E4-DA1B70285074";
paths = (
{
closed = 1;
nodes = (
"525 -10 OFFCURVE",
"587 77 OFFCURVE",
"587 192 CURVE SMOOTH",
"587 323 OFFCURVE",
"502 398 OFFCURVE",
"364 414 CURVE",
"353 387 LINE",
"551 635 LINE",
"551 700 LINE",
"35 700 LINE",
"35 642 LINE",
"112 619 LINE",
"112 79 LINE",
"35 58 LINE",
"35 0 LINE",
"167 0 LINE",
"167 645 LINE",
"146 615 LINE",
"491 615 LINE",
"506 658 LINE",
"309 411 LINE",
"309 334 LINE",
"480 322 OFFCURVE",
"529 283 OFFCURVE",
"529 199 CURVE SMOOTH",
"529 115 OFFCURVE",
"481 78 OFFCURVE",
"409 78 CURVE SMOOTH",
"382 78 OFFCURVE",
"349 84 OFFCURVE",
"318 101 CURVE",
"343 69 LINE",
"308 176 LINE",
"260 169 LINE",
"269 26 LINE",
"305 3 OFFCURVE",
"354 -10 OFFCURVE",
"402 -10 CURVE SMOOTH"
);
}
);
userData = {
com.hugojourdan.ColorFlow = {
"0" = 0;
"1" = 0;
"10" = 0;
"11" = 0;
"2" = 0;
"3" = 0;
"4" = 0;
"5" = 0;
"6" = 0;
"7" = 0;
"8" = 0;
"9" = 0;
};
};
width = 631;
},
{
background = {
paths = (
{
closed = 1;
nodes = (
"553 -10 OFFCURVE",
"626 73 OFFCURVE",
"626 199 CURVE SMOOTH",
"626 321 OFFCURVE",
"557 384 OFFCURVE",
"420 402 CURVE",
"434 374 LINE",
"595 575 LINE",
"595 700 LINE",
"132 700 LINE",
"30 700 LINE",
"30 562 LINE",
"98 531 LINE",
"98 169 LINE",
"30 138 LINE",
"30 0 LINE",
"132 0 LINE",
"208 0 LINE",
"208 573 LINE",
"180 535 LINE",
"481 535 LINE",
"481 594 LINE",
"322 392 LINE",
"322 315 LINE",
"465 310 OFFCURVE",
"513 276 OFFCURVE",
"513 220 CURVE SMOOTH",
"513 169 OFFCURVE",
"473 148 OFFCURVE",
"426 148 CURVE SMOOTH",
"403 148 OFFCURVE",
"374 153 OFFCURVE",
"352 166 CURVE",
"379 136 LINE",
"349 216 LINE",
"261 199 LINE",
"270 28 LINE",
"309 6 OFFCURVE",
"362 -10 OFFCURVE",
"418 -10 CURVE SMOOTH"
);
}
);
};
layerId = "3CA830F5-1E41-4F35-86DC-34C8110F5ED1";
paths = (
{
closed = 1;
nodes = (
"553 -10 OFFCURVE",
"626 78 OFFCURVE",
"626 211 CURVE SMOOTH",
"626 344 OFFCURVE",
"557 412 OFFCURVE",
"420 432 CURVE",
"424 374 LINE",
"595 575 LINE",
"595 700 LINE",
"30 700 LINE",
"30 562 LINE",
"98 531 LINE",
"98 169 LINE",
"30 138 LINE",
"30 0 LINE",
"208 0 LINE",
"208 573 LINE",
"180 535 LINE",
"481 535 LINE",
"491 594 LINE",
"322 392 LINE",
"322 295 LINE",
"465 291 OFFCURVE",
"513 261 OFFCURVE",
"513 212 CURVE SMOOTH",
"513 167 OFFCURVE",
"473 148 OFFCURVE",
"426 148 CURVE SMOOTH",
"403 148 OFFCURVE",
"374 153 OFFCURVE",
"352 166 CURVE",
"379 136 LINE",
"349 216 LINE",
"261 199 LINE",
"270 28 LINE",
"309 6 OFFCURVE",
"362 -10 OFFCURVE",
"418 -10 CURVE SMOOTH"
);
}
);
userData = {
com.hugojourdan.ColorFlow = {
"0" = 0;
"1" = 0;
"10" = 0;
"11" = 0;
"2" = 0;
"3" = 0;
"4" = 0;
"5" = 0;
"6" = 0;
"7" = 0;
"8" = 0;
"9" = 0;
};
};
width = 663;
},
{
anchors = (
{
name = left;
position = "{102, 79}";
}
);
associatedMasterId = "7F56E5C1-F146-4434-90E4-DA1B70285074";
layerId = "9E927096-7934-4D34-A64D-F183B64ACC15";
name = "Apr 18 19, 13:39";
paths = (
{
closed = 1;
nodes = (
"157 0 LINE",
"157 440 LINE SMOOTH",
"157 587 OFFCURVE",
"219 622 OFFCURVE",
"314 622 CURVE SMOOTH",
"379 622 OFFCURVE",
"417 605 OFFCURVE",
"445 567 CURVE",
"481 616 LINE",
"445 672 OFFCURVE",
"396 710 OFFCURVE",
"309 710 CURVE SMOOTH",
"191 710 OFFCURVE",
"102 640 OFFCURVE",
"102 440 CURVE SMOOTH",
"102 0 LINE"
);
},
{
closed = 1;
nodes = (
"335 74 LINE",
"298 176 LINE",
"250 169 LINE",
"259 41 LINE"
);
},
{
closed = 1;
nodes = (
"515 -10 OFFCURVE",
"577 61 OFFCURVE",
"577 171 CURVE SMOOTH",
"577 284 OFFCURVE",
"512 324 OFFCURVE",
"439 361 CURVE SMOOTH",
"384 389 OFFCURVE",
"347 409 OFFCURVE",
"347 469 CURVE SMOOTH",
"347 529 OFFCURVE",
"385 560 OFFCURVE",
"445 567 CURVE",
"445 591 LINE",
"418 600 LINE",
"349 589 OFFCURVE",
"289 547 OFFCURVE",
"289 442 CURVE SMOOTH",
"289 346 OFFCURVE",
"338 310 OFFCURVE",
"409 274 CURVE SMOOTH",
"468 243 OFFCURVE",
"519 222 OFFCURVE",
"519 160 CURVE SMOOTH",
"519 102 OFFCURVE",
"476 78 OFFCURVE",
"415 78 CURVE SMOOTH",
"374 78 OFFCURVE",
"329 89 OFFCURVE",
"295 122 CURVE",
"259 41 LINE",
"298 12 OFFCURVE",
"343 -10 OFFCURVE",
"404 -10 CURVE SMOOTH"
);
},
{
closed = 0;
nodes = (
"102 79 LINE",
"25 58 LINE",
"25 0 LINE",
"132 0 LINE"
);
}
);
width = 602;
}
);
leftKerningGroup = H;
leftMetricsKey = H;
rightKerningGroup = Germandbls;
unicode = 1E9E;
},
{
glyphname = T;
lastChange = "2025-01-05 11:11:30 +0000";
layers = (
{
anchors = (
{
name = bottom;
position = "{282, 0}";
},
{
name = cedilla;
position = "{282, 0}";
},
{
name = center;
position = "{282, 350}";
},
{
name = top;
position = "{282, 700}";
}
);
layerId = master01;
paths = (
{
closed = 1;
nodes = (
"79 683 LINE",
"60 675 LINE",
"506 675 LINE",
"486 685 LINE",
"530 564 LINE",
"546 567 LINE",
"531 700 LINE",
"35 700 LINE",
"20 565 LINE",
"36 564 LINE"
);
},
{
closed = 1;
nodes = (
"354 0 LINE",
"354 16 LINE",
"288 44 LINE",
"288 679 LINE",
"272 679 LINE",
"272 44 LINE",
"206 16 LINE",
"206 0 LINE"
);
}
);
userData = {
com.hugojourdan.ColorFlow = {
"0" = 0;
"1" = 0;
"10" = 0;
"11" = 0;
"2" = 0;
"3" = 0;
"4" = 0;
"5" = 0;
"6" = 0;
"7" = 0;
"8" = 0;
"9" = 0;
};
};
vertWidth = 750;
width = 566;
},
{
anchors = (
{
name = bottom;
position = "{278, 0}";
},
{
name = cedilla;
position = "{278, 0}";
},
{
name = center;
position = "{278, 350}";
},
{
name = top;
position = "{278, 700}";
}
);
layerId = "7F56E5C1-F146-4434-90E4-DA1B70285074";
paths = (
{
closed = 1;
nodes = (
"92 638 LINE",
"58 615 LINE",
"498 615 LINE",
"464 638 LINE",
"499 510 LINE",
"541 517 LINE",
"526 700 LINE",
"30 700 LINE",
"15 517 LINE",
"57 510 LINE"
);
},
{
closed = 1;
nodes = (
"380 0 LINE",
"380 58 LINE",
"303 81 LINE",
"303 629 LINE",
"248 629 LINE",
"248 79 LINE",
"171 58 LINE",
"171 0 LINE"
);
}
);
userData = {
com.hugojourdan.ColorFlow = {
"0" = 0;
"1" = 0;
"10" = 0;
"11" = 0;
"2" = 0;
"3" = 0;
"4" = 0;
"5" = 0;
"6" = 0;
"7" = 0;
"8" = 0;
"9" = 0;
};
};
vertWidth = 750;
width = 556;
},
{
anchors = (
{
name = bottom;
position = "{301, 0}";
},
{
name = cedilla;
position = "{301, 0}";
},
{
name = center;
position = "{301, 350}";
},
{
name = top;
position = "{301, 700}";
}
);
layerId = "3CA830F5-1E41-4F35-86DC-34C8110F5ED1";
paths = (
{
closed = 1;
nodes = (
"139 554 LINE",
"88 535 LINE",
"513 535 LINE",
"462 554 LINE",
"497 446 LINE",
"586 460 LINE",
"571 700 LINE",
"30 700 LINE",
"15 460 LINE",
"104 446 LINE"
);
},
{
closed = 1;
nodes = (
"424 0 LINE",
"424 138 LINE",
"356 169 LINE",
"356 551 LINE",
"246 551 LINE",
"246 169 LINE",
"178 138 LINE",
"178 0 LINE"
);
}
);
userData = {
com.hugojourdan.ColorFlow = {
"0" = 0;
"1" = 0;
"10" = 0;
"11" = 0;
"2" = 0;
"3" = 0;
"4" = 0;
"5" = 0;
"6" = 0;
"7" = 0;
"8" = 0;
"9" = 0;
};
};
vertWidth = 750;
width = 601;
}
);
leftKerningGroup = T;
rightKerningGroup = T;
rightMetricsKey = "=|";
unicode = 0054;
userData = {
KernOnName = T;
};
},
{
glyphname = U;
lastChange = "2025-01-05 11:07:05 +0000";
layers = (
{
anchors = (
{
name = bottom;
position = "{317, 0}";
},
{
name = ogonek;
position = "{385, 0}";
},
{
name = top;
position = "{317, 700}";
},
{
name = topright;
position = "{614, 700}";
}
);
layerId = master01;
paths = (
{
closed = 1;
nodes = (
"454 -5 OFFCURVE",
"538 59 OFFCURVE",
"538 260 CURVE SMOOTH",
"538 656 LINE",
"604 684 LINE",
"604 700 LINE",
"456 700 LINE",
"456 684 LINE",
"522 656 LINE",
"522 260 LINE SMOOTH",
"522 69 OFFCURVE",
"443 23 OFFCURVE",
"315 23 CURVE SMOOTH",
"187 23 OFFCURVE",
"112 69 OFFCURVE",
"112 260 CURVE SMOOTH",
"112 656 LINE",
"178 684 LINE",
"178 700 LINE",
"30 700 LINE",
"30 684 LINE",
"96 656 LINE",
"96 260 LINE SMOOTH",
"96 59 OFFCURVE",
"175 -5 OFFCURVE",
"315 -5 CURVE SMOOTH"
);
}
);
userData = {
com.hugojourdan.ColorFlow = {
"0" = 0;
"1" = 0;
"10" = 0;
"11" = 0;
"2" = 0;
"3" = 0;
"4" = 0;
"5" = 0;
"6" = 0;
"7" = 0;
"8" = 0;
"9" = 0;
};
com.typemytype.robofont.guides = (
{
isGlobal = 0;
magnetic = 5;
x = 0;
y = 280;
}
);
};
vertWidth = 750;
width = 634;
},
{
anchors = (
{
name = bottom;
position = "{337, 0}";
},
{
name = ogonek;
position = "{419, 0}";
},
{
name = top;
position = "{337, 700}";
},
{
name = topright;
position = "{653, 700}";
}
);
layerId = "7F56E5C1-F146-4434-90E4-DA1B70285074";
paths = (
{
closed = 1;
nodes = (
"483 -10 OFFCURVE",
"571 60 OFFCURVE",
"571 260 CURVE SMOOTH",
"571 621 LINE",
"648 642 LINE",
"648 700 LINE",
"439 700 LINE",
"439 642 LINE",
"516 619 LINE",
"516 260 LINE SMOOTH",
"516 113 OFFCURVE",
"452 78 OFFCURVE",
"336 78 CURVE SMOOTH",
"219 78 OFFCURVE",
"157 113 OFFCURVE",
"157 260 CURVE SMOOTH",
"157 621 LINE",
"234 642 LINE",
"234 700 LINE",
"25 700 LINE",
"25 642 LINE",
"102 619 LINE",
"102 260 LINE SMOOTH",
"102 60 OFFCURVE",
"188 -10 OFFCURVE",
"336 -10 CURVE SMOOTH"
);
}
);
userData = {
com.hugojourdan.ColorFlow = {
"0" = 0;
"1" = 0;
"10" = 0;
"11" = 0;
"2" = 0;
"3" = 0;
"4" = 0;
"5" = 0;
"6" = 0;
"7" = 0;
"8" = 0;
"9" = 0;
};
};
vertWidth = 750;
width = 673;
},
{
anchors = (
{
name = bottom;
position = "{350, 0}";
},
{
name = ogonek;
position = "{442, 0}";
},
{
name = top;
position = "{350, 700}";
},
{
name = topright;
position = "{680, 700}";
}
);
layerId = "3CA830F5-1E41-4F35-86DC-34C8110F5ED1";
paths = (
{
closed = 1;
nodes = (
"513 -10 OFFCURVE",
"612 68 OFFCURVE",
"612 290 CURVE SMOOTH",
"612 531 LINE",
"680 562 LINE",
"680 700 LINE",
"434 700 LINE",
"434 562 LINE",
"502 531 LINE",
"502 310 LINE SMOOTH",
"502 199 OFFCURVE",
"446 158 OFFCURVE",
"348 158 CURVE SMOOTH",
"249 158 OFFCURVE",
"198 199 OFFCURVE",
"198 310 CURVE SMOOTH",
"198 531 LINE",
"266 562 LINE",
"266 700 LINE",
"20 700 LINE",
"20 562 LINE",
"88 531 LINE",
"88 290 LINE SMOOTH",
"88 68 OFFCURVE",
"184 -10 OFFCURVE",
"348 -10 CURVE SMOOTH"
);
}
);
userData = {
com.hugojourdan.ColorFlow = {
"0" = 0;
"1" = 0;
"10" = 0;
"11" = 0;
"2" = 0;
"3" = 0;
"4" = 0;
"5" = 0;
"6" = 0;
"7" = 0;
"8" = 0;
"9" = 0;
};
};
vertWidth = 750;
width = 700;
}
);
leftKerningGroup = U;
rightKerningGroup = U;
rightMetricsKey = "=|";
unicode = 0055;
userData = {
KernOnName = U;
};
},
{
glyphname = Uhorn;
lastChange = "2025-01-05 08:41:39 +0000";
layers = (
{
anchors = (
{
name = bottom;
position = "{317, 0}";
},
{
name = top;
position = "{317, 700}";
}
);
background = {
components = (
{
name = U;
},
{
name = horncomb;
transform = "{1, 0, 0, 1, 558, 205}";
}
);
};
layerId = master01;
paths = (
{
closed = 1;
nodes = (
"454 -5 OFFCURVE",
"538 59 OFFCURVE",
"538 260 CURVE SMOOTH",
"538 690 LINE",
"532 685 LINE",
"614 685 OFFCURVE",
"674 717 OFFCURVE",
"662 837 CURVE",
"638 842 LINE",
"630 840 LINE",
"644 718 OFFCURVE",
"597 700 OFFCURVE",
"538 700 CURVE SMOOTH {name = \"🧨\";}",
"456 700 LINE",
"456 684 LINE",
"522 656 LINE",
"522 260 LINE SMOOTH",
"522 69 OFFCURVE",
"443 23 OFFCURVE",
"315 23 CURVE SMOOTH",
"186 23 OFFCURVE",
"112 69 OFFCURVE",
"112 260 CURVE SMOOTH",
"112 656 LINE",
"178 684 LINE",
"178 700 LINE",
"30 700 LINE",
"30 684 LINE",
"96 656 LINE",
"96 260 LINE SMOOTH",
"96 59 OFFCURVE",
"175 -5 OFFCURVE",
"315 -5 CURVE SMOOTH"
);
}
);
userData = {
com.hugojourdan.ColorFlow = {
"0" = 0;
"1" = 0;
"10" = 0;
"11" = 0;
"2" = 0;
"3" = 0;
"4" = 0;
"5" = 0;
"6" = 0;
"7" = 0;
"8" = 0;
"9" = 0;
};
};
width = 654;
},
{
anchors = (
{
name = bottom;
position = "{337, 0}";
},
{
name = top;
position = "{337, 700}";
}
);
background = {
components = (
{
name = U;
},
{
name = horncomb;
transform = "{1, 0, 0, 1, 598, 200}";
}
);
};
layerId = "7F56E5C1-F146-4434-90E4-DA1B70285074";
paths = (
{
closed = 1;
nodes = (
"483 -10 OFFCURVE",
"571 60 OFFCURVE",
"571 260 CURVE SMOOTH",
"571 680 LINE",
"551 664 LINE",
"677 664 OFFCURVE",
"722 715 OFFCURVE",
"722 820 CURVE",
"677 847 LINE",
"641 837 LINE",
"646 744 OFFCURVE",
"630 700 OFFCURVE",
"548 700 CURVE SMOOTH {name = \"🧨\";}",
"439 700 LINE",
"439 642 LINE",
"516 619 LINE",
"516 260 LINE SMOOTH",
"516 113 OFFCURVE",
"452 78 OFFCURVE",
"336 78 CURVE SMOOTH",
"219 78 OFFCURVE",
"157 113 OFFCURVE",
"157 260 CURVE SMOOTH",
"157 621 LINE",
"234 642 LINE",
"234 700 LINE",
"25 700 LINE",
"25 642 LINE",
"102 619 LINE",
"102 260 LINE SMOOTH",
"102 60 OFFCURVE",
"188 -10 OFFCURVE",
"336 -10 CURVE SMOOTH"
);
}
);
userData = {
com.hugojourdan.ColorFlow = {
"0" = 0;
"1" = 0;
"10" = 0;
"11" = 0;
"2" = 0;
"3" = 0;
"4" = 0;
"5" = 0;
"6" = 0;
"7" = 0;
"8" = 0;
"9" = 0;
};
};
width = 713;
},
{
anchors = (
{
name = bottom;
position = "{350, 0}";
},
{
name = top;
position = "{350, 700}";
}
);
background = {
components = (
{
name = U;
},
{
name = horncomb;
transform = "{1, 0, 0, 1, 638, 190}";
}
);
};
layerId = "3CA830F5-1E41-4F35-86DC-34C8110F5ED1";
paths = (
{
closed = 1;
nodes = (
"513 -10 OFFCURVE",
"612 68 OFFCURVE",
"612 290 CURVE SMOOTH",
"612 677 LINE",
"566 639 LINE",
"708 639 OFFCURVE",
"767 711 OFFCURVE",
"767 826 CURVE",
"682 853 LINE",
"646 843 LINE",
"651 757 OFFCURVE",
"639 700 OFFCURVE",
"553 700 CURVE SMOOTH {name = \"🧨\";}",
"434 700 LINE",
"434 562 LINE",
"502 531 LINE",
"502 310 LINE SMOOTH",
"502 199 OFFCURVE",
"446 158 OFFCURVE",
"348 158 CURVE SMOOTH",
"249 158 OFFCURVE",
"198 199 OFFCURVE",
"198 310 CURVE SMOOTH",
"198 531 LINE",
"266 562 LINE",
"266 700 LINE",
"20 700 LINE",
"20 562 LINE",
"88 531 LINE",
"88 290 LINE SMOOTH",
"88 68 OFFCURVE",
"184 -10 OFFCURVE",
"348 -10 CURVE SMOOTH"
);
}
);
userData = {
com.hugojourdan.ColorFlow = {
"0" = 0;
"1" = 0;
"10" = 0;
"11" = 0;
"2" = 0;
"3" = 0;
"4" = 0;
"5" = 0;
"6" = 0;
"7" = 0;
"8" = 0;
"9" = 0;
};
};
width = 730;
}
);
leftKerningGroup = U;
leftMetricsKey = U;
rightKerningGroup = Uhorn;
unicode = 01AF;
},
{
glyphname = V;
lastChange = "2025-01-05 11:13:53 +0000";
layers = (
{
anchors = (
{
name = bottom;
position = "{303, 0}";
},
{
name = top;
position = "{303, 700}";
}
);
background = {
paths = (
{
closed = 1;
nodes = (
"309 -5 LINE {name = \"🧨\";}",
"533 666 LINE",
"599 684 LINE",
"599 700 LINE",
"449 700 LINE",
"449 684 LINE",
"515 666 LINE",
"314 56 LINE",
"328 68 LINE",
"273 68 LINE",
"287 57 LINE",
"86 666 LINE",
"152 684 LINE",
"152 700 LINE",
"2 700 LINE",
"2 684 LINE",
"68 666 LINE",
"293 -5 LINE {name = \"🧨\";}"
);
}
);
};
layerId = master01;
paths = (
{
closed = 1;
nodes = (
"309 -5 LINE {name = \"🧨\";}",
"530 656 LINE",
"599 684 LINE",
"599 700 LINE",
"449 700 LINE",
"449 684 LINE",
"512 656 LINE",
"314 56 LINE",
"328 68 LINE",
"273 68 LINE",
"287 57 LINE",
"89 656 LINE",
"152 684 LINE",
"152 700 LINE",
"2 700 LINE",
"2 684 LINE",
"71 656 LINE",
"293 -5 LINE {name = \"🧨\";}"
);
}
);
userData = {
com.hugojourdan.ColorFlow = {
"0" = 0;
"1" = 0;
"10" = 0;
"11" = 0;
"2" = 0;
"3" = 0;
"4" = 0;
"5" = 0;
"6" = 0;
"7" = 0;
"8" = 0;
"9" = 0;
};
com.typemytype.robofont.guides = (
{
isGlobal = 0;
magnetic = 5;
x = 0;
y = 629;
}
);
};
width = 601;
},
{
anchors = (
{
name = bottom;
position = "{332, 0}";
},
{
name = top;
position = "{332, 700}";
}
);
background = {
paths = (
{
closed = 1;
nodes = (
"363 -5 LINE",
"594 648 LINE",
"566 611 LINE",
"658 642 LINE",
"658 700 LINE",
"471 700 LINE",
"471 643 LINE",
"543 612 LINE",
"531 642 LINE",
"308 -5 LINE"
);
},
{
closed = 1;
nodes = (
"365 41 LINE",
"384 126 LINE",
"277 126 LINE",
"298 41 LINE"
);
},
{
closed = 1;
nodes = (
"355 -5 LINE",
"132 642 LINE",
"120 612 LINE",
"192 643 LINE",
"192 700 LINE",
"5 700 LINE",
"5 642 LINE",
"97 611 LINE",
"69 648 LINE",
"300 -5 LINE"
);
}
);
};
layerId = "7F56E5C1-F146-4434-90E4-DA1B70285074";
paths = (
{
closed = 1;
nodes = (
"358 -5 LINE {name = \"🧨\";}",
"584 619 LINE",
"661 642 LINE",
"661 700 LINE",
"451 700 LINE",
"451 642 LINE",
"528 621 LINE",
"346 104 LINE",
"381 126 LINE",
"291 126 LINE",
"318 103 LINE",
"136 619 LINE",
"202 642 LINE",
"202 700 LINE",
"2 700 LINE",
"2 642 LINE",
"79 621 LINE",
"305 -5 LINE {name = \"🧨\";}"
);
}
);
userData = {
com.hugojourdan.ColorFlow = {
"0" = 0;
"1" = 0;
"10" = 0;
"11" = 0;
"2" = 0;
"3" = 0;
"4" = 0;
"5" = 0;
"6" = 0;
"7" = 0;
"8" = 0;
"9" = 0;
};
com.typemytype.robofont.guides = (
{
isGlobal = 0;
magnetic = 5;
x = 0;
y = 629;
}
);
};
width = 663;
},
{
anchors = (
{
name = bottom;
position = "{340, 0}";
},
{
name = top;
position = "{340, 700}";
}
);
background = {
paths = (
{
closed = 1;
nodes = (
"417 -5 LINE",
"676 648 LINE",
"618 531 LINE",
"710 562 LINE",
"710 700 LINE",
"449 700 LINE",
"449 563 LINE",
"521 532 LINE",
"543 642 LINE",
"307 -5 LINE"
);
},
{
closed = 1;
nodes = (
"400 44 LINE",
"421 204 LINE",
"314 204 LINE",
"333 44 LINE"
);
},
{
closed = 1;
nodes = (
"412 -5 LINE",
"176 642 LINE",
"198 532 LINE",
"270 563 LINE",
"270 700 LINE",
"5 700 LINE",
"5 562 LINE",
"97 531 LINE",
"39 648 LINE",
"298 -5 LINE"
);
}
);
};
layerId = "3CA830F5-1E41-4F35-86DC-34C8110F5ED1";
paths = (
{
closed = 1;
nodes = (
"408 -5 LINE",
"599 531 LINE",
"667 562 LINE",
"667 700 LINE",
"412 700 LINE",
"412 562 LINE",
"480 531 LINE",
"357 163 LINE",
"390 186 LINE",
"286 186 LINE",
"323 163 LINE",
"199 531 LINE",
"267 562 LINE",
"267 700 LINE",
"12 700 LINE",
"12 562 LINE",
"80 531 LINE",
"271 -5 LINE"
);
}
);
userData = {
com.hugojourdan.ColorFlow = {
"0" = 0;
"1" = 0;
"10" = 0;
"11" = 0;
"2" = 0;
"3" = 0;
"4" = 0;
"5" = 0;
"6" = 0;
"7" = 0;
"8" = 0;
"9" = 0;
};
com.typemytype.robofont.guides = (
{
isGlobal = 0;
magnetic = 5;
x = 0;
y = 629;
}
);
};
width = 679;
}
);
leftKerningGroup = V;
rightKerningGroup = V;
rightMetricsKey = "=|";
unicode = 0056;
userData = {
KernOnName = V;
};
},
{
glyphname = W;
lastChange = "2025-01-05 11:04:40 +0000";
layers = (
{
anchors = (
{
name = bottom;
position = "{472, 0}";
},
{
name = top;
position = "{472, 700}";
}
);
background = {
paths = (
{
closed = 1;
nodes = (
"278 0 LINE",
"455 626 LINE",
"487 626 LINE",
"664 0 LINE",
"683 0 LINE",
"866 666 LINE",
"932 684 LINE",
"932 700 LINE",
"782 700 LINE",
"782 684 LINE",
"848 666 LINE",
"689 78 LINE",
"658 78 LINE",
"482 700 LINE",
"460 700 LINE",
"284 78 LINE",
"253 78 LINE",
"95 666 LINE",
"161 684 LINE",
"161 700 LINE",
"11 700 LINE",
"11 684 LINE",
"77 666 LINE",
"259 0 LINE"
);
}
);
};
layerId = master01;
paths = (
{
closed = 1;
nodes = (
"278 0 LINE",
"455 626 LINE",
"487 626 LINE",
"664 0 LINE",
"683 0 LINE",
"863 656 LINE",
"932 684 LINE",
"932 700 LINE",
"782 700 LINE",
"782 684 LINE",
"845 656 LINE",
"689 78 LINE",
"658 78 LINE",
"482 700 LINE",
"460 700 LINE",
"284 78 LINE",
"253 78 LINE",
"98 656 LINE",
"161 684 LINE",
"161 700 LINE",
"11 700 LINE",
"11 684 LINE",
"80 656 LINE",
"259 0 LINE"
);
}
);
userData = {
com.hugojourdan.ColorFlow = {
"0" = 0;
"1" = 0;
"10" = 0;
"11" = 0;
"2" = 0;
"3" = 0;
"4" = 0;
"5" = 0;
"6" = 0;
"7" = 0;
"8" = 0;
"9" = 0;
};
};
vertWidth = 750;
width = 943;
},
{
anchors = (
{
name = bottom;
position = "{494, 0}";
},
{
name = top;
position = "{494, 700}";
}
);
layerId = "7F56E5C1-F146-4434-90E4-DA1B70285074";
paths = (
{
closed = 1;
nodes = (
"312 -5 LINE",
"473 550 LINE",
"513 550 LINE",
"674 -5 LINE",
"740 -5 LINE",
"900 621 LINE",
"977 642 LINE",
"977 700 LINE",
"766 700 LINE",
"766 642 LINE",
"843 619 LINE",
"723 131 LINE",
"688 131 LINE",
"526 700 LINE",
"460 700 LINE",
"300 131 LINE",
"267 131 LINE",
"145 621 LINE",
"222 642 LINE",
"222 700 LINE",
"11 700 LINE",
"11 642 LINE",
"88 619 LINE",
"248 -5 LINE"
);
}
);
userData = {
com.hugojourdan.ColorFlow = {
"0" = 0;
"1" = 0;
"10" = 0;
"11" = 0;
"2" = 0;
"3" = 0;
"4" = 0;
"5" = 0;
"6" = 0;
"7" = 0;
"8" = 0;
"9" = 0;
};
};
vertWidth = 750;
width = 988;
},
{
anchors = (
{
name = bottom;
position = "{501, 0}";
},
{
name = top;
position = "{501, 700}";
}
);
layerId = "3CA830F5-1E41-4F35-86DC-34C8110F5ED1";
paths = (
{
closed = 1;
nodes = (
"347 0 LINE",
"483 460 LINE",
"520 460 LINE",
"653 0 LINE",
"797 0 LINE",
"927 531 LINE",
"995 562 LINE",
"995 700 LINE",
"743 700 LINE",
"743 562 LINE",
"811 531 LINE",
"736 209 LINE",
"704 209 LINE",
"564 700 LINE",
"439 700 LINE",
"296 209 LINE",
"264 209 LINE",
"191 531 LINE",
"259 562 LINE",
"259 700 LINE",
"5 700 LINE",
"5 562 LINE",
"73 531 LINE",
"201 0 LINE"
);
}
);
userData = {
com.hugojourdan.ColorFlow = {
"0" = 0;
"1" = 0;
"10" = 0;
"11" = 0;
"2" = 0;
"3" = 0;
"4" = 0;
"5" = 0;
"6" = 0;
"7" = 0;
"8" = 0;
"9" = 0;
};
};
vertWidth = 750;
width = 1000;
}
);
leftKerningGroup = W;
rightKerningGroup = W;
rightMetricsKey = "=|";
unicode = 0057;
userData = {
KernOnName = W;
};
},
{
glyphname = X;
lastChange = "2025-01-06 03:34:17 +0000";
layers = (
{
background = {
paths = (
{
closed = 1;
nodes = (
"594 0 LINE",
"594 14 LINE",
"527 37 LINE",
"537 27 LINE",
"315 356 LINE",
"311 360 LINE",
"101 669 LINE",
"101 662 LINE",
"159 686 LINE",
"159 700 LINE",
"22 700 LINE",
"22 686 LINE",
"92 663 LINE",
"80 670 LINE",
"300 346 LINE",
"305 341 LINE",
"515 30 LINE",
"517 38 LINE",
"456 14 LINE",
"456 0 LINE"
);
},
{
closed = 1;
nodes = (
"161 0 LINE",
"161 14 LINE",
"100 38 LINE",
"102 32 LINE",
"311 341 LINE",
"316 345 LINE",
"539 675 LINE",
"526 662 LINE",
"593 686 LINE",
"593 700 LINE",
"456 700 LINE",
"456 686 LINE",
"515 663 LINE",
"515 669 LINE",
"305 360 LINE",
"300 356 LINE",
"81 30 LINE",
"93 38 LINE",
"23 14 LINE",
"23 0 LINE"
);
}
);
};
layerId = master01;
paths = (
{
closed = 1;
nodes = (
"594 0 LINE",
"594 14 LINE",
"519 47 LINE",
"537 27 LINE",
"315 356 LINE",
"311 360 LINE",
"101 669 LINE",
"105 654 LINE",
"159 686 LINE",
"159 700 LINE",
"22 700 LINE",
"22 686 LINE",
"96 653 LINE",
"80 670 LINE",
"300 346 LINE",
"305 341 LINE",
"515 30 LINE",
"509 48 LINE",
"456 14 LINE",
"456 0 LINE"
);
},
{
closed = 1;
nodes = (
"161 0 LINE",
"161 14 LINE",
"104 48 LINE",
"102 32 LINE",
"311 341 LINE",
"316 345 LINE",
"539 675 LINE",
"520 652 LINE",
"593 686 LINE",
"593 700 LINE",
"456 700 LINE",
"456 686 LINE",
"509 653 LINE",
"515 669 LINE",
"305 360 LINE",
"300 356 LINE",
"81 30 LINE",
"97 48 LINE",
"23 14 LINE",
"23 0 LINE"
);
}
);
userData = {
com.hugojourdan.ColorFlow = {
"0" = 0;
"1" = 0;
"10" = 0;
"11" = 0;
"2" = 0;
"3" = 0;
"4" = 0;
"5" = 0;
"6" = 0;
"7" = 0;
"8" = 0;
"9" = 0;
};
};
vertWidth = 750;
width = 616;
},
{
layerId = "7F56E5C1-F146-4434-90E4-DA1B70285074";
paths = (
{
closed = 1;
nodes = (
"628 0 LINE",
"628 58 LINE",
"507 103 LINE",
"574 50 LINE",
"361 363 LINE",
"341 382 LINE",
"149 642 LINE",
"149 615 LINE",
"224 642 LINE",
"224 700 LINE",
"35 700 LINE",
"35 642 LINE",
"144 600 LINE",
"76 653 LINE",
"311 334 LINE",
"325 323 LINE",
"509 57 LINE",
"511 86 LINE",
"439 58 LINE",
"439 0 LINE"
);
},
{
closed = 1;
nodes = (
"224 0 LINE",
"224 58 LINE",
"153 87 LINE",
"156 59 LINE",
"342 323 LINE",
"349 329 LINE",
"587 652 LINE",
"519 600 LINE",
"628 642 LINE",
"628 700 LINE",
"442 700 LINE",
"442 642 LINE",
"515 614 LINE",
"518 644 LINE",
"320 374 LINE",
"307 362 LINE",
"102 70 LINE",
"136 95 LINE",
"35 58 LINE",
"35 0 LINE"
);
}
);
userData = {
com.hugojourdan.ColorFlow = {
"0" = 0;
"1" = 0;
"10" = 0;
"11" = 0;
"2" = 0;
"3" = 0;
"4" = 0;
"5" = 0;
"6" = 0;
"7" = 0;
"8" = 0;
"9" = 0;
};
};
vertWidth = 750;
width = 663;
},
{
layerId = "3CA830F5-1E41-4F35-86DC-34C8110F5ED1";
paths = (
{
closed = 1;
nodes = (
"620 0 LINE",
"620 138 LINE",
"502 176 LINE",
"574 130 LINE",
"374 373 LINE",
"339 405 LINE",
"191 581 LINE",
"177 532 LINE",
"276 562 LINE",
"276 700 LINE",
"34 700 LINE",
"34 562 LINE",
"138 529 LINE",
"68 575 LINE",
"275 330 LINE",
"303 306 LINE",
"459 116 LINE",
"474 170 LINE",
"378 138 LINE",
"378 0 LINE"
);
},
{
closed = 1;
nodes = (
"274 0 LINE",
"274 138 LINE",
"179 172 LINE",
"193 117 LINE",
"342 300 LINE",
"375 327 LINE",
"583 575 LINE",
"515 529 LINE",
"619 562 LINE",
"619 700 LINE",
"376 700 LINE",
"376 562 LINE",
"475 531 LINE",
"458 579 LINE",
"310 398 LINE",
"271 364 LINE",
"81 132 LINE",
"152 176 LINE",
"32 138 LINE",
"32 0 LINE"
);
}
);
userData = {
com.hugojourdan.ColorFlow = {
"0" = 0;
"1" = 0;
"10" = 0;
"11" = 0;
"2" = 0;
"3" = 0;
"4" = 0;
"5" = 0;
"6" = 0;
"7" = 0;
"8" = 0;
"9" = 0;
};
};
vertWidth = 750;
width = 652;
}
);
leftKerningGroup = X;
rightKerningGroup = X;
rightMetricsKey = "=|";
unicode = 0058;
userData = {
KernOnName = X;
};
},
{
glyphname = Y;
lastChange = "2025-01-05 11:04:39 +0000";
layers = (
{
anchors = (
{
name = bottom;
position = "{311, 0}";
},
{
name = top;
position = "{311, 700}";
},
{
name = topleft;
position = "{20, 700}";
}
);
layerId = master01;
paths = (
{
closed = 1;
nodes = (
"385 0 LINE",
"385 16 LINE",
"319 44 LINE",
"319 300 LINE",
"544 673 LINE",
"530 655 LINE",
"601 686 LINE",
"601 700 LINE",
"463 700 LINE",
"463 687 LINE",
"520 656 LINE",
"525 673 LINE",
"315 322 LINE",
"340 350 LINE",
"281 350 LINE",
"306 325 LINE",
"97 672 LINE",
"98 656 LINE",
"158 687 LINE",
"158 700 LINE",
"20 700 LINE",
"20 686 LINE",
"93 655 LINE",
"77 672 LINE",
"303 298 LINE",
"303 44 LINE",
"237 16 LINE",
"237 0 LINE"
);
}
);
userData = {
com.hugojourdan.ColorFlow = {
"0" = 0;
"1" = 0;
"10" = 0;
"11" = 0;
"2" = 0;
"3" = 0;
"4" = 0;
"5" = 0;
"6" = 0;
"7" = 0;
"8" = 0;
"9" = 0;
};
};
vertWidth = 750;
width = 621;
},
{
anchors = (
{
name = bottom;
position = "{305, 0}";
},
{
name = top;
position = "{305, 700}";
},
{
name = topleft;
position = "{20, 700}";
}
);
layerId = "7F56E5C1-F146-4434-90E4-DA1B70285074";
paths = (
{
closed = 1;
nodes = (
"410 0 LINE",
"410 58 LINE",
"333 81 LINE",
"333 300 LINE",
"553 661 LINE",
"488 612 LINE",
"595 646 LINE",
"595 700 LINE",
"418 700 LINE",
"418 647 LINE",
"486 622 LINE",
"479 644 LINE",
"313 364 LINE",
"362 394 LINE",
"248 394 LINE",
"294 369 LINE",
"127 650 LINE",
"127 623 LINE",
"192 647 LINE",
"192 700 LINE",
"15 700 LINE",
"15 646 LINE",
"122 613 LINE",
"57 661 LINE",
"278 298 LINE",
"278 79 LINE",
"201 58 LINE",
"201 0 LINE"
);
}
);
userData = {
com.hugojourdan.ColorFlow = {
"0" = 0;
"1" = 0;
"10" = 0;
"11" = 0;
"2" = 0;
"3" = 0;
"4" = 0;
"5" = 0;
"6" = 0;
"7" = 0;
"8" = 0;
"9" = 0;
};
};
vertWidth = 750;
width = 610;
},
{
anchors = (
{
name = bottom;
position = "{298, 0}";
},
{
name = top;
position = "{298, 700}";
},
{
name = topleft;
position = "{10, 700}";
}
);
layerId = "3CA830F5-1E41-4F35-86DC-34C8110F5ED1";
paths = (
{
closed = 1;
nodes = (
"421 0 LINE",
"421 138 LINE",
"353 169 LINE",
"353 280 LINE",
"540 583 LINE",
"472 532 LINE",
"580 561 LINE",
"580 700 LINE",
"358 700 LINE",
"358 562 LINE",
"446 532 LINE",
"427 592 LINE",
"311 393 LINE",
"348 414 LINE",
"246 414 LINE",
"283 393 LINE",
"169 592 LINE",
"149 532 LINE",
"237 562 LINE",
"237 700 LINE",
"15 700 LINE",
"15 561 LINE",
"123 535 LINE",
"56 581 LINE",
"243 278 LINE",
"243 169 LINE",
"175 138 LINE",
"175 0 LINE"
);
}
);
userData = {
com.hugojourdan.ColorFlow = {
"0" = 0;
"1" = 0;
"10" = 0;
"11" = 0;
"2" = 0;
"3" = 0;
"4" = 0;
"5" = 0;
"6" = 0;
"7" = 0;
"8" = 0;
"9" = 0;
};
};
vertWidth = 750;
width = 595;
}
);
leftKerningGroup = Y;
rightKerningGroup = Y;
rightMetricsKey = "=|";
unicode = 0059;
userData = {
KernOnName = Y;
};
},
{
glyphname = Z;
lastChange = "2025-01-05 11:04:39 +0000";
layers = (
{
anchors = (
{
name = bottom;
position = "{298, 0}";
},
{
name = center;
position = "{298, 350}";
},
{
name = top;
position = "{298, 700}";
}
);
layerId = master01;
paths = (
{
closed = 1;
nodes = (
"516 0 LINE",
"531 133 LINE",
"513 135 LINE",
"471 7 LINE",
"504 25 LINE",
"71 25 LINE",
"71 15 LINE",
"523 685 LINE",
"516 700 LINE",
"75 700 LINE",
"60 567 LINE",
"77 565 LINE",
"119 688 LINE",
"85 675 LINE",
"506 675 LINE",
"502 685 LINE",
"50 15 LINE",
"58 0 LINE"
);
}
);
userData = {
com.hugojourdan.ColorFlow = {
"0" = 0;
"1" = 0;
"10" = 0;
"11" = 0;
"2" = 0;
"3" = 0;
"4" = 0;
"5" = 0;
"6" = 0;
"7" = 0;
"8" = 0;
"9" = 0;
};
};
vertWidth = 750;
width = 581;
},
{
anchors = (
{
name = bottom;
position = "{285, 0}";
},
{
name = center;
position = "{285, 350}";
},
{
name = top;
position = "{285, 700}";
}
);
background = {
paths = (
{
closed = 1;
nodes = (
"94 65 LINE",
"508 635 LINE",
"449 635 LINE",
"35 65 LINE"
);
},
{
closed = 1;
nodes = (
"501 0 LINE",
"501 85 LINE",
"103 85 LINE",
"35 65 LINE",
"45 0 LINE"
);
},
{
closed = 1;
nodes = (
"526 163 LINE",
"494 173 LINE",
"445 50 LINE",
"501 0 LINE"
);
},
{
closed = 1;
nodes = (
"116 650 LINE",
"60 700 LINE",
"35 537 LINE",
"67 527 LINE"
);
},
{
closed = 1;
nodes = (
"444 615 LINE",
"508 635 LINE",
"498 700 LINE",
"60 700 LINE",
"60 615 LINE"
);
}
);
};
layerId = "7F56E5C1-F146-4434-90E4-DA1B70285074";
paths = (
{
closed = 1;
nodes = (
"501 0 LINE",
"516 183 LINE",
"474 189 LINE",
"439 62 LINE",
"473 85 LINE",
"87 85 LINE",
"98 65 LINE",
"511 635 LINE",
"501 700 LINE",
"63 700 LINE",
"48 517 LINE",
"90 510 LINE",
"125 638 LINE",
"91 615 LINE",
"443 615 LINE",
"448 635 LINE",
"35 65 LINE",
"45 0 LINE"
);
}
);
userData = {
com.hugojourdan.ColorFlow = {
"0" = 0;
"1" = 0;
"10" = 0;
"11" = 0;
"2" = 0;
"3" = 0;
"4" = 0;
"5" = 0;
"6" = 0;
"7" = 0;
"8" = 0;
"9" = 0;
};
};
vertWidth = 750;
width = 554;
},
{
anchors = (
{
name = bottom;
position = "{313, 0}";
},
{
name = center;
position = "{313, 350}";
},
{
name = top;
position = "{313, 700}";
}
);
layerId = "3CA830F5-1E41-4F35-86DC-34C8110F5ED1";
paths = (
{
closed = 1;
nodes = (
"531 0 LINE",
"556 243 LINE",
"464 253 LINE",
"415 50 LINE",
"511 165 LINE",
"108 165 LINE",
"179 125 LINE",
"547 595 LINE",
"537 700 LINE",
"74 700 LINE",
"49 477 LINE",
"141 467 LINE",
"190 650 LINE",
"104 555 LINE",
"483 555 LINE",
"408 595 LINE",
"40 125 LINE",
"50 0 LINE"
);
}
);
userData = {
com.hugojourdan.ColorFlow = {
"0" = 0;
"1" = 0;
"10" = 0;
"11" = 0;
"2" = 0;
"3" = 0;
"4" = 0;
"5" = 0;
"6" = 0;
"7" = 0;
"8" = 0;
"9" = 0;
};
};
vertWidth = 750;
width = 586;
}
);
leftKerningGroup = Z;
rightKerningGroup = Z;
unicode = 005A;
userData = {
KernOnName = Z;
};
},
{
glyphname = Saltillo;
lastChange = "2025-01-05 07:57:35 +0000";
layers = (
{
layerId = master01;
paths = (
{
closed = 1;
nodes = (
"113 700 LINE",
"101 705 OFFCURVE",
"91 704 OFFCURVE",
"80 700 CURVE",
"85 385 LINE",
"88 381 OFFCURVE",
"96 379 OFFCURVE",
"102 380 CURVE"
);
}
);
userData = {
com.hugojourdan.ColorFlow = {
"0" = 0;
"1" = 0;
"10" = 0;
"11" = 0;
"2" = 0;
"3" = 0;
"4" = 0;
"5" = 0;
"6" = 0;
"7" = 0;
"8" = 0;
"9" = 0;
};
};
width = 193;
},
{
layerId = "7F56E5C1-F146-4434-90E4-DA1B70285074";
paths = (
{
closed = 1;
nodes = (
"168 700 LINE",
"133 709 OFFCURVE",
"98 709 OFFCURVE",
"63 700 CURVE",
"76 380 LINE",
"98 370 OFFCURVE",
"117 367 OFFCURVE",
"151 370 CURVE"
);
}
);
userData = {
com.hugojourdan.ColorFlow = {
"0" = 0;
"1" = 0;
"10" = 0;
"11" = 0;
"2" = 0;
"3" = 0;
"4" = 0;
"5" = 0;
"6" = 0;
"7" = 0;
"8" = 0;
"9" = 0;
};
};
width = 231;
},
{
layerId = "3CA830F5-1E41-4F35-86DC-34C8110F5ED1";
paths = (
{
closed = 1;
nodes = (
"241 700 LINE",
"205 716 OFFCURVE",
"92 716 OFFCURVE",
"50 700 CURVE",
"71 380 LINE",
"100 360 OFFCURVE",
"150 349 OFFCURVE",
"216 360 CURVE"
);
}
);
userData = {
com.hugojourdan.ColorFlow = {
"0" = 0;
"1" = 0;
"10" = 0;
"11" = 0;
"2" = 0;
"3" = 0;
"4" = 0;
"5" = 0;
"6" = 0;
"7" = 0;
"8" = 0;
"9" = 0;
};
};
width = 291;
}
);
rightMetricsKey = "=|";
unicode = A78B;
},
{
color = 0;
export = 0;
glyphname = P.registered;
lastChange = "2025-01-05 11:04:30 +0000";
layers = (
{
anchors = (
{
name = bottom;
position = "{127, 0}";
},
{
name = top;
position = "{127, 700}";
}
);
background = {
paths = (
{
closed = 1;
nodes = (
"188 0 LINE",
"188 16 LINE",
"122 44 LINE",
"122 683 LINE",
"114 675 LINE",
"266 675 LINE SMOOTH",
"381 675 OFFCURVE",
"442 619 OFFCURVE",
"442 503 CURVE SMOOTH",
"442 397 OFFCURVE",
"389 320 OFFCURVE",
"252 320 CURVE SMOOTH",
"117 320 LINE",
"117 300 LINE",
"252 300 LINE SMOOTH",
"345 300 OFFCURVE",
"461 340 OFFCURVE",
"461 503 CURVE SMOOTH",
"461 641 OFFCURVE",
"375 700 OFFCURVE",
"266 700 CURVE SMOOTH",
"40 700 LINE",
"40 684 LINE",
"106 656 LINE",
"106 44 LINE",
"40 16 LINE",
"40 0 LINE"
);
},
{
closed = 1;
nodes = (
"528 0 LINE",
"528 16 LINE",
"462 34 LINE",
"286 313 LINE",
"272 305 LINE",
"447 26 LINE",
"447 0 LINE {name = \"🧨\";}"
);
}
);
};
layerId = master01;
paths = (
{
closed = 1;
nodes = (
"98 0 LINE",
"98 16 LINE",
"65 28 LINE",
"65 291 LINE",
"58 284 LINE",
"131 284 LINE SMOOTH",
"177 284 OFFCURVE",
"201 263 OFFCURVE",
"201 218 CURVE SMOOTH",
"201 177 OFFCURVE",
"181 147 OFFCURVE",
"125 147 CURVE SMOOTH",
"61 147 LINE",
"61 131 LINE",
"122 131 LINE SMOOTH",
"166 131 OFFCURVE",
"218 150 OFFCURVE",
"218 220 CURVE SMOOTH",
"218 283 OFFCURVE",
"177 308 OFFCURVE",
"129 308 CURVE SMOOTH",
"17 308 LINE",
"17 292 LINE",
"50 281 LINE",
"50 27 LINE",
"17 16 LINE",
"17 0 LINE"
);
}
);
userData = {
RMXScaler = {
height = 44;
weight = 10;
width = 46;
};
com.hugojourdan.ColorFlow = {
"0" = 0;
"1" = 0;
"10" = 0;
"11" = 0;
"2" = 0;
"3" = 0;
"4" = 0;
"5" = 0;
"6" = 0;
"7" = 0;
"8" = 0;
"9" = 0;
};
};
vertWidth = 750;
width = 254;
},
{
anchors = (
{
name = bottom;
position = "{131, 0}";
},
{
name = top;
position = "{131, 700}";
}
);
background = {
paths = (
{
closed = 1;
nodes = (
"268 295 LINE",
"271 306 LINE",
"369 307 OFFCURVE",
"476 351 OFFCURVE",
"476 502 CURVE SMOOTH",
"476 645 OFFCURVE",
"384 700 OFFCURVE",
"282 700 CURVE SMOOTH",
"114 700 LINE",
"114 615 LINE",
"295 615 LINE SMOOTH",
"380 615 OFFCURVE",
"418 575 OFFCURVE",
"418 494 CURVE SMOOTH",
"418 411 OFFCURVE",
"378 350 OFFCURVE",
"279 350 CURVE SMOOTH",
"151 350 LINE",
"151 295 LINE"
);
},
{
closed = 1;
nodes = (
"572 75 LINE",
"403 105 OFFCURVE",
"424 325 OFFCURVE",
"247 325 CURVE",
"247 295 LINE",
"370 295 OFFCURVE",
"360 16 OFFCURVE",
"535 -10 CURVE"
);
},
{
closed = 1;
nodes = (
"112 700 LINE",
"112 0 LINE",
"167 0 LINE",
"167 700 LINE"
);
}
);
};
layerId = "7F56E5C1-F146-4434-90E4-DA1B70285074";
paths = (
{
closed = 1;
nodes = (
"122 0 LINE",
"122 53 LINE",
"90 66 LINE",
"90 254 LINE",
"78 243 LINE",
"139 243 LINE SMOOTH",
"175 243 OFFCURVE",
"191 234 OFFCURVE",
"191 206 CURVE SMOOTH",
"191 183 OFFCURVE",
"179 168 OFFCURVE",
"138 168 CURVE SMOOTH",
"83 168 LINE",
"83 112 LINE",
"127 112 LINE SMOOTH",
"185 112 OFFCURVE",
"236 133 OFFCURVE",
"236 211 CURVE SMOOTH",
"236 281 OFFCURVE",
"194 308 OFFCURVE",
"133 308 CURVE SMOOTH",
"14 308 LINE",
"14 255 LINE",
"46 242 LINE",
"46 66 LINE",
"14 53 LINE",
"14 0 LINE"
);
}
);
userData = {
RMXScaler = {
height = 44;
weight = -50;
width = 46;
};
com.hugojourdan.ColorFlow = {
"0" = 0;
"1" = 0;
"10" = 0;
"11" = 0;
"2" = 0;
"3" = 0;
"4" = 0;
"5" = 0;
"6" = 0;
"7" = 0;
"8" = 0;
"9" = 0;
};
};
vertWidth = 750;
width = 262;
},
{
anchors = (
{
name = bottom;
position = "{134, 0}";
},
{
name = top;
position = "{134, 700}";
}
);
background = {
paths = (
{
closed = 1;
nodes = (
"276 0 LINE",
"276 138 LINE",
"208 169 LINE",
"208 560 LINE",
"183 535 LINE",
"301 535 LINE SMOOTH",
"376 535 OFFCURVE",
"409 517 OFFCURVE",
"409 452 CURVE SMOOTH",
"409 394 OFFCURVE",
"381 360 OFFCURVE",
"285 360 CURVE SMOOTH",
"192 360 LINE",
"192 265 LINE",
"274 265 LINE SMOOTH",
"412 265 OFFCURVE",
"522 312 OFFCURVE",
"522 484 CURVE SMOOTH",
"522 641 OFFCURVE",
"431 700 OFFCURVE",
"288 700 CURVE SMOOTH",
"30 700 LINE",
"30 562 LINE",
"98 531 LINE",
"98 169 LINE",
"30 138 LINE",
"30 0 LINE"
);
},
{
closed = 1;
nodes = (
"565 0 LINE",
"565 138 LINE",
"463 169 LINE",
"375 319 LINE",
"280 295 LINE",
"434 0 LINE {name = \"🧨\";}"
);
}
);
};
layerId = "3CA830F5-1E41-4F35-86DC-34C8110F5ED1";
paths = (
{
closed = 1;
nodes = (
"130 0 LINE",
"130 70 LINE",
"100 85 LINE",
"100 244 LINE",
"88 232 LINE",
"139 232 LINE SMOOTH",
"171 232 OFFCURVE",
"186 228 OFFCURVE",
"186 206 CURVE SMOOTH",
"186 189 OFFCURVE",
"177 180 OFFCURVE",
"142 180 CURVE SMOOTH",
"92 180 LINE",
"92 106 LINE",
"126 106 LINE SMOOTH",
"193 106 OFFCURVE",
"243 129 OFFCURVE",
"243 211 CURVE SMOOTH",
"243 286 OFFCURVE",
"201 315 OFFCURVE",
"132 315 CURVE SMOOTH",
"13 315 LINE",
"13 245 LINE",
"44 230 LINE",
"44 85 LINE",
"13 70 LINE",
"13 0 LINE"
);
}
);
userData = {
RMXScaler = {
height = 45;
weight = -442;
width = 46;
};
com.hugojourdan.ColorFlow = {
"0" = 0;
"1" = 0;
"10" = 0;
"11" = 0;
"2" = 0;
"3" = 0;
"4" = 0;
"5" = 0;
"6" = 0;
"7" = 0;
"8" = 0;
"9" = 0;
};
};
vertWidth = 750;
width = 267;
},
{
anchors = (
{
name = bottom;
position = "{289, 0}";
},
{
name = left;
position = "{112, 621}";
},
{
name = right;
position = "{167, 81}";
},
{
name = top;
position = "{259, 700}";
}
);
associatedMasterId = "7F56E5C1-F146-4434-90E4-DA1B70285074";
background = {
paths = (
{
closed = 1;
nodes = (
"268 295 LINE",
"271 306 LINE",
"369 307 OFFCURVE",
"476 351 OFFCURVE",
"476 502 CURVE SMOOTH",
"476 645 OFFCURVE",
"384 700 OFFCURVE",
"282 700 CURVE SMOOTH",
"114 700 LINE",
"114 615 LINE",
"295 615 LINE SMOOTH",
"380 615 OFFCURVE",
"418 575 OFFCURVE",
"418 494 CURVE SMOOTH",
"418 411 OFFCURVE",
"378 350 OFFCURVE",
"279 350 CURVE SMOOTH",
"151 350 LINE",
"151 295 LINE"
);
},
{
closed = 1;
nodes = (
"572 75 LINE",
"403 105 OFFCURVE",
"424 325 OFFCURVE",
"247 325 CURVE",
"247 295 LINE",
"370 295 OFFCURVE",
"360 16 OFFCURVE",
"535 -10 CURVE"
);
},
{
closed = 1;
nodes = (
"112 700 LINE",
"112 0 LINE",
"167 0 LINE",
"167 700 LINE"
);
}
);
};
layerId = "FDAE7F1B-7416-4CFD-B6DD-4D9A43674C8C";
name = "29 Jan 23 16.57";
paths = (
{
closed = 1;
nodes = (
"268 295 LINE",
"271 306 LINE",
"369 307 OFFCURVE",
"476 351 OFFCURVE",
"476 502 CURVE SMOOTH",
"476 645 OFFCURVE",
"384 700 OFFCURVE",
"282 700 CURVE SMOOTH",
"114 700 LINE",
"114 615 LINE",
"295 615 LINE SMOOTH",
"380 615 OFFCURVE",
"418 575 OFFCURVE",
"418 494 CURVE SMOOTH",
"418 411 OFFCURVE",
"378 350 OFFCURVE",
"279 350 CURVE SMOOTH",
"151 350 LINE",
"151 295 LINE"
);
},
{
closed = 1;
nodes = (
"572 75 LINE",
"403 105 OFFCURVE",
"424 325 OFFCURVE",
"247 325 CURVE",
"247 295 LINE",
"370 295 OFFCURVE",
"360 16 OFFCURVE",
"535 -10 CURVE"
);
},
{
closed = 1;
nodes = (
"112 700 LINE",
"112 0 LINE",
"167 0 LINE",
"167 700 LINE"
);
},
{
closed = 0;
nodes = (
"142 700 LINE",
"35 700 LINE",
"35 642 LINE",
"112 621 LINE"
);
},
{
closed = 0;
nodes = (
"112 79 LINE",
"35 58 LINE",
"35 0 LINE",
"142 0 LINE"
);
},
{
closed = 0;
nodes = (
"137 0 LINE",
"244 0 LINE",
"244 58 LINE",
"167 81 LINE"
);
},
{
closed = 1;
nodes = (
"244 0 LINE",
"244 58 LINE",
"167 81 LINE",
"167 640 LINE",
"142 615 LINE",
"310 615 LINE SMOOTH",
"395 615 OFFCURVE",
"433 575 OFFCURVE",
"433 489 CURVE SMOOTH",
"433 411 OFFCURVE",
"402 350 OFFCURVE",
"294 350 CURVE SMOOTH",
"153 350 LINE",
"153 295 LINE",
"283 295 LINE SMOOTH",
"382 295 OFFCURVE",
"491 340 OFFCURVE",
"491 499 CURVE SMOOTH",
"491 645 OFFCURVE",
"399 700 OFFCURVE",
"297 700 CURVE SMOOTH",
"35 700 LINE",
"35 642 LINE",
"112 619 LINE",
"112 79 LINE",
"35 58 LINE",
"35 0 LINE"
);
}
);
vertWidth = 750;
width = 577;
}
);
leftKerningGroup = H.registered;
rightKerningGroup = R.registered;
userData = {
RMXScaler = {
source = R;
};
};
},
{
color = 0;
export = 0;
glyphname = R.registered;
lastChange = "2025-01-05 11:04:30 +0000";
layers = (
{
anchors = (
{
name = bottom;
position = "{127, 0}";
},
{
name = top;
position = "{127, 700}";
}
);
background = {
paths = (
{
closed = 1;
nodes = (
"188 0 LINE",
"188 16 LINE",
"122 44 LINE",
"122 683 LINE",
"114 675 LINE",
"266 675 LINE SMOOTH",
"381 675 OFFCURVE",
"442 619 OFFCURVE",
"442 503 CURVE SMOOTH",
"442 397 OFFCURVE",
"389 320 OFFCURVE",
"252 320 CURVE SMOOTH",
"117 320 LINE",
"117 300 LINE",
"252 300 LINE SMOOTH",
"345 300 OFFCURVE",
"461 340 OFFCURVE",
"461 503 CURVE SMOOTH",
"461 641 OFFCURVE",
"375 700 OFFCURVE",
"266 700 CURVE SMOOTH",
"40 700 LINE",
"40 684 LINE",
"106 656 LINE",
"106 44 LINE",
"40 16 LINE",
"40 0 LINE"
);
},
{
closed = 1;
nodes = (
"528 0 LINE",
"528 16 LINE",
"462 34 LINE",
"286 313 LINE",
"272 305 LINE",
"447 26 LINE",
"447 0 LINE {name = \"🧨\";}"
);
}
);
};
layerId = master01;
paths = (
{
closed = 1;
nodes = (
"98 0 LINE",
"98 16 LINE",
"65 28 LINE",
"65 291 LINE",
"58 284 LINE",
"131 284 LINE SMOOTH",
"177 284 OFFCURVE",
"201 263 OFFCURVE",
"201 218 CURVE SMOOTH",
"201 177 OFFCURVE",
"181 147 OFFCURVE",
"125 147 CURVE SMOOTH",
"61 147 LINE",
"61 131 LINE",
"122 131 LINE SMOOTH",
"166 131 OFFCURVE",
"218 150 OFFCURVE",
"218 220 CURVE SMOOTH",
"218 283 OFFCURVE",
"177 308 OFFCURVE",
"129 308 CURVE SMOOTH",
"17 308 LINE",
"17 292 LINE",
"50 281 LINE",
"50 27 LINE",
"17 16 LINE",
"17 0 LINE"
);
},
{
closed = 1;
nodes = (
"245 0 LINE",
"245 16 LINE",
"211 28 LINE",
"140 140 LINE",
"125 133 LINE",
"195 22 LINE",
"195 0 LINE {name = \"🧨\";}"
);
}
);
userData = {
RMXScaler = {
height = 44;
weight = 10;
width = 46;
};
com.hugojourdan.ColorFlow = {
"0" = 0;
"1" = 0;
"10" = 0;
"11" = 0;
"2" = 0;
"3" = 0;
"4" = 0;
"5" = 0;
"6" = 0;
"7" = 0;
"8" = 0;
"9" = 0;
};
};
vertWidth = 750;
width = 254;
},
{
anchors = (
{
name = bottom;
position = "{131, 0}";
},
{
name = top;
position = "{131, 700}";
}
);
background = {
paths = (
{
closed = 1;
nodes = (
"268 295 LINE",
"271 306 LINE",
"369 307 OFFCURVE",
"476 351 OFFCURVE",
"476 502 CURVE SMOOTH",
"476 645 OFFCURVE",
"384 700 OFFCURVE",
"282 700 CURVE SMOOTH",
"114 700 LINE",
"114 615 LINE",
"295 615 LINE SMOOTH",
"380 615 OFFCURVE",
"418 575 OFFCURVE",
"418 494 CURVE SMOOTH",
"418 411 OFFCURVE",
"378 350 OFFCURVE",
"279 350 CURVE SMOOTH",
"151 350 LINE",
"151 295 LINE"
);
},
{
closed = 1;
nodes = (
"572 75 LINE",
"403 105 OFFCURVE",
"424 325 OFFCURVE",
"247 325 CURVE",
"247 295 LINE",
"370 295 OFFCURVE",
"360 16 OFFCURVE",
"535 -10 CURVE"
);
},
{
closed = 1;
nodes = (
"112 700 LINE",
"112 0 LINE",
"167 0 LINE",
"167 700 LINE"
);
}
);
};
layerId = "7F56E5C1-F146-4434-90E4-DA1B70285074";
paths = (
{
closed = 1;
nodes = (
"122 0 LINE",
"122 53 LINE",
"90 66 LINE",
"90 254 LINE",
"78 243 LINE",
"139 243 LINE SMOOTH",
"175 243 OFFCURVE",
"191 234 OFFCURVE",
"191 206 CURVE SMOOTH",
"191 183 OFFCURVE",
"179 168 OFFCURVE",
"138 168 CURVE SMOOTH",
"83 168 LINE",
"83 112 LINE",
"127 112 LINE SMOOTH",
"185 112 OFFCURVE",
"236 133 OFFCURVE",
"236 211 CURVE SMOOTH",
"236 281 OFFCURVE",
"194 308 OFFCURVE",
"133 308 CURVE SMOOTH",
"14 308 LINE",
"14 255 LINE",
"46 242 LINE",
"46 66 LINE",
"14 53 LINE",
"14 0 LINE"
);
},
{
closed = 1;
nodes = (
"256 0 LINE",
"256 53 LINE",
"212 66 LINE",
"166 141 LINE",
"128 130 LINE {name = \"🧨\";}",
"172 53 LINE",
"172 0 LINE {name = \"🧨\";}"
);
}
);
userData = {
RMXScaler = {
height = 44;
weight = -50;
width = 46;
};
com.hugojourdan.ColorFlow = {
"0" = 0;
"1" = 0;
"10" = 0;
"11" = 0;
"2" = 0;
"3" = 0;
"4" = 0;
"5" = 0;
"6" = 0;
"7" = 0;
"8" = 0;
"9" = 0;
};
};
vertWidth = 750;
width = 262;
},
{
anchors = (
{
name = bottom;
position = "{134, 0}";
},
{
name = top;
position = "{134, 700}";
}
);
background = {
paths = (
{
closed = 1;
nodes = (
"276 0 LINE",
"276 138 LINE",
"208 169 LINE",
"208 560 LINE",
"183 535 LINE",
"301 535 LINE SMOOTH",
"376 535 OFFCURVE",
"409 517 OFFCURVE",
"409 452 CURVE SMOOTH",
"409 394 OFFCURVE",
"381 360 OFFCURVE",
"285 360 CURVE SMOOTH",
"192 360 LINE",
"192 265 LINE",
"274 265 LINE SMOOTH",
"412 265 OFFCURVE",
"522 312 OFFCURVE",
"522 484 CURVE SMOOTH",
"522 641 OFFCURVE",
"431 700 OFFCURVE",
"288 700 CURVE SMOOTH",
"30 700 LINE",
"30 562 LINE",
"98 531 LINE",
"98 169 LINE",
"30 138 LINE",
"30 0 LINE"
);
},
{
closed = 1;
nodes = (
"565 0 LINE",
"565 138 LINE",
"463 169 LINE",
"375 319 LINE",
"280 295 LINE",
"434 0 LINE {name = \"🧨\";}"
);
}
);
};
layerId = "3CA830F5-1E41-4F35-86DC-34C8110F5ED1";
paths = (
{
closed = 1;
nodes = (
"130 0 LINE",
"130 70 LINE",
"100 85 LINE",
"100 244 LINE",
"88 232 LINE",
"139 232 LINE SMOOTH",
"171 232 OFFCURVE",
"186 228 OFFCURVE",
"186 206 CURVE SMOOTH",
"186 189 OFFCURVE",
"177 180 OFFCURVE",
"142 180 CURVE SMOOTH",
"92 180 LINE",
"92 106 LINE",
"126 106 LINE SMOOTH",
"193 106 OFFCURVE",
"243 129 OFFCURVE",
"243 211 CURVE SMOOTH",
"243 286 OFFCURVE",
"201 315 OFFCURVE",
"132 315 CURVE SMOOTH",
"13 315 LINE",
"13 245 LINE",
"44 230 LINE",
"44 85 LINE",
"13 70 LINE",
"13 0 LINE"
);
},
{
closed = 1;
nodes = (
"262 0 LINE",
"262 70 LINE",
"213 85 LINE",
"177 143 LINE",
"129 132 LINE",
"163 68 LINE",
"163 0 LINE {name = \"🧨\";}"
);
}
);
userData = {
RMXScaler = {
height = 45;
weight = -442;
width = 46;
};
com.hugojourdan.ColorFlow = {
"0" = 0;
"1" = 0;
"10" = 0;
"11" = 0;
"2" = 0;
"3" = 0;
"4" = 0;
"5" = 0;
"6" = 0;
"7" = 0;
"8" = 0;
"9" = 0;
};
};
vertWidth = 750;
width = 267;
},
{
anchors = (
{
name = bottom;
position = "{289, 0}";
},
{
name = left;
position = "{112, 621}";
},
{
name = right;
position = "{167, 81}";
},
{
name = top;
position = "{259, 700}";
}
);
associatedMasterId = "7F56E5C1-F146-4434-90E4-DA1B70285074";
background = {
paths = (
{
closed = 1;
nodes = (
"268 295 LINE",
"271 306 LINE",
"369 307 OFFCURVE",
"476 351 OFFCURVE",
"476 502 CURVE SMOOTH",
"476 645 OFFCURVE",
"384 700 OFFCURVE",
"282 700 CURVE SMOOTH",
"114 700 LINE",
"114 615 LINE",
"295 615 LINE SMOOTH",
"380 615 OFFCURVE",
"418 575 OFFCURVE",
"418 494 CURVE SMOOTH",
"418 411 OFFCURVE",
"378 350 OFFCURVE",
"279 350 CURVE SMOOTH",
"151 350 LINE",
"151 295 LINE"
);
},
{
closed = 1;
nodes = (
"572 75 LINE",
"403 105 OFFCURVE",
"424 325 OFFCURVE",
"247 325 CURVE",
"247 295 LINE",
"370 295 OFFCURVE",
"360 16 OFFCURVE",
"535 -10 CURVE"
);
},
{
closed = 1;
nodes = (
"112 700 LINE",
"112 0 LINE",
"167 0 LINE",
"167 700 LINE"
);
}
);
};
layerId = "FDAE7F1B-7416-4CFD-B6DD-4D9A43674C8C";
name = "29 Jan 23 16.57";
paths = (
{
closed = 1;
nodes = (
"268 295 LINE",
"271 306 LINE",
"369 307 OFFCURVE",
"476 351 OFFCURVE",
"476 502 CURVE SMOOTH",
"476 645 OFFCURVE",
"384 700 OFFCURVE",
"282 700 CURVE SMOOTH",
"114 700 LINE",
"114 615 LINE",
"295 615 LINE SMOOTH",
"380 615 OFFCURVE",
"418 575 OFFCURVE",
"418 494 CURVE SMOOTH",
"418 411 OFFCURVE",
"378 350 OFFCURVE",
"279 350 CURVE SMOOTH",
"151 350 LINE",
"151 295 LINE"
);
},
{
closed = 1;
nodes = (
"572 75 LINE",
"403 105 OFFCURVE",
"424 325 OFFCURVE",
"247 325 CURVE",
"247 295 LINE",
"370 295 OFFCURVE",
"360 16 OFFCURVE",
"535 -10 CURVE"
);
},
{
closed = 1;
nodes = (
"112 700 LINE",
"112 0 LINE",
"167 0 LINE",
"167 700 LINE"
);
},
{
closed = 0;
nodes = (
"142 700 LINE",
"35 700 LINE",
"35 642 LINE",
"112 621 LINE"
);
},
{
closed = 0;
nodes = (
"112 79 LINE",
"35 58 LINE",
"35 0 LINE",
"142 0 LINE"
);
},
{
closed = 0;
nodes = (
"137 0 LINE",
"244 0 LINE",
"244 58 LINE",
"167 81 LINE"
);
},
{
closed = 1;
nodes = (
"244 0 LINE",
"244 58 LINE",
"167 81 LINE",
"167 640 LINE",
"142 615 LINE",
"310 615 LINE SMOOTH",
"395 615 OFFCURVE",
"433 575 OFFCURVE",
"433 489 CURVE SMOOTH",
"433 411 OFFCURVE",
"402 350 OFFCURVE",
"294 350 CURVE SMOOTH",
"153 350 LINE",
"153 295 LINE",
"283 295 LINE SMOOTH",
"382 295 OFFCURVE",
"491 340 OFFCURVE",
"491 499 CURVE SMOOTH",
"491 645 OFFCURVE",
"399 700 OFFCURVE",
"297 700 CURVE SMOOTH",
"35 700 LINE",
"35 642 LINE",
"112 619 LINE",
"112 79 LINE",
"35 58 LINE",
"35 0 LINE"
);
}
);
vertWidth = 750;
width = 577;
}
);
leftKerningGroup = H.registered;
rightKerningGroup = R.registered;
userData = {
RMXScaler = {
source = R;
};
};
},
{
glyphname = a;
lastChange = "2025-01-05 11:04:39 +0000";
layers = (
{
anchors = (
{
name = bottom;
position = "{221, 0}";
},
{
name = ogonek;
position = "{432, 0}";
},
{
name = top;
position = "{207, 495}";
}
);
background = {
paths = (
{
closed = 1;
nodes = (
"294 474 OFFCURVE",
"345 441 OFFCURVE",
"345 344 CURVE SMOOTH",
"345 34 LINE",
"334 6 LINE",
"344 -2 LINE",
"422 9 LINE",
"422 23 LINE",
"360 34 LINE",
"360 346 LINE SMOOTH",
"360 461 OFFCURVE",
"314 499 OFFCURVE",
"220 499 CURVE SMOOTH",
"150 499 OFFCURVE",
"95 479 OFFCURVE",
"61 455 CURVE",
"44 348 LINE",
"60 346 LINE",
"94 460 LINE",
"85 442 LINE",
"118 461 OFFCURVE",
"167 474 OFFCURVE",
"217 474 CURVE SMOOTH"
);
},
{
closed = 1;
nodes = (
"40 24 OFFCURVE",
"112 -6 OFFCURVE",
"180 -6 CURVE SMOOTH",
"263 -6 OFFCURVE",
"314 39 OFFCURVE",
"341 107 CURVE",
"345 107 LINE",
"345 139 LINE",
"313 62 OFFCURVE",
"273 19 OFFCURVE",
"182 19 CURVE SMOOTH",
"117 19 OFFCURVE",
"57 40 OFFCURVE",
"57 111 CURVE SMOOTH",
"57 222 OFFCURVE",
"204 251 OFFCURVE",
"345 251 CURVE",
"345 275 LINE",
"118 275 OFFCURVE",
"40 204 OFFCURVE",
"40 112 CURVE SMOOTH"
);
}
);
};
layerId = master01;
paths = (
{
closed = 1;
nodes = (
"264 -6 OFFCURVE",
"318 34 OFFCURVE",
"341 107 CURVE",
"345 107 LINE",
"340 3 LINE",
"350 -2 LINE",
"432 9 LINE",
"432 23 LINE",
"360 44 LINE",
"360 316 LINE SMOOTH",
"360 455 OFFCURVE",
"304 499 OFFCURVE",
"207 499 CURVE SMOOTH",
"145 499 OFFCURVE",
"102 480 OFFCURVE",
"70 460 CURVE",
"63 373 LINE",
"79 371 LINE",
"113 467 LINE",
"89 446 LINE",
"125 466 OFFCURVE",
"162 474 OFFCURVE",
"207 474 CURVE SMOOTH",
"285 474 OFFCURVE",
"345 445 OFFCURVE",
"345 314 CURVE SMOOTH",
"345 127 LINE",
"348 149 LINE",
"314 49 OFFCURVE",
"267 19 OFFCURVE",
"187 19 CURVE SMOOTH",
"124 19 OFFCURVE",
"67 38 OFFCURVE",
"67 115 CURVE SMOOTH",
"67 220 OFFCURVE",
"175 263 OFFCURVE",
"350 261 CURVE",
"354 285 LINE",
"149 287 OFFCURVE",
"50 228 OFFCURVE",
"50 116 CURVE SMOOTH",
"50 22 OFFCURVE",
"119 -6 OFFCURVE",
"185 -6 CURVE SMOOTH"
);
}
);
userData = {
com.hugojourdan.ColorFlow = {
"0" = 0;
"1" = 0;
"10" = 0;
"11" = 0;
"2" = 0;
"3" = 0;
"4" = 0;
"5" = 0;
"6" = 0;
"7" = 0;
"8" = 0;
"9" = 0;
};
};
vertWidth = 750;
width = 471;
},
{
anchors = (
{
name = bottom;
position = "{232, 0}";
},
{
name = ogonek;
position = "{443, 0}";
},
{
name = top;
position = "{208, 500}";
}
);
background = {
paths = (
{
closed = 1;
nodes = (
"298 430 OFFCURVE",
"321 381 OFFCURVE",
"321 307 CURVE SMOOTH",
"321 100 LINE",
"313 7 LINE",
"336 -6 LINE",
"443 18 LINE",
"443 71 LINE",
"376 83 LINE",
"376 306 LINE SMOOTH",
"376 417 OFFCURVE",
"355 510 OFFCURVE",
"218 510 CURVE SMOOTH",
"144 510 OFFCURVE",
"87 483 OFFCURVE",
"49 426 CURVE",
"40 348 LINE",
"88 341 LINE",
"117 408 LINE",
"106 390 LINE",
"132 415 OFFCURVE",
"165 430 OFFCURVE",
"212 430 CURVE SMOOTH"
);
},
{
closed = 1;
nodes = (
"41 21 OFFCURVE",
"111 -10 OFFCURVE",
"174 -10 CURVE SMOOTH",
"249 -10 OFFCURVE",
"292 34 OFFCURVE",
"315 100 CURVE",
"321 100 LINE",
"321 159 LINE",
"291 103 OFFCURVE",
"259 75 OFFCURVE",
"187 75 CURVE SMOOTH",
"127 75 OFFCURVE",
"93 94 OFFCURVE",
"93 134 CURVE SMOOTH",
"93 193 OFFCURVE",
"167 221 OFFCURVE",
"321 221 CURVE",
"321 291 LINE",
"207 291 OFFCURVE",
"41 269 OFFCURVE",
"41 118 CURVE SMOOTH"
);
}
);
};
layerId = "7F56E5C1-F146-4434-90E4-DA1B70285074";
paths = (
{
closed = 1;
nodes = (
"249 -10 OFFCURVE",
"292 34 OFFCURVE",
"315 100 CURVE",
"321 100 LINE",
"308 7 LINE",
"331 -6 LINE",
"443 35 LINE",
"443 89 LINE",
"376 100 LINE",
"376 306 LINE SMOOTH",
"376 417 OFFCURVE",
"355 510 OFFCURVE",
"218 510 CURVE SMOOTH",
"148 510 OFFCURVE",
"95 486 OFFCURVE",
"59 453 CURVE",
"50 355 LINE",
"98 348 LINE",
"141 461 LINE",
"95 410 LINE",
"133 422 OFFCURVE",
"166 430 OFFCURVE",
"204 430 CURVE SMOOTH",
"298 430 OFFCURVE",
"321 384 OFFCURVE",
"321 307 CURVE SMOOTH",
"321 114 LINE",
"337 192 LINE",
"301 114 OFFCURVE",
"272 75 OFFCURVE",
"187 75 CURVE SMOOTH",
"127 75 OFFCURVE",
"93 94 OFFCURVE",
"93 134 CURVE SMOOTH",
"93 197 OFFCURVE",
"176 224 OFFCURVE",
"350 221 CURVE",
"335 291 LINE",
"222 293 OFFCURVE",
"41 276 OFFCURVE",
"41 118 CURVE SMOOTH",
"41 21 OFFCURVE",
"111 -10 OFFCURVE",
"174 -10 CURVE SMOOTH"
);
}
);
userData = {
com.hugojourdan.ColorFlow = {
"0" = 0;
"1" = 0;
"10" = 0;
"11" = 0;
"2" = 0;
"3" = 0;
"4" = 0;
"5" = 0;
"6" = 0;
"7" = 0;
"8" = 0;
"9" = 0;
};
};
width = 470;
},
{
anchors = (
{
name = bottom;
position = "{246, 0}";
},
{
name = ogonek;
position = "{470, 0}";
},
{
name = top;
position = "{226, 510}";
}
);
background = {
paths = (
{
closed = 1;
nodes = (
"232 -11 OFFCURVE",
"270 27 OFFCURVE",
"292 85 CURVE",
"300 85 LINE",
"292 7 LINE",
"355 -6 LINE",
"472 15 LINE",
"472 130 LINE",
"405 145 LINE",
"405 316 LINE SMOOTH",
"405 427 OFFCURVE",
"379 520 OFFCURVE",
"226 520 CURVE SMOOTH",
"143 520 OFFCURVE",
"90 493 OFFCURVE",
"58 456 CURVE",
"39 328 LINE",
"127 312 LINE",
"158 403 LINE",
"120 346 LINE",
"144 366 OFFCURVE",
"171 376 OFFCURVE",
"213 376 CURVE SMOOTH",
"284 376 OFFCURVE",
"300 349 OFFCURVE",
"300 307 CURVE SMOOTH",
"300 114 LINE",
"325 179 LINE",
"285 145 OFFCURVE",
"255 124 OFFCURVE",
"199 124 CURVE SMOOTH",
"154 124 OFFCURVE",
"142 138 OFFCURVE",
"142 157 CURVE SMOOTH",
"142 201 OFFCURVE",
"202 213 OFFCURVE",
"330 211 CURVE",
"314 291 LINE",
"204 293 OFFCURVE",
"30 276 OFFCURVE",
"30 117 CURVE SMOOTH",
"30 24 OFFCURVE",
"90 -11 OFFCURVE",
"160 -11 CURVE SMOOTH"
);
}
);
};
layerId = "3CA830F5-1E41-4F35-86DC-34C8110F5ED1";
paths = (
{
closed = 1;
nodes = (
"231 -11 OFFCURVE",
"268 27 OFFCURVE",
"290 85 CURVE",
"298 85 LINE",
"284 0 LINE",
"330 -10 LINE",
"470 35 LINE",
"470 170 LINE",
"405 180 LINE",
"405 316 LINE SMOOTH",
"405 427 OFFCURVE",
"379 520 OFFCURVE",
"226 520 CURVE SMOOTH",
"143 520 OFFCURVE",
"90 493 OFFCURVE",
"58 456 CURVE",
"39 328 LINE",
"127 312 LINE",
"158 403 LINE",
"120 346 LINE",
"144 366 OFFCURVE",
"171 376 OFFCURVE",
"213 376 CURVE SMOOTH",
"284 376 OFFCURVE",
"300 349 OFFCURVE",
"300 307 CURVE SMOOTH",
"300 114 LINE",
"325 179 LINE",
"285 145 OFFCURVE",
"255 124 OFFCURVE",
"199 124 CURVE SMOOTH",
"154 124 OFFCURVE",
"142 138 OFFCURVE",
"142 157 CURVE SMOOTH",
"142 201 OFFCURVE",
"202 213 OFFCURVE",
"330 211 CURVE",
"314 291 LINE",
"204 293 OFFCURVE",
"30 276 OFFCURVE",
"30 117 CURVE SMOOTH",
"30 24 OFFCURVE",
"90 -11 OFFCURVE",
"160 -11 CURVE SMOOTH"
);
}
);
userData = {
com.hugojourdan.ColorFlow = {
"0" = 0;
"1" = 0;
"10" = 0;
"11" = 0;
"2" = 0;
"3" = 0;
"4" = 0;
"5" = 0;
"6" = 0;
"7" = 0;
"8" = 0;
"9" = 0;
};
};
width = 490;
},
{
anchors = (
{
name = bottom;
position = "{338, 2}";
},
{
name = top;
position = "{218, 500}";
}
);
associatedMasterId = "7F56E5C1-F146-4434-90E4-DA1B70285074";
layerId = "C964C805-3D66-4F22-B9B3-91E0173142E6";
name = "Apr 16 19, 20:34";
paths = (
{
closed = 1;
nodes = (
"211 -10 OFFCURVE",
"248 52 OFFCURVE",
"278 123 CURVE {name = sh02;}",
"284 123 LINE {name = ah01;}",
"307 204 LINE {name = sh01;}",
"262 97 OFFCURVE",
"214 75 OFFCURVE",
"173 75 CURVE SMOOTH {name = dv02;}",
"113 75 OFFCURVE",
"92 123 OFFCURVE",
"92 194 CURVE SMOOTH {name = sh05;}",
"92 332 OFFCURVE",
"171 425 OFFCURVE",
"261 425 CURVE SMOOTH {name = dv03;}",
"302 425 OFFCURVE",
"336 405 OFFCURVE",
"350 373 CURVE {name = sh04;}",
"384 432 LINE",
"371 478 OFFCURVE",
"331 510 OFFCURVE",
"275 510 CURVE SMOOTH {name = dv04;}",
"152 510 OFFCURVE",
"35 359 OFFCURVE",
"35 169 CURVE SMOOTH {name = sh03;}",
"35 58 OFFCURVE",
"76 -10 OFFCURVE",
"146 -10 CURVE SMOOTH {name = dv01;}"
);
},
{
closed = 1;
nodes = (
"399 35 LINE",
"399 81 LINE",
"334 99 LINE {name = sh07;}",
"440 500 LINE {name = sh09;}",
"390 500 LINE",
"356 395 LINE",
"264 52 LINE",
"264 0 LINE",
"295 -7 LINE {name = sh06;}"
);
}
);
width = 480;
},
{
anchors = (
{
name = bottom;
position = "{338, 2}";
},
{
name = top;
position = "{218, 500}";
}
);
associatedMasterId = "7F56E5C1-F146-4434-90E4-DA1B70285074";
layerId = "F9E8A866-C6D7-4D24-8713-66408250C266";
name = "Apr 18 19, 10:22";
paths = (
{
closed = 1;
nodes = (
"303 430 OFFCURVE",
"326 381 OFFCURVE",
"326 307 CURVE",
"326 7 LINE",
"349 -6 LINE",
"448 18 LINE",
"448 71 LINE",
"381 83 LINE",
"381 306 LINE SMOOTH",
"381 417 OFFCURVE",
"360 510 OFFCURVE",
"223 510 CURVE SMOOTH",
"149 510 OFFCURVE",
"92 483 OFFCURVE",
"54 426 CURVE",
"45 348 LINE",
"93 341 LINE",
"122 408 LINE",
"111 390 LINE",
"137 415 OFFCURVE",
"170 430 OFFCURVE",
"217 430 CURVE SMOOTH"
);
},
{
closed = 1;
nodes = (
"46 20 OFFCURVE",
"116 -11 OFFCURVE",
"183 -11 CURVE SMOOTH",
"265 -11 OFFCURVE",
"314 37 OFFCURVE",
"340 110 CURVE",
"326 149 LINE",
"296 99 OFFCURVE",
"264 74 OFFCURVE",
"194 74 CURVE SMOOTH",
"132 74 OFFCURVE",
"98 93 OFFCURVE",
"98 134 CURVE SMOOTH",
"98 193 OFFCURVE",
"172 221 OFFCURVE",
"326 221 CURVE",
"326 291 LINE",
"212 291 OFFCURVE",
"46 269 OFFCURVE",
"46 118 CURVE SMOOTH"
);
}
);
width = 473;
},
{
anchors = (
{
name = bottom;
position = "{246, 0}";
},
{
name = ogonek;
position = "{463, 0}";
},
{
name = top;
position = "{226, 510}";
}
);
associatedMasterId = "3CA830F5-1E41-4F35-86DC-34C8110F5ED1";
background = {
paths = (
{
closed = 1;
nodes = (
"232 -11 OFFCURVE",
"270 27 OFFCURVE",
"292 85 CURVE",
"300 85 LINE",
"292 7 LINE",
"355 -6 LINE",
"472 15 LINE",
"472 130 LINE",
"405 145 LINE",
"405 316 LINE SMOOTH",
"405 427 OFFCURVE",
"379 520 OFFCURVE",
"226 520 CURVE SMOOTH",
"143 520 OFFCURVE",
"90 493 OFFCURVE",
"58 456 CURVE",
"39 328 LINE",
"127 312 LINE",
"158 403 LINE",
"120 346 LINE",
"144 366 OFFCURVE",
"171 376 OFFCURVE",
"213 376 CURVE SMOOTH",
"284 376 OFFCURVE",
"300 349 OFFCURVE",
"300 307 CURVE SMOOTH",
"300 114 LINE",
"325 179 LINE",
"285 145 OFFCURVE",
"255 124 OFFCURVE",
"199 124 CURVE SMOOTH",
"154 124 OFFCURVE",
"142 138 OFFCURVE",
"142 157 CURVE SMOOTH",
"142 201 OFFCURVE",
"202 213 OFFCURVE",
"330 211 CURVE",
"314 291 LINE",
"204 293 OFFCURVE",
"30 276 OFFCURVE",
"30 117 CURVE SMOOTH",
"30 24 OFFCURVE",
"90 -11 OFFCURVE",
"160 -11 CURVE SMOOTH"
);
}
);
};
components = (
{
name = u;
transform = "{1, 0, 0, 1, -85, 0}";
}
);
layerId = "EEE12388-2A88-4812-A68D-170396C82592";
name = "5 Jan 25 at 15.28";
paths = (
{
closed = 1;
nodes = (
"232 -11 OFFCURVE",
"270 27 OFFCURVE",
"292 85 CURVE",
"300 85 LINE",
"292 7 LINE",
"355 -6 LINE",
"472 15 LINE",
"472 130 LINE",
"405 145 LINE",
"405 316 LINE SMOOTH",
"405 427 OFFCURVE",
"379 520 OFFCURVE",
"226 520 CURVE SMOOTH",
"143 520 OFFCURVE",
"90 493 OFFCURVE",
"58 456 CURVE",
"39 328 LINE",
"127 312 LINE",
"158 403 LINE",
"120 346 LINE",
"144 366 OFFCURVE",
"171 376 OFFCURVE",
"213 376 CURVE SMOOTH",
"284 376 OFFCURVE",
"300 349 OFFCURVE",
"300 307 CURVE SMOOTH",
"300 114 LINE",
"325 179 LINE",
"285 145 OFFCURVE",
"255 124 OFFCURVE",
"199 124 CURVE SMOOTH",
"154 124 OFFCURVE",
"142 138 OFFCURVE",
"142 157 CURVE SMOOTH",
"142 201 OFFCURVE",
"202 213 OFFCURVE",
"330 211 CURVE",
"314 291 LINE",
"204 293 OFFCURVE",
"30 276 OFFCURVE",
"30 117 CURVE SMOOTH",
"30 24 OFFCURVE",
"90 -11 OFFCURVE",
"160 -11 CURVE SMOOTH"
);
}
);
userData = {
com.hugojourdan.ColorFlow = {
"0" = 0;
"1" = 0;
"10" = 0;
"11" = 0;
"2" = 0;
"3" = 0;
"4" = 0;
"5" = 0;
"6" = 0;
"7" = 0;
"8" = 0;
"9" = 0;
};
};
width = 492;
}
);
leftKerningGroup = a;
rightKerningGroup = n;
rightMetricsKey = n;
unicode = 0061;
userData = {
KernOnName = a;
};
},
{
glyphname = adieresis;
lastChange = "2025-01-02 17:37:14 +0000";
layers = (
{
components = (
{
name = a;
},
{
name = dieresiscomb;
transform = "{1, 0, 0, 1, 61, 0}";
}
);
layerId = master01;
userData = {
com.hugojourdan.ColorFlow = {
"0" = 0;
"1" = 0;
"10" = 0;
"11" = 0;
"2" = 0;
"3" = 0;
"4" = 0;
"5" = 0;
"6" = 0;
"7" = 0;
"8" = 0;
"9" = 0;
};
};
width = 471;
},
{
components = (
{
name = a;
},
{
name = dieresiscomb;
transform = "{1, 0, 0, 1, 18, 0}";
}
);
layerId = "7F56E5C1-F146-4434-90E4-DA1B70285074";
userData = {
com.hugojourdan.ColorFlow = {
"0" = 0;
"1" = 0;
"10" = 0;
"11" = 0;
"2" = 0;
"3" = 0;
"4" = 0;
"5" = 0;
"6" = 0;
"7" = 0;
"8" = 0;
"9" = 0;
};
};
width = 470;
},
{
components = (
{
name = a;
},
{
name = dieresiscomb;
transform = "{1, 0, 0, 1, 7, 0}";
}
);
layerId = "3CA830F5-1E41-4F35-86DC-34C8110F5ED1";
userData = {
com.hugojourdan.ColorFlow = {
"0" = 0;
"1" = 0;
"10" = 0;
"11" = 0;
"2" = 0;
"3" = 0;
"4" = 0;
"5" = 0;
"6" = 0;
"7" = 0;
"8" = 0;
"9" = 0;
};
};
width = 490;
},
{
associatedMasterId = "7F56E5C1-F146-4434-90E4-DA1B70285074";
components = (
{
name = dieresiscomb;
transform = "{1, 0, 0, 1, 152, 0}";
}
);
layerId = "EE301BE9-D468-4655-B136-B83C130DCA10";
name = "Jun 7 19, 18:56";
paths = (
{
closed = 1;
nodes = (
"211 -10 OFFCURVE",
"248 52 OFFCURVE",
"278 123 CURVE {name = sh02;}",
"284 123 LINE {name = ah01;}",
"307 204 LINE {name = sh01;}",
"262 97 OFFCURVE",
"214 75 OFFCURVE",
"173 75 CURVE SMOOTH {name = dv02;}",
"113 75 OFFCURVE",
"92 123 OFFCURVE",
"92 194 CURVE SMOOTH {name = sh05;}",
"92 332 OFFCURVE",
"171 425 OFFCURVE",
"261 425 CURVE SMOOTH {name = dv03;}",
"302 425 OFFCURVE",
"336 405 OFFCURVE",
"350 373 CURVE {name = sh04;}",
"384 432 LINE",
"371 478 OFFCURVE",
"331 510 OFFCURVE",
"275 510 CURVE SMOOTH {name = dv04;}",
"152 510 OFFCURVE",
"35 359 OFFCURVE",
"35 169 CURVE SMOOTH {name = sh03;}",
"35 58 OFFCURVE",
"76 -10 OFFCURVE",
"146 -10 CURVE SMOOTH {name = dv01;}"
);
},
{
closed = 1;
nodes = (
"399 35 LINE",
"399 81 LINE",
"334 99 LINE {name = sh07;}",
"440 500 LINE {name = sh09;}",
"390 500 LINE",
"356 395 LINE",
"264 52 LINE",
"264 0 LINE",
"295 -7 LINE {name = sh06;}"
);
}
);
width = 483;
}
);
leftKerningGroup = a;
rightKerningGroup = n;
unicode = 00E4;
},
{
glyphname = ae;
lastChange = "2025-01-05 08:33:29 +0000";
layers = (
{
anchors = (
{
name = bottom;
position = "{354, 0}";
},
{
name = top;
position = "{221, 500}";
}
);
layerId = master01;
paths = (
{
closed = 1;
nodes = (
"619 -5 OFFCURVE",
"678 38 OFFCURVE",
"707 108 CURVE",
"695 114 LINE",
"663 55 OFFCURVE",
"618 20 OFFCURVE",
"545 20 CURVE SMOOTH",
"427 20 OFFCURVE",
"363 111 OFFCURVE",
"363 248 CURVE SMOOTH {name = \"🧨\";}",
"363 385 OFFCURVE",
"427 475 OFFCURVE",
"538 475 CURVE SMOOTH",
"650 475 OFFCURVE",
"702 383 OFFCURVE",
"698 260 CURVE {name = \"🧨\";}",
"703 270 LINE",
"357 270 LINE",
"357 250 LINE",
"713 250 LINE {name = \"🧨\";}",
"720 422 OFFCURVE",
"643 500 OFFCURVE",
"539 500 CURVE SMOOTH",
"434 500 OFFCURVE",
"346 421 OFFCURVE",
"346 250 CURVE SMOOTH {name = \"🧨\";}",
"346 76 OFFCURVE",
"437 -5 OFFCURVE",
"542 -5 CURVE SMOOTH"
);
},
{
closed = 1;
nodes = (
"277 -6 OFFCURVE",
"336 42 OFFCURVE",
"360 121 CURVE",
"368 121 LINE",
"359 161 LINE",
"331 67 OFFCURVE",
"286 19 OFFCURVE",
"186 19 CURVE SMOOTH",
"115 19 OFFCURVE",
"67 43 OFFCURVE",
"67 109 CURVE SMOOTH",
"67 222 OFFCURVE",
"210 250 OFFCURVE",
"351 250 CURVE {name = \"🧨\";}",
"351 270 LINE {name = \"🧨\";}",
"127 270 OFFCURVE",
"50 201 OFFCURVE",
"50 108 CURVE SMOOTH",
"50 28 OFFCURVE",
"108 -6 OFFCURVE",
"185 -6 CURVE SMOOTH"
);
},
{
closed = 1;
nodes = (
"361 254 LINE",
"361 316 LINE SMOOTH",
"361 455 OFFCURVE",
"305 499 OFFCURVE",
"208 499 CURVE SMOOTH",
"146 499 OFFCURVE",
"103 480 OFFCURVE",
"71 460 CURVE",
"64 373 LINE",
"80 371 LINE",
"114 468 LINE",
"86 444 LINE",
"124 465 OFFCURVE",
"161 474 OFFCURVE",
"208 474 CURVE SMOOTH",
"286 474 OFFCURVE",
"346 445 OFFCURVE",
"346 314 CURVE SMOOTH",
"346 254 LINE"
);
}
);
userData = {
com.hugojourdan.ColorFlow = {
"0" = 0;
"1" = 0;
"10" = 0;
"11" = 0;
"2" = 0;
"3" = 0;
"4" = 0;
"5" = 0;
"6" = 0;
"7" = 0;
"8" = 0;
"9" = 0;
};
};
vertWidth = 750;
width = 764;
},
{
anchors = (
{
name = bottom;
position = "{333, 2}";
},
{
name = top;
position = "{213, 500}";
}
);
background = {
paths = (
{
closed = 1;
nodes = (
"597 -10 OFFCURVE",
"654 22 OFFCURVE",
"695 81 CURVE",
"661 121 LINE",
"628 92 OFFCURVE",
"587 75 OFFCURVE",
"536 75 CURVE SMOOTH",
"427 75 OFFCURVE",
"373 144 OFFCURVE",
"373 251 CURVE SMOOTH {name = \"🧨\";}",
"373 354 OFFCURVE",
"423 425 OFFCURVE",
"514 425 CURVE SMOOTH",
"598 425 OFFCURVE",
"644 362 OFFCURVE",
"647 268 CURVE",
"674 300 LINE",
"359 300 LINE",
"359 232 LINE",
"701 232 LINE {name = \"🧨\";}",
"709 421 OFFCURVE",
"625 510 OFFCURVE",
"515 510 CURVE SMOOTH",
"408 510 OFFCURVE",
"321 427 OFFCURVE",
"321 253 CURVE SMOOTH {name = \"🧨\";}",
"321 73 OFFCURVE",
"412 -10 OFFCURVE",
"526 -10 CURVE SMOOTH"
);
},
{
closed = 1;
nodes = (
"271 -11 OFFCURVE",
"319 42 OFFCURVE",
"337 122 CURVE",
"353 122 LINE",
"332 181 LINE",
"310 102 OFFCURVE",
"273 69 OFFCURVE",
"191 69 CURVE SMOOTH",
"127 69 OFFCURVE",
"93 90 OFFCURVE",
"93 132 CURVE SMOOTH",
"93 193 OFFCURVE",
"167 221 OFFCURVE",
"341 221 CURVE",
"341 291 LINE {name = \"🧨\";}",
"207 291 OFFCURVE",
"41 269 OFFCURVE",
"41 118 CURVE SMOOTH",
"41 20 OFFCURVE",
"111 -11 OFFCURVE",
"180 -11 CURVE SMOOTH"
);
},
{
closed = 1;
nodes = (
"372 251 LINE",
"372 306 LINE SMOOTH",
"372 417 OFFCURVE",
"352 510 OFFCURVE",
"217 510 CURVE SMOOTH",
"144 510 OFFCURVE",
"87 483 OFFCURVE",
"49 426 CURVE",
"40 348 LINE",
"88 341 LINE",
"117 408 LINE",
"106 390 LINE",
"132 415 OFFCURVE",
"165 430 OFFCURVE",
"212 430 CURVE SMOOTH",
"298 430 OFFCURVE",
"321 381 OFFCURVE",
"321 307 CURVE SMOOTH",
"321 251 LINE {name = \"🔥\";}"
);
}
);
};
layerId = "7F56E5C1-F146-4434-90E4-DA1B70285074";
paths = (
{
closed = 1;
nodes = (
"597 -10 OFFCURVE",
"654 22 OFFCURVE",
"695 81 CURVE",
"661 121 LINE",
"628 92 OFFCURVE",
"587 75 OFFCURVE",
"536 75 CURVE SMOOTH",
"427 75 OFFCURVE",
"373 144 OFFCURVE",
"373 251 CURVE SMOOTH {name = \"🧨\";}",
"373 354 OFFCURVE",
"423 425 OFFCURVE",
"514 425 CURVE SMOOTH",
"598 425 OFFCURVE",
"644 362 OFFCURVE",
"647 268 CURVE",
"674 300 LINE",
"359 300 LINE",
"359 232 LINE",
"701 232 LINE {name = \"🧨\";}",
"709 421 OFFCURVE",
"625 510 OFFCURVE",
"515 510 CURVE SMOOTH",
"408 510 OFFCURVE",
"321 427 OFFCURVE",
"321 253 CURVE SMOOTH {name = \"🧨\";}",
"321 73 OFFCURVE",
"412 -10 OFFCURVE",
"526 -10 CURVE SMOOTH"
);
},
{
closed = 1;
nodes = (
"271 -11 OFFCURVE",
"319 42 OFFCURVE",
"337 122 CURVE",
"353 122 LINE",
"332 181 LINE",
"310 102 OFFCURVE",
"273 69 OFFCURVE",
"191 69 CURVE SMOOTH",
"127 69 OFFCURVE",
"93 90 OFFCURVE",
"93 132 CURVE SMOOTH",
"93 193 OFFCURVE",
"167 221 OFFCURVE",
"341 221 CURVE",
"341 291 LINE {name = \"🧨\";}",
"207 291 OFFCURVE",
"41 269 OFFCURVE",
"41 118 CURVE SMOOTH",
"41 20 OFFCURVE",
"111 -11 OFFCURVE",
"180 -11 CURVE SMOOTH"
);
},
{
closed = 1;
nodes = (
"370 251 LINE",
"370 306 LINE SMOOTH",
"370 418 OFFCURVE",
"350 510 OFFCURVE",
"216 510 CURVE SMOOTH",
"148 510 OFFCURVE",
"95 486 OFFCURVE",
"59 453 CURVE",
"50 355 LINE",
"98 348 LINE",
"141 461 LINE",
"95 410 LINE",
"133 422 OFFCURVE",
"166 430 OFFCURVE",
"204 430 CURVE SMOOTH",
"298 430 OFFCURVE",
"321 384 OFFCURVE",
"321 307 CURVE SMOOTH",
"321 251 LINE"
);
}
);
userData = {
com.hugojourdan.ColorFlow = {
"0" = 0;
"1" = 0;
"10" = 0;
"11" = 0;
"2" = 0;
"3" = 0;
"4" = 0;
"5" = 0;
"6" = 0;
"7" = 0;
"8" = 0;
"9" = 0;
};
};
width = 746;
},
{
anchors = (
{
name = bottom;
position = "{322, 2}";
},
{
name = top;
position = "{223, 500}";
}
);
layerId = "3CA830F5-1E41-4F35-86DC-34C8110F5ED1";
paths = (
{
closed = 1;
nodes = (
"587 -10 OFFCURVE",
"644 28 OFFCURVE",
"695 97 CURVE",
"631 169 LINE",
"598 142 OFFCURVE",
"555 130 OFFCURVE",
"510 130 CURVE SMOOTH",
"420 130 OFFCURVE",
"392 178 OFFCURVE",
"392 248 CURVE SMOOTH",
"392 326 OFFCURVE",
"426 375 OFFCURVE",
"499 375 CURVE SMOOTH",
"560 375 OFFCURVE",
"596 337 OFFCURVE",
"597 250 CURVE",
"653 296 LINE",
"348 296 LINE",
"348 216 LINE",
"700 216 LINE {name = \"🧨\";}",
"718 431 OFFCURVE",
"622 520 OFFCURVE",
"508 520 CURVE SMOOTH",
"393 520 OFFCURVE",
"300 435 OFFCURVE",
"300 249 CURVE SMOOTH {name = \"🧨\";}",
"300 73 OFFCURVE",
"384 -10 OFFCURVE",
"505 -10 CURVE SMOOTH"
);
},
{
closed = 1;
nodes = (
"245 -11 OFFCURVE",
"301 19 OFFCURVE",
"317 115 CURVE",
"325 115 LINE",
"310 169 LINE",
"278 141 OFFCURVE",
"247 124 OFFCURVE",
"199 124 CURVE SMOOTH",
"154 124 OFFCURVE",
"142 138 OFFCURVE",
"142 157 CURVE SMOOTH",
"142 197 OFFCURVE",
"194 211 OFFCURVE",
"322 211 CURVE",
"322 291 LINE {name = \"🧨\";}",
"190 291 OFFCURVE",
"30 269 OFFCURVE",
"30 117 CURVE SMOOTH",
"30 24 OFFCURVE",
"90 -11 OFFCURVE",
"170 -11 CURVE SMOOTH"
);
},
{
closed = 1;
nodes = (
"385 254 LINE",
"385 316 LINE SMOOTH",
"385 427 OFFCURVE",
"362 520 OFFCURVE",
"220 520 CURVE SMOOTH",
"143 520 OFFCURVE",
"90 493 OFFCURVE",
"58 456 CURVE",
"39 328 LINE",
"127 312 LINE",
"166 425 LINE",
"117 344 LINE",
"141 365 OFFCURVE",
"168 376 OFFCURVE",
"213 376 CURVE SMOOTH",
"284 376 OFFCURVE",
"300 349 OFFCURVE",
"300 307 CURVE SMOOTH",
"300 254 LINE"
);
}
);
userData = {
com.hugojourdan.ColorFlow = {
"0" = 0;
"1" = 0;
"10" = 0;
"11" = 0;
"2" = 0;
"3" = 0;
"4" = 0;
"5" = 0;
"6" = 0;
"7" = 0;
"8" = 0;
"9" = 0;
};
};
width = 730;
}
);
leftKerningGroup = a;
leftMetricsKey = a;
rightKerningGroup = e;
rightMetricsKey = e;
unicode = 00E6;
},
{
glyphname = b;
lastChange = "2025-01-05 11:04:39 +0000";
layers = (
{
background = {
paths = (
{
closed = 1;
nodes = (
"401 -5 OFFCURVE",
"469 73 OFFCURVE",
"469 250 CURVE SMOOTH",
"469 418 OFFCURVE",
"406 500 OFFCURVE",
"286 500 CURVE SMOOTH",
"202 500 OFFCURVE",
"132 458 OFFCURVE",
"92 375 CURVE",
"102 368 LINE {name = \"🧨\";}",
"137 435 OFFCURVE",
"202 475 OFFCURVE",
"282 475 CURVE SMOOTH",
"408 475 OFFCURVE",
"453 379 OFFCURVE",
"453 250 CURVE SMOOTH",
"453 105 OFFCURVE",
"398 20 OFFCURVE",
"284 20 CURVE SMOOTH",
"199 20 OFFCURVE",
"138 68 OFFCURVE",
"103 174 CURVE {name = \"🧨\";}",
"103 123 LINE",
"109 123 LINE",
"142 55 OFFCURVE",
"179 -5 OFFCURVE",
"283 -5 CURVE SMOOTH"
);
},
{
closed = 1;
nodes = (
"102 0 LINE",
"103 123 LINE {name = \"🔥\";}",
"103 687 LINE",
"114 748 LINE",
"105 755 LINE",
"20 712 LINE",
"20 697 LINE",
"88 687 LINE",
"88 0 LINE"
);
}
);
};
layerId = master01;
paths = (
{
closed = 1;
nodes = (
"401 -5 OFFCURVE",
"469 73 OFFCURVE",
"469 250 CURVE SMOOTH",
"469 418 OFFCURVE",
"406 500 OFFCURVE",
"286 500 CURVE SMOOTH",
"202 500 OFFCURVE",
"132 458 OFFCURVE",
"92 375 CURVE",
"99 363 LINE {name = \"🧨\";}",
"135 433 OFFCURVE",
"201 475 OFFCURVE",
"282 475 CURVE SMOOTH",
"408 475 OFFCURVE",
"453 379 OFFCURVE",
"453 250 CURVE SMOOTH",
"453 105 OFFCURVE",
"398 20 OFFCURVE",
"284 20 CURVE SMOOTH",
"196 20 OFFCURVE",
"133 71 OFFCURVE",
"98 190 CURVE {name = \"🧨\";}",
"96 123 LINE",
"109 123 LINE",
"142 55 OFFCURVE",
"179 -5 OFFCURVE",
"283 -5 CURVE SMOOTH"
);
},
{
closed = 1;
nodes = (
"102 0 LINE",
"103 126 LINE {name = \"🧨\";}",
"103 687 LINE",
"114 748 LINE",
"105 755 LINE",
"20 712 LINE",
"20 697 LINE",
"88 687 LINE",
"88 0 LINE"
);
}
);
userData = {
com.hugojourdan.ColorFlow = {
"0" = 0;
"1" = 0;
"10" = 0;
"11" = 0;
"2" = 0;
"3" = 0;
"4" = 0;
"5" = 0;
"6" = 0;
"7" = 0;
"8" = 0;
"9" = 0;
};
};
vertWidth = 750;
width = 523;
},
{
background = {
paths = (
{
closed = 1;
nodes = (
"402 -10 OFFCURVE",
"494 69 OFFCURVE",
"494 254 CURVE SMOOTH",
"494 423 OFFCURVE",
"417 510 OFFCURVE",
"299 510 CURVE SMOOTH",
"208 510 OFFCURVE",
"143 460 OFFCURVE",
"119 346 CURVE",
"146 333 LINE {name = \"🧨\";}",
"172 401 OFFCURVE",
"228 425 OFFCURVE",
"290 425 CURVE SMOOTH",
"399 425 OFFCURVE",
"437 347 OFFCURVE",
"437 250 CURVE SMOOTH",
"437 135 OFFCURVE",
"383 75 OFFCURVE",
"287 75 CURVE SMOOTH",
"219 75 OFFCURVE",
"170 106 OFFCURVE",
"147 174 CURVE {name = \"🧨\";}",
"147 93 LINE",
"153 93 LINE",
"170 49 OFFCURVE",
"207 -10 OFFCURVE",
"296 -10 CURVE SMOOTH"
);
},
{
closed = 1;
nodes = (
"127 0 LINE",
"147 93 LINE {name = \"🔥\";}",
"147 647 LINE",
"168 748 LINE",
"142 760 LINE",
"25 712 LINE",
"25 657 LINE",
"92 647 LINE",
"92 0 LINE"
);
}
);
};
layerId = "7F56E5C1-F146-4434-90E4-DA1B70285074";
paths = (
{
closed = 1;
nodes = (
"402 -10 OFFCURVE",
"494 69 OFFCURVE",
"494 254 CURVE SMOOTH",
"494 423 OFFCURVE",
"417 510 OFFCURVE",
"299 510 CURVE SMOOTH",
"205 510 OFFCURVE",
"141 457 OFFCURVE",
"114 336 CURVE",
"141 320 LINE {name = \"🧨\";}",
"168 402 OFFCURVE",
"227 425 OFFCURVE",
"288 425 CURVE SMOOTH",
"400 425 OFFCURVE",
"437 346 OFFCURVE",
"437 250 CURVE SMOOTH",
"437 135 OFFCURVE",
"383 75 OFFCURVE",
"287 75 CURVE SMOOTH",
"215 75 OFFCURVE",
"163 107 OFFCURVE",
"139 197 CURVE {name = \"🧨\";}",
"137 93 LINE",
"153 93 LINE",
"170 49 OFFCURVE",
"207 -10 OFFCURVE",
"296 -10 CURVE SMOOTH"
);
},
{
closed = 1;
nodes = (
"127 0 LINE",
"147 97 LINE {name = \"🧨\";}",
"147 647 LINE",
"168 748 LINE",
"142 760 LINE",
"25 712 LINE",
"25 657 LINE",
"92 647 LINE",
"92 0 LINE"
);
}
);
userData = {
com.hugojourdan.ColorFlow = {
"0" = 0;
"1" = 0;
"10" = 0;
"11" = 0;
"2" = 0;
"3" = 0;
"4" = 0;
"5" = 0;
"6" = 0;
"7" = 0;
"8" = 0;
"9" = 0;
};
};
vertWidth = 750;
width = 534;
},
{
background = {
paths = (
{
closed = 1;
nodes = (
"441 -9 OFFCURVE",
"509 98 OFFCURVE",
"509 266 CURVE SMOOTH",
"509 444 OFFCURVE",
"433 520 OFFCURVE",
"324 520 CURVE SMOOTH",
"226 520 OFFCURVE",
"167 458 OFFCURVE",
"134 321 CURVE",
"181 294 LINE {name = \"🧨\";}",
"207 351 OFFCURVE",
"245 365 OFFCURVE",
"291 365 CURVE SMOOTH",
"363 365 OFFCURVE",
"402 327 OFFCURVE",
"402 259 CURVE SMOOTH",
"402 192 OFFCURVE",
"364 146 OFFCURVE",
"291 146 CURVE SMOOTH",
"245 146 OFFCURVE",
"208 164 OFFCURVE",
"182 204 CURVE {name = \"🧨\";}",
"182 103 LINE",
"193 103 LINE",
"202 36 OFFCURVE",
"243 -9 OFFCURVE",
"321 -9 CURVE SMOOTH"
);
},
{
closed = 1;
nodes = (
"152 0 LINE",
"182 103 LINE {name = \"🔥\";}",
"182 567 LINE",
"203 748 LINE",
"137 760 LINE",
"10 712 LINE",
"10 577 LINE",
"77 567 LINE",
"77 0 LINE"
);
}
);
};
layerId = "3CA830F5-1E41-4F35-86DC-34C8110F5ED1";
paths = (
{
closed = 1;
nodes = (
"441 -9 OFFCURVE",
"509 98 OFFCURVE",
"509 266 CURVE SMOOTH",
"509 444 OFFCURVE",
"433 520 OFFCURVE",
"324 520 CURVE SMOOTH",
"224 520 OFFCURVE",
"165 455 OFFCURVE",
"131 311 CURVE",
"172 274 LINE {name = \"🧨\";}",
"201 350 OFFCURVE",
"241 365 OFFCURVE",
"291 365 CURVE SMOOTH",
"363 365 OFFCURVE",
"402 327 OFFCURVE",
"402 259 CURVE SMOOTH",
"402 192 OFFCURVE",
"364 146 OFFCURVE",
"291 146 CURVE SMOOTH",
"241 146 OFFCURVE",
"197 167 OFFCURVE",
"173 224 CURVE {name = \"🧨\";}",
"172 103 LINE",
"193 103 LINE",
"202 36 OFFCURVE",
"243 -9 OFFCURVE",
"321 -9 CURVE SMOOTH"
);
},
{
closed = 1;
nodes = (
"152 0 LINE",
"182 106 LINE {name = \"🧨\";}",
"182 567 LINE",
"203 748 LINE",
"137 760 LINE",
"10 712 LINE",
"10 577 LINE",
"77 567 LINE",
"77 0 LINE"
);
}
);
userData = {
com.hugojourdan.ColorFlow = {
"0" = 0;
"1" = 0;
"10" = 0;
"11" = 0;
"2" = 0;
"3" = 0;
"4" = 0;
"5" = 0;
"6" = 0;
"7" = 0;
"8" = 0;
"9" = 0;
};
};
vertWidth = 750;
width = 539;
},
{
associatedMasterId = "3CA830F5-1E41-4F35-86DC-34C8110F5ED1";
background = {
paths = (
{
closed = 1;
nodes = (
"489 -9 OFFCURVE",
"554 91 OFFCURVE",
"554 252 CURVE SMOOTH",
"554 436 OFFCURVE",
"470 520 OFFCURVE",
"349 520 CURVE SMOOTH",
"250 520 OFFCURVE",
"188 462 OFFCURVE",
"154 335 CURVE",
"201 308 LINE",
"222 351 OFFCURVE",
"274 365 OFFCURVE",
"324 365 CURVE SMOOTH",
"414 365 OFFCURVE",
"447 313 OFFCURVE",
"447 250 CURVE SMOOTH",
"447 181 OFFCURVE",
"409 146 OFFCURVE",
"326 146 CURVE SMOOTH",
"274 146 OFFCURVE",
"234 159 OFFCURVE",
"202 214 CURVE",
"202 123 LINE",
"213 123 LINE",
"234 52 OFFCURVE",
"266 -9 OFFCURVE",
"361 -9 CURVE SMOOTH"
);
},
{
closed = 1;
nodes = (
"202 0 LINE",
"202 567 LINE",
"223 748 LINE",
"157 760 LINE",
"30 712 LINE",
"30 577 LINE",
"97 567 LINE",
"97 163 LINE",
"30 130 LINE",
"30 0 LINE"
);
}
);
};
layerId = "43C0CAFB-6FDF-4DA6-BA4E-2FAF39951554";
name = "29 Jan 23 17.14";
paths = (
{
closed = 1;
nodes = (
"465 -9 OFFCURVE",
"534 92 OFFCURVE",
"534 261 CURVE SMOOTH",
"534 438 OFFCURVE",
"458 520 OFFCURVE",
"347 520 CURVE SMOOTH",
"250 520 OFFCURVE",
"188 458 OFFCURVE",
"154 321 CURVE",
"201 294 LINE",
"228 351 OFFCURVE",
"268 365 OFFCURVE",
"316 365 CURVE SMOOTH",
"397 365 OFFCURVE",
"427 325 OFFCURVE",
"427 258 CURVE SMOOTH",
"427 190 OFFCURVE",
"397 146 OFFCURVE",
"320 146 CURVE SMOOTH",
"267 146 OFFCURVE",
"229 167 OFFCURVE",
"202 214 CURVE",
"202 123 LINE",
"213 123 LINE",
"223 44 OFFCURVE",
"264 -9 OFFCURVE",
"349 -9 CURVE SMOOTH"
);
},
{
closed = 1;
nodes = (
"202 0 LINE",
"202 567 LINE",
"223 748 LINE",
"157 760 LINE",
"30 712 LINE",
"30 577 LINE",
"97 567 LINE",
"97 163 LINE",
"30 130 LINE",
"30 0 LINE"
);
}
);
vertWidth = 750;
width = 564;
},
{
associatedMasterId = "7F56E5C1-F146-4434-90E4-DA1B70285074";
layerId = "FD5A5494-871C-4E2A-9B8B-397F129F27E7";
name = "29 Jan 23 17.15";
paths = (
{
closed = 1;
nodes = (
"432 -10 OFFCURVE",
"524 73 OFFCURVE",
"524 253 CURVE SMOOTH",
"524 427 OFFCURVE",
"438 510 OFFCURVE",
"317 510 CURVE SMOOTH",
"226 510 OFFCURVE",
"154 463 OFFCURVE",
"129 366 CURVE",
"156 353 LINE",
"182 398 OFFCURVE",
"240 425 OFFCURVE",
"309 425 CURVE SMOOTH",
"422 425 OFFCURVE",
"467 350 OFFCURVE",
"467 250 CURVE SMOOTH",
"467 140 OFFCURVE",
"412 75 OFFCURVE",
"314 75 CURVE SMOOTH",
"238 75 OFFCURVE",
"183 115 OFFCURVE",
"157 204 CURVE",
"157 123 LINE",
"163 123 LINE",
"187 52 OFFCURVE",
"225 -10 OFFCURVE",
"320 -10 CURVE SMOOTH"
);
},
{
closed = 1;
nodes = (
"137 0 LINE",
"157 123 LINE",
"157 647 LINE",
"178 748 LINE",
"152 760 LINE",
"35 712 LINE",
"35 657 LINE",
"102 647 LINE",
"102 0 LINE"
);
}
);
vertWidth = 750;
width = 569;
}
);
leftKerningGroup = b;
rightKerningGroup = o;
rightMetricsKey = o;
unicode = 0062;
userData = {
KernOnName = b;
};
},
{
glyphname = c;
lastChange = "2025-01-06 03:38:35 +0000";
layers = (
{
anchors = (
{
name = cedilla;
position = "{248, 0}";
},
{
name = top;
position = "{265, 500}";
}
);
background = {
paths = (
{
closed = 1;
nodes = (
"332 -5 OFFCURVE",
"398 34 OFFCURVE",
"432 112 CURVE",
"420 118 LINE",
"389 48 OFFCURVE",
"326 20 OFFCURVE",
"256 20 CURVE SMOOTH",
"130 20 OFFCURVE",
"71 111 OFFCURVE",
"71 249 CURVE SMOOTH",
"71 384 OFFCURVE",
"128 475 OFFCURVE",
"265 475 CURVE SMOOTH",
"321 475 OFFCURVE",
"364 459 OFFCURVE",
"393 434 CURVE",
"387 447 LINE",
"378 465 LINE",
"405 344 LINE",
"423 346 LINE",
"413 451 LINE",
"375 485 OFFCURVE",
"318 500 OFFCURVE",
"265 500 CURVE SMOOTH",
"142 500 OFFCURVE",
"54 421 OFFCURVE",
"54 249 CURVE SMOOTH",
"54 76 OFFCURVE",
"141 -5 OFFCURVE",
"254 -5 CURVE SMOOTH"
);
}
);
};
layerId = master01;
paths = (
{
closed = 1;
nodes = (
"325 -5 OFFCURVE",
"384 25 OFFCURVE",
"418 78 CURVE",
"408 85 LINE",
"377 42 OFFCURVE",
"321 20 OFFCURVE",
"258 20 CURVE SMOOTH",
"131 20 OFFCURVE",
"71 111 OFFCURVE",
"71 249 CURVE SMOOTH",
"71 384 OFFCURVE",
"128 475 OFFCURVE",
"265 475 CURVE SMOOTH",
"321 475 OFFCURVE",
"364 459 OFFCURVE",
"393 434 CURVE",
"387 447 LINE",
"368 465 LINE",
"405 344 LINE",
"423 346 LINE",
"413 451 LINE",
"375 485 OFFCURVE",
"318 500 OFFCURVE",
"265 500 CURVE SMOOTH",
"142 500 OFFCURVE",
"54 421 OFFCURVE",
"54 249 CURVE SMOOTH",
"54 76 OFFCURVE",
"142 -5 OFFCURVE",
"256 -5 CURVE SMOOTH"
);
}
);
userData = {
com.hugojourdan.ColorFlow = {
"0" = 0;
"1" = 0;
"10" = 0;
"11" = 0;
"2" = 0;
"3" = 0;
"4" = 0;
"5" = 0;
"6" = 0;
"7" = 0;
"8" = 0;
"9" = 0;
};
com.typemytype.robofont.guides = (
{
isGlobal = 0;
magnetic = 5;
x = 0;
y = -213;
}
);
};
vertWidth = 750;
width = 472;
},
{
anchors = (
{
name = cedilla;
position = "{253, 0}";
},
{
name = top;
position = "{258, 500}";
}
);
layerId = "7F56E5C1-F146-4434-90E4-DA1B70285074";
paths = (
{
closed = 1;
nodes = (
"325 -10 OFFCURVE",
"385 18 OFFCURVE",
"432 81 CURVE",
"398 121 LINE",
"364 92 OFFCURVE",
"317 75 OFFCURVE",
"261 75 CURVE SMOOTH",
"148 75 OFFCURVE",
"97 140 OFFCURVE",
"97 245 CURVE SMOOTH",
"97 350 OFFCURVE",
"149 425 OFFCURVE",
"255 425 CURVE SMOOTH",
"313 425 OFFCURVE",
"355 403 OFFCURVE",
"380 366 CURVE",
"360 396 LINE",
"341 425 LINE",
"379 341 LINE",
"427 348 LINE",
"418 456 LINE",
"380 493 OFFCURVE",
"323 510 OFFCURVE",
"264 510 CURVE SMOOTH",
"136 510 OFFCURVE",
"40 422 OFFCURVE",
"40 245 CURVE SMOOTH",
"40 68 OFFCURVE",
"134 -10 OFFCURVE",
"255 -10 CURVE SMOOTH"
);
}
);
userData = {
com.hugojourdan.ColorFlow = {
"0" = 0;
"1" = 0;
"10" = 0;
"11" = 0;
"2" = 0;
"3" = 0;
"4" = 0;
"5" = 0;
"6" = 0;
"7" = 0;
"8" = 0;
"9" = 0;
};
com.typemytype.robofont.guides = (
{
isGlobal = 0;
magnetic = 5;
x = 0;
y = -213;
}
);
};
width = 467;
},
{
anchors = (
{
name = cedilla;
position = "{244, 0}";
},
{
name = top;
position = "{249, 500}";
}
);
background = {
paths = (
{
closed = 1;
nodes = (
"336 -10 OFFCURVE",
"403 24 OFFCURVE",
"455 97 CURVE",
"391 184 LINE",
"354 154 OFFCURVE",
"307 145 OFFCURVE",
"263 145 CURVE SMOOTH",
"174 145 OFFCURVE",
"137 187 OFFCURVE",
"137 253 CURVE SMOOTH",
"137 319 OFFCURVE",
"173 365 OFFCURVE",
"257 365 CURVE SMOOTH",
"300 365 OFFCURVE",
"336 353 OFFCURVE",
"357 333 CURVE",
"347 370 LINE",
"296 400 LINE",
"340 290 LINE",
"428 311 LINE",
"409 466 LINE",
"371 503 OFFCURVE",
"314 520 OFFCURVE",
"255 520 CURVE SMOOTH",
"126 520 OFFCURVE",
"30 434 OFFCURVE",
"30 253 CURVE SMOOTH",
"30 73 OFFCURVE",
"124 -10 OFFCURVE",
"254 -10 CURVE SMOOTH"
);
}
);
};
layerId = "3CA830F5-1E41-4F35-86DC-34C8110F5ED1";
paths = (
{
closed = 1;
nodes = (
"325 -10 OFFCURVE",
"393 24 OFFCURVE",
"445 97 CURVE",
"377 181 LINE",
"341 153 OFFCURVE",
"295 145 OFFCURVE",
"257 145 CURVE SMOOTH",
"171 145 OFFCURVE",
"137 188 OFFCURVE",
"137 253 CURVE SMOOTH",
"137 320 OFFCURVE",
"173 365 OFFCURVE",
"257 365 CURVE SMOOTH",
"300 365 OFFCURVE",
"336 353 OFFCURVE",
"357 333 CURVE",
"347 370 LINE",
"296 400 LINE",
"340 290 LINE",
"428 311 LINE",
"409 479 LINE",
"371 507 OFFCURVE",
"315 520 OFFCURVE",
"264 520 CURVE SMOOTH",
"127 520 OFFCURVE",
"30 425 OFFCURVE",
"30 250 CURVE SMOOTH",
"30 83 OFFCURVE",
"119 -10 OFFCURVE",
"247 -10 CURVE SMOOTH"
);
}
);
userData = {
com.hugojourdan.ColorFlow = {
"0" = 0;
"1" = 0;
"10" = 0;
"11" = 0;
"2" = 0;
"3" = 0;
"4" = 0;
"5" = 0;
"6" = 0;
"7" = 0;
"8" = 0;
"9" = 0;
};
com.typemytype.robofont.guides = (
{
isGlobal = 0;
magnetic = 5;
x = 0;
y = -213;
}
);
};
width = 465;
},
{
anchors = (
{
name = cedilla;
position = "{244, 0}";
},
{
name = top;
position = "{249, 500}";
}
);
associatedMasterId = "3CA830F5-1E41-4F35-86DC-34C8110F5ED1";
layerId = "E8D8F661-E0BC-463A-AB2D-EF7279C649EB";
name = "26 Jan 23 17.54";
paths = (
{
closed = 1;
nodes = (
"336 -10 OFFCURVE",
"403 24 OFFCURVE",
"455 97 CURVE",
"391 184 LINE",
"354 154 OFFCURVE",
"307 145 OFFCURVE",
"263 145 CURVE SMOOTH",
"174 145 OFFCURVE",
"137 187 OFFCURVE",
"137 253 CURVE SMOOTH",
"137 319 OFFCURVE",
"173 365 OFFCURVE",
"251 365 CURVE SMOOTH",
"309 365 OFFCURVE",
"354 343 OFFCURVE",
"381 306 CURVE",
"384 334 LINE",
"296 400 LINE",
"340 290 LINE",
"428 311 LINE",
"409 466 LINE",
"371 503 OFFCURVE",
"314 520 OFFCURVE",
"255 520 CURVE SMOOTH",
"126 520 OFFCURVE",
"30 434 OFFCURVE",
"30 253 CURVE SMOOTH",
"30 73 OFFCURVE",
"124 -10 OFFCURVE",
"254 -10 CURVE SMOOTH"
);
}
);
userData = {
com.typemytype.robofont.guides = (
{
isGlobal = 0;
magnetic = 5;
x = 0;
y = -213;
}
);
};
width = 485;
},
{
anchors = (
{
name = cedilla;
position = "{244, 0}";
},
{
name = top;
position = "{249, 500}";
}
);
associatedMasterId = "3CA830F5-1E41-4F35-86DC-34C8110F5ED1";
background = {
paths = (
{
closed = 1;
nodes = (
"336 -10 OFFCURVE",
"403 24 OFFCURVE",
"455 97 CURVE",
"391 184 LINE",
"354 154 OFFCURVE",
"307 145 OFFCURVE",
"263 145 CURVE SMOOTH",
"174 145 OFFCURVE",
"137 187 OFFCURVE",
"137 253 CURVE SMOOTH",
"137 319 OFFCURVE",
"173 365 OFFCURVE",
"251 365 CURVE SMOOTH",
"309 365 OFFCURVE",
"354 343 OFFCURVE",
"381 306 CURVE",
"384 334 LINE",
"296 400 LINE",
"340 290 LINE",
"428 311 LINE",
"409 466 LINE",
"371 503 OFFCURVE",
"314 520 OFFCURVE",
"255 520 CURVE SMOOTH",
"126 520 OFFCURVE",
"30 434 OFFCURVE",
"30 253 CURVE SMOOTH",
"30 73 OFFCURVE",
"124 -10 OFFCURVE",
"254 -10 CURVE SMOOTH"
);
}
);
};
layerId = "5E837601-8DD6-4184-8516-7876B878E768";
name = "29 Jan 23 16.27";
paths = (
{
closed = 1;
nodes = (
"336 -10 OFFCURVE",
"403 24 OFFCURVE",
"455 97 CURVE",
"391 184 LINE",
"354 154 OFFCURVE",
"307 145 OFFCURVE",
"263 145 CURVE SMOOTH",
"174 145 OFFCURVE",
"137 187 OFFCURVE",
"137 253 CURVE SMOOTH",
"137 319 OFFCURVE",
"173 365 OFFCURVE",
"257 365 CURVE SMOOTH",
"300 365 OFFCURVE",
"336 353 OFFCURVE",
"357 333 CURVE",
"347 370 LINE",
"296 400 LINE",
"340 290 LINE",
"428 311 LINE",
"409 466 LINE",
"371 503 OFFCURVE",
"314 520 OFFCURVE",
"255 520 CURVE SMOOTH",
"126 520 OFFCURVE",
"30 434 OFFCURVE",
"30 253 CURVE SMOOTH",
"30 73 OFFCURVE",
"124 -10 OFFCURVE",
"254 -10 CURVE SMOOTH"
);
}
);
userData = {
com.typemytype.robofont.guides = (
{
isGlobal = 0;
magnetic = 5;
x = 0;
y = -213;
}
);
};
width = 485;
}
);
leftKerningGroup = o;
leftMetricsKey = o;
rightKerningGroup = c;
unicode = 0063;
userData = {
KernOnName = c;
};
},
{
glyphname = d;
lastChange = "2025-01-05 11:04:39 +0000";
layers = (
{
anchors = (
{
name = bottom;
position = "{263, 0}";
},
{
name = center;
position = "{263, 495}";
},
{
name = top;
position = "{263, 750}";
},
{
name = topright;
position = "{444, 495}";
}
);
background = {
paths = (
{
closed = 1;
nodes = (
"342 -5 OFFCURVE",
"390 56 OFFCURVE",
"414 123 CURVE {name = sh02;}",
"420 123 LINE {name = \"🧨\";}",
"420 204 LINE {name = \"🧨\";}",
"393 50 OFFCURVE",
"319 20 OFFCURVE",
"248 20 CURVE SMOOTH {name = dv02;}",
"117 20 OFFCURVE",
"71 121 OFFCURVE",
"71 247 CURVE SMOOTH {name = sh05;}",
"71 393 OFFCURVE",
"133 475 OFFCURVE",
"254 475 CURVE SMOOTH {name = dv03;}",
"343 475 OFFCURVE",
"397 427 OFFCURVE",
"421 348 CURVE {name = \"🧨\";}",
"432 352 LINE",
"409 452 OFFCURVE",
"341 500 OFFCURVE",
"254 500 CURVE SMOOTH {name = dv04;}",
"138 500 OFFCURVE",
"54 421 OFFCURVE",
"54 249 CURVE SMOOTH {name = sh03;}",
"54 79 OFFCURVE",
"136 -5 OFFCURVE",
"247 -5 CURVE SMOOTH {name = dv01;}"
);
},
{
closed = 1;
nodes = (
"497 15 LINE",
"497 30 LINE",
"435 40 LINE {name = sh07;}",
"435 697 LINE",
"447 758 LINE",
"438 765 LINE",
"348 722 LINE",
"348 707 LINE",
"420 697 LINE",
"420 40 LINE",
"409 6 LINE",
"419 -2 LINE"
);
}
);
};
layerId = master01;
paths = (
{
closed = 1;
nodes = (
"342 -5 OFFCURVE",
"390 56 OFFCURVE",
"414 123 CURVE {name = sh02;}",
"428 123 LINE {name = \"🧨\";}",
"424 221 LINE {name = \"🧨\";}",
"395 51 OFFCURVE",
"320 20 OFFCURVE",
"248 20 CURVE SMOOTH {name = dv02;}",
"117 20 OFFCURVE",
"71 121 OFFCURVE",
"71 247 CURVE SMOOTH {name = sh05;}",
"71 393 OFFCURVE",
"133 475 OFFCURVE",
"254 475 CURVE SMOOTH {name = dv03;}",
"343 475 OFFCURVE",
"397 427 OFFCURVE",
"423 345 CURVE {name = \"🧨\";}",
"434 349 LINE {name = \"🧨\";}",
"409 452 OFFCURVE",
"341 500 OFFCURVE",
"254 500 CURVE SMOOTH {name = dv04;}",
"138 500 OFFCURVE",
"54 421 OFFCURVE",
"54 249 CURVE SMOOTH {name = sh03;}",
"54 79 OFFCURVE",
"136 -5 OFFCURVE",
"247 -5 CURVE SMOOTH {name = dv01;}"
);
},
{
closed = 1;
nodes = (
"497 15 LINE",
"497 30 LINE",
"435 50 LINE {name = sh07;}",
"435 697 LINE",
"447 758 LINE",
"438 765 LINE",
"348 722 LINE",
"348 707 LINE",
"420 697 LINE",
"420 127 LINE",
"414 6 LINE",
"424 -2 LINE"
);
}
);
userData = {
com.hugojourdan.ColorFlow = {
"0" = 0;
"1" = 0;
"10" = 0;
"11" = 0;
"2" = 0;
"3" = 0;
"4" = 0;
"5" = 0;
"6" = 0;
"7" = 0;
"8" = 0;
"9" = 0;
};
};
vertWidth = 750;
width = 536;
},
{
anchors = (
{
name = bottom;
position = "{253, 0}";
},
{
name = center;
position = "{253, 500}";
},
{
name = top;
position = "{253, 750}";
},
{
name = topright;
position = "{457, 500}";
}
);
background = {
paths = (
{
closed = 1;
nodes = (
"318 -10 OFFCURVE",
"357 52 OFFCURVE",
"381 123 CURVE {name = sh02;}",
"387 123 LINE {name = ah01;}",
"387 204 LINE {name = sh01;}",
"360 96 OFFCURVE",
"296 75 OFFCURVE",
"235 75 CURVE SMOOTH {name = dv02;}",
"122 75 OFFCURVE",
"77 145 OFFCURVE",
"77 250 CURVE SMOOTH {name = sh05;}",
"77 355 OFFCURVE",
"122 425 OFFCURVE",
"235 425 CURVE SMOOTH {name = dv03;}",
"304 425 OFFCURVE",
"362 398 OFFCURVE",
"388 353 CURVE {name = sh04;}",
"415 366 LINE",
"390 463 OFFCURVE",
"328 510 OFFCURVE",
"237 510 CURVE SMOOTH {name = dv04;}",
"116 510 OFFCURVE",
"20 427 OFFCURVE",
"20 248 CURVE SMOOTH {name = sh03;}",
"20 73 OFFCURVE",
"111 -10 OFFCURVE",
"222 -10 CURVE SMOOTH {name = dv01;}"
);
},
{
closed = 1;
nodes = (
"509 35 LINE",
"509 90 LINE",
"442 100 LINE {name = sh07;}",
"442 740 LINE {name = sh09;}",
"387 696 LINE",
"387 100 LINE",
"366 5 LINE",
"392 -7 LINE {name = sh06;}"
);
},
{
closed = 1;
nodes = (
"442 652 LINE",
"442 750 LINE",
"404 760 LINE",
"300 712 LINE",
"300 662 LINE",
"387 652 LINE {name = sh08;}"
);
}
);
};
layerId = "7F56E5C1-F146-4434-90E4-DA1B70285074";
paths = (
{
closed = 1;
nodes = (
"320 -10 OFFCURVE",
"360 48 OFFCURVE",
"377 123 CURVE {name = sh02;}",
"391 123 LINE {name = \"🧨\";}",
"390 220 LINE {name = \"🧨\";}",
"362 102 OFFCURVE",
"303 75 OFFCURVE",
"241 75 CURVE SMOOTH {name = dv02;}",
"140 75 OFFCURVE",
"97 145 OFFCURVE",
"97 251 CURVE SMOOTH {name = sh05;}",
"97 355 OFFCURVE",
"139 425 OFFCURVE",
"245 425 CURVE SMOOTH {name = dv03;}",
"309 425 OFFCURVE",
"364 398 OFFCURVE",
"389 352 CURVE {name = \"🧨\";}",
"416 365 LINE",
"391 463 OFFCURVE",
"334 510 OFFCURVE",
"245 510 CURVE SMOOTH {name = dv04;}",
"126 510 OFFCURVE",
"40 424 OFFCURVE",
"40 247 CURVE SMOOTH {name = sh03;}",
"40 70 OFFCURVE",
"126 -10 OFFCURVE",
"232 -10 CURVE SMOOTH {name = dv01;}"
);
},
{
closed = 1;
nodes = (
"509 35 LINE",
"509 90 LINE",
"442 100 LINE {name = sh07;}",
"442 647 LINE",
"463 748 LINE",
"437 760 LINE",
"310 712 LINE",
"310 657 LINE",
"387 647 LINE",
"387 133 LINE",
"371 5 LINE",
"397 -7 LINE {name = sh06;}"
);
}
);
userData = {
com.hugojourdan.ColorFlow = {
"0" = 0;
"1" = 0;
"10" = 0;
"11" = 0;
"2" = 0;
"3" = 0;
"4" = 0;
"5" = 0;
"6" = 0;
"7" = 0;
"8" = 0;
"9" = 0;
};
};
width = 536;
},
{
anchors = (
{
name = bottom;
position = "{277, 0}";
},
{
name = center;
position = "{277, 510}";
},
{
name = top;
position = "{277, 750}";
},
{
name = topright;
position = "{486, 510}";
}
);
background = {
components = (
{
name = p;
transform = "{-1, 0, 0, 1, 571, 0}";
}
);
};
layerId = "3CA830F5-1E41-4F35-86DC-34C8110F5ED1";
paths = (
{
closed = 1;
nodes = (
"304 -10 OFFCURVE",
"332 52 OFFCURVE",
"351 123 CURVE",
"369 123 LINE {name = \"🧨\";}",
"367 217 LINE {name = \"🧨\";}",
"335 159 OFFCURVE",
"287 145 OFFCURVE",
"245 145 CURVE SMOOTH",
"176 145 OFFCURVE",
"137 183 OFFCURVE",
"137 257 CURVE SMOOTH",
"137 317 OFFCURVE",
"163 365 OFFCURVE",
"244 365 CURVE SMOOTH",
"286 365 OFFCURVE",
"342 352 OFFCURVE",
"363 308 CURVE {name = \"🧨\";}",
"410 335 LINE",
"378 453 OFFCURVE",
"327 520 OFFCURVE",
"225 520 CURVE SMOOTH",
"112 520 OFFCURVE",
"30 436 OFFCURVE",
"30 253 CURVE SMOOTH",
"30 88 OFFCURVE",
"94 -10 OFFCURVE",
"212 -10 CURVE SMOOTH"
);
},
{
closed = 1;
nodes = (
"534 15 LINE",
"534 130 LINE",
"467 140 LINE {name = sh07;}",
"467 567 LINE",
"488 748 LINE",
"432 760 LINE",
"288 712 LINE",
"288 577 LINE",
"362 567 LINE",
"362 100 LINE",
"341 6 LINE",
"397 -6 LINE {name = sh06;}"
);
}
);
userData = {
com.hugojourdan.ColorFlow = {
"0" = 0;
"1" = 0;
"10" = 0;
"11" = 0;
"2" = 0;
"3" = 0;
"4" = 0;
"5" = 0;
"6" = 0;
"7" = 0;
"8" = 0;
"9" = 0;
};
};
width = 554;
},
{
associatedMasterId = "7F56E5C1-F146-4434-90E4-DA1B70285074";
layerId = "D632BF32-58DB-4F7B-8293-8C0700931742";
name = "Apr 18 19, 10:22";
paths = (
{
closed = 1;
nodes = (
"360 -10 OFFCURVE",
"404 52 OFFCURVE",
"431 123 CURVE {name = sh02;}",
"417 204 LINE {name = sh01;}",
"390 96 OFFCURVE",
"326 75 OFFCURVE",
"265 75 CURVE SMOOTH {name = dv02;}",
"152 75 OFFCURVE",
"107 145 OFFCURVE",
"107 250 CURVE SMOOTH {name = sh05;}",
"107 355 OFFCURVE",
"152 425 OFFCURVE",
"265 425 CURVE SMOOTH {name = dv03;}",
"334 425 OFFCURVE",
"392 398 OFFCURVE",
"418 353 CURVE {name = sh04;}",
"445 366 LINE",
"420 463 OFFCURVE",
"358 510 OFFCURVE",
"267 510 CURVE SMOOTH {name = dv04;}",
"146 510 OFFCURVE",
"50 427 OFFCURVE",
"50 248 CURVE SMOOTH {name = sh03;}",
"50 73 OFFCURVE",
"141 -10 OFFCURVE",
"252 -10 CURVE SMOOTH {name = dv01;}"
);
},
{
closed = 1;
nodes = (
"539 35 LINE",
"539 90 LINE",
"472 100 LINE {name = sh07;}",
"472 740 LINE {name = sh09;}",
"417 696 LINE",
"417 5 LINE",
"443 -7 LINE {name = sh06;}"
);
},
{
closed = 1;
nodes = (
"472 652 LINE",
"472 750 LINE",
"434 760 LINE",
"330 712 LINE",
"330 662 LINE",
"417 652 LINE {name = sh08;}"
);
}
);
width = 564;
},
{
associatedMasterId = "7F56E5C1-F146-4434-90E4-DA1B70285074";
layerId = "8F70A06D-98FD-4071-84BE-2B26072AE208";
name = "Jun 7 19, 18:55";
paths = (
{
closed = 1;
nodes = (
"475 652 LINE",
"495 750 LINE",
"459 760 LINE",
"345 712 LINE",
"335 662 LINE",
"420 652 LINE {name = sh08;}"
);
},
{
closed = 1;
nodes = (
"227 -10 OFFCURVE",
"268 52 OFFCURVE",
"301 123 CURVE {name = sh02;}",
"307 123 LINE {name = ah01;}",
"325 204 LINE {name = sh01;}",
"277 97 OFFCURVE",
"226 75 OFFCURVE",
"182 75 CURVE SMOOTH {name = dv02;}",
"115 75 OFFCURVE",
"92 123 OFFCURVE",
"92 194 CURVE SMOOTH {name = sh05;}",
"92 332 OFFCURVE",
"177 425 OFFCURVE",
"273 425 CURVE SMOOTH {name = dv03;}",
"318 425 OFFCURVE",
"355 405 OFFCURVE",
"370 373 CURVE {name = sh04;}",
"404 432 LINE",
"390 478 OFFCURVE",
"347 510 OFFCURVE",
"287 510 CURVE SMOOTH {name = dv04;}",
"158 510 OFFCURVE",
"35 359 OFFCURVE",
"35 169 CURVE SMOOTH {name = sh03;}",
"35 58 OFFCURVE",
"79 -10 OFFCURVE",
"155 -10 CURVE SMOOTH {name = dv01;}"
);
},
{
closed = 1;
nodes = (
"428 696 LINE",
"302 100 LINE",
"284 0 LINE",
"315 -7 LINE",
"419 35 LINE",
"419 81 LINE",
"357 100 LINE",
"492 740 LINE"
);
}
);
width = 520;
}
);
leftKerningGroup = o;
leftMetricsKey = o;
rightKerningGroup = d;
rightMetricsKey = a;
unicode = 0064;
userData = {
KernOnName = d;
};
},
{
glyphname = dcroat;
lastChange = "2025-01-05 08:50:23 +0000";
layers = (
{
background = {
components = (
{
name = strokeshortcomb;
transform = "{1, 0, 0, 1, -1, 0}";
}
);
paths = (
{
closed = 1;
nodes = (
"347 -5 OFFCURVE",
"386 56 OFFCURVE",
"410 123 CURVE {name = sh02;}",
"416 123 LINE {name = \"🧨\";}",
"416 204 LINE {name = \"🧨\";}",
"389 50 OFFCURVE",
"324 20 OFFCURVE",
"253 20 CURVE SMOOTH {name = dv02;}",
"125 20 OFFCURVE",
"71 120 OFFCURVE",
"71 250 CURVE SMOOTH {name = sh05;}",
"71 393 OFFCURVE",
"141 475 OFFCURVE",
"259 475 CURVE SMOOTH {name = dv03;}",
"348 475 OFFCURVE",
"393 427 OFFCURVE",
"417 348 CURVE {name = \"🧨\";}",
"428 352 LINE",
"405 452 OFFCURVE",
"346 500 OFFCURVE",
"259 500 CURVE SMOOTH {name = dv04;}",
"145 500 OFFCURVE",
"54 421 OFFCURVE",
"54 250 CURVE SMOOTH {name = sh03;}",
"54 78 OFFCURVE",
"143 -5 OFFCURVE",
"253 -5 CURVE SMOOTH {name = dv01;}"
);
},
{
closed = 1;
nodes = (
"493 15 LINE",
"493 30 LINE",
"431 40 LINE {name = sh07;}",
"431 745 LINE {name = \"🧨\";}",
"416 717 LINE {name = sh08;}",
"416 40 LINE",
"405 6 LINE",
"415 -2 LINE"
);
},
{
closed = 1;
nodes = (
"431 709 LINE {name = \"🧨\";}",
"431 755 LINE",
"420 760 LINE",
"337 732 LINE",
"337 718 LINE",
"416 709 LINE {name = \"🧨\";}"
);
}
);
};
layerId = master01;
paths = (
{
closed = 1;
nodes = (
"342 -5 OFFCURVE",
"390 56 OFFCURVE",
"414 123 CURVE {name = sh02;}",
"423 123 LINE {name = \"🧨\";}",
"422 212 LINE {name = \"🧨\";}",
"393 50 OFFCURVE",
"319 20 OFFCURVE",
"248 20 CURVE SMOOTH {name = dv02;}",
"117 20 OFFCURVE",
"71 121 OFFCURVE",
"71 247 CURVE SMOOTH {name = sh05;}",
"71 393 OFFCURVE",
"133 475 OFFCURVE",
"254 475 CURVE SMOOTH {name = dv03;}",
"343 475 OFFCURVE",
"397 427 OFFCURVE",
"421 348 CURVE {name = \"🧨\";}",
"432 352 LINE",
"409 452 OFFCURVE",
"341 500 OFFCURVE",
"254 500 CURVE SMOOTH {name = dv04;}",
"138 500 OFFCURVE",
"54 421 OFFCURVE",
"54 249 CURVE SMOOTH {name = sh03;}",
"54 79 OFFCURVE",
"136 -5 OFFCURVE",
"247 -5 CURVE SMOOTH {name = dv01;}"
);
},
{
closed = 1;
nodes = (
"497 15 LINE",
"497 30 LINE",
"435 50 LINE {name = sh07;}",
"435 697 LINE",
"447 758 LINE",
"438 765 LINE",
"348 722 LINE",
"348 707 LINE",
"420 697 LINE",
"420 40 LINE",
"409 6 LINE",
"419 -2 LINE"
);
},
{
closed = 1;
nodes = (
"515 586 LINE",
"523 604 LINE",
"519 609 LINE",
"240 609 LINE",
"231 590 LINE",
"235 586 LINE"
);
}
);
userData = {
com.hugojourdan.ColorFlow = {
"0" = 0;
"1" = 0;
"10" = 0;
"11" = 0;
"2" = 0;
"3" = 0;
"4" = 0;
"5" = 0;
"6" = 0;
"7" = 0;
"8" = 0;
"9" = 0;
};
};
width = 537;
},
{
background = {
components = (
{
name = strokeshortcomb;
transform = "{1, 0, 0, 1, -7, 0}";
}
);
paths = (
{
closed = 1;
nodes = (
"338 -10 OFFCURVE",
"377 52 OFFCURVE",
"401 123 CURVE {name = sh02;}",
"407 123 LINE {name = \"🧨\";}",
"407 204 LINE {name = \"🧨\";}",
"380 96 OFFCURVE",
"316 75 OFFCURVE",
"255 75 CURVE SMOOTH {name = dv02;}",
"142 75 OFFCURVE",
"97 145 OFFCURVE",
"97 250 CURVE SMOOTH {name = sh05;}",
"97 355 OFFCURVE",
"142 425 OFFCURVE",
"255 425 CURVE SMOOTH {name = dv03;}",
"324 425 OFFCURVE",
"382 398 OFFCURVE",
"408 353 CURVE {name = \"🧨\";}",
"435 366 LINE",
"410 463 OFFCURVE",
"348 510 OFFCURVE",
"257 510 CURVE SMOOTH {name = dv04;}",
"136 510 OFFCURVE",
"40 427 OFFCURVE",
"40 248 CURVE SMOOTH {name = sh03;}",
"40 73 OFFCURVE",
"131 -10 OFFCURVE",
"242 -10 CURVE SMOOTH {name = dv01;}"
);
},
{
closed = 1;
nodes = (
"529 35 LINE",
"529 90 LINE",
"462 100 LINE {name = sh07;}",
"462 740 LINE {name = \"🧨\";}",
"407 696 LINE",
"407 100 LINE",
"386 5 LINE",
"412 -7 LINE {name = sh06;}"
);
},
{
closed = 1;
nodes = (
"462 652 LINE {name = \"🧨\";}",
"462 750 LINE",
"424 760 LINE",
"320 712 LINE",
"320 662 LINE",
"407 652 LINE {name = \"🧨\";}"
);
}
);
};
layerId = "7F56E5C1-F146-4434-90E4-DA1B70285074";
paths = (
{
closed = 1;
nodes = (
"322 -10 OFFCURVE",
"359 52 OFFCURVE",
"381 123 CURVE {name = sh02;}",
"391 123 LINE {name = \"🧨\";}",
"390 213 LINE {name = \"🧨\";}",
"362 96 OFFCURVE",
"302 75 OFFCURVE",
"245 75 CURVE SMOOTH {name = dv02;}",
"139 75 OFFCURVE",
"97 145 OFFCURVE",
"97 250 CURVE SMOOTH {name = sh05;}",
"97 355 OFFCURVE",
"139 425 OFFCURVE",
"245 425 CURVE SMOOTH {name = dv03;}",
"309 425 OFFCURVE",
"364 398 OFFCURVE",
"389 352 CURVE {name = \"🧨\";}",
"416 365 LINE",
"391 463 OFFCURVE",
"334 510 OFFCURVE",
"245 510 CURVE SMOOTH {name = dv04;}",
"126 510 OFFCURVE",
"40 424 OFFCURVE",
"40 247 CURVE SMOOTH {name = sh03;}",
"40 70 OFFCURVE",
"126 -10 OFFCURVE",
"232 -10 CURVE SMOOTH {name = dv01;}"
);
},
{
closed = 1;
nodes = (
"509 35 LINE",
"509 90 LINE",
"442 100 LINE {name = sh07;}",
"442 647 LINE",
"463 748 LINE",
"437 760 LINE",
"310 712 LINE",
"310 657 LINE",
"387 647 LINE",
"387 100 LINE",
"366 5 LINE",
"392 -7 LINE {name = sh06;}"
);
},
{
closed = 1;
nodes = (
"520 553 LINE",
"544 598 LINE",
"536 609 LINE",
"276 609 LINE",
"252 565 LINE",
"261 553 LINE"
);
}
);
userData = {
com.hugojourdan.ColorFlow = {
"0" = 0;
"1" = 0;
"10" = 0;
"11" = 0;
"2" = 0;
"3" = 0;
"4" = 0;
"5" = 0;
"6" = 0;
"7" = 0;
"8" = 0;
"9" = 0;
};
};
width = 536;
},
{
background = {
components = (
{
name = strokeshortcomb;
transform = "{1, 0, 0, 1, -5, 0}";
}
);
paths = (
{
closed = 1;
nodes = (
"318 -10 OFFCURVE",
"350 52 OFFCURVE",
"371 123 CURVE",
"382 123 LINE {name = \"🧨\";}",
"382 214 LINE {name = \"🧨\";}",
"350 158 OFFCURVE",
"310 145 OFFCURVE",
"257 145 CURVE SMOOTH",
"175 145 OFFCURVE",
"137 180 OFFCURVE",
"137 249 CURVE SMOOTH",
"137 313 OFFCURVE",
"170 365 OFFCURVE",
"261 365 CURVE SMOOTH",
"310 365 OFFCURVE",
"362 351 OFFCURVE",
"383 308 CURVE {name = \"🧨\";}",
"430 335 LINE",
"396 462 OFFCURVE",
"339 520 OFFCURVE",
"240 520 CURVE SMOOTH",
"119 520 OFFCURVE",
"30 436 OFFCURVE",
"30 249 CURVE SMOOTH",
"30 90 OFFCURVE",
"95 -10 OFFCURVE",
"223 -10 CURVE SMOOTH"
);
},
{
closed = 1;
nodes = (
"544 15 LINE",
"544 130 LINE",
"477 140 LINE {name = sh07;}",
"477 730 LINE {name = \"🧨\";}",
"382 696 LINE",
"382 100 LINE",
"361 6 LINE",
"417 -6 LINE {name = sh06;}"
);
},
{
closed = 1;
nodes = (
"477 642 LINE {name = \"🧨\";}",
"477 740 LINE",
"419 760 LINE",
"295 712 LINE",
"295 652 LINE",
"382 642 LINE {name = \"🧨\";}"
);
}
);
};
layerId = "3CA830F5-1E41-4F35-86DC-34C8110F5ED1";
paths = (
{
closed = 1;
nodes = (
"304 -10 OFFCURVE",
"332 52 OFFCURVE",
"351 123 CURVE",
"369 123 LINE {name = \"🧨\";}",
"367 217 LINE {name = \"🧨\";}",
"335 159 OFFCURVE",
"287 145 OFFCURVE",
"245 145 CURVE SMOOTH",
"176 145 OFFCURVE",
"137 183 OFFCURVE",
"137 257 CURVE SMOOTH",
"137 317 OFFCURVE",
"163 365 OFFCURVE",
"244 365 CURVE SMOOTH",
"288 365 OFFCURVE",
"347 351 OFFCURVE",
"369 302 CURVE {name = \"🧨\";}",
"416 329 LINE",
"383 451 OFFCURVE",
"330 520 OFFCURVE",
"225 520 CURVE SMOOTH",
"112 520 OFFCURVE",
"30 436 OFFCURVE",
"30 253 CURVE SMOOTH",
"30 88 OFFCURVE",
"94 -10 OFFCURVE",
"212 -10 CURVE SMOOTH"
);
},
{
closed = 1;
nodes = (
"534 15 LINE",
"534 130 LINE",
"467 140 LINE {name = sh07;}",
"467 567 LINE",
"488 748 LINE",
"432 760 LINE",
"288 712 LINE",
"288 647 LINE",
"362 637 LINE",
"362 100 LINE",
"341 6 LINE",
"397 -6 LINE {name = sh06;}"
);
},
{
closed = 1;
nodes = (
"535 553 LINE",
"559 598 LINE",
"551 609 LINE",
"291 609 LINE",
"267 565 LINE",
"276 553 LINE"
);
}
);
userData = {
com.hugojourdan.ColorFlow = {
"0" = 0;
"1" = 0;
"10" = 0;
"11" = 0;
"2" = 0;
"3" = 0;
"4" = 0;
"5" = 0;
"6" = 0;
"7" = 0;
"8" = 0;
"9" = 0;
};
};
width = 554;
}
);
leftKerningGroup = o;
leftMetricsKey = o;
rightKerningGroup = d;
unicode = 0111;
},
